<svg width="24" height="24" viewBox="0 0 24 24" fill="none" xmlns="http://www.w3.org/2000/svg">
<path d="M20.7264 5.27501H16.0364V4.38501C16.0316 3.75504 15.7804 3.15199 15.3364 2.70501C15.1148 2.48263 14.8514 2.3063 14.5613 2.18616C14.2713 2.06602 13.9603 2.00446 13.6464 2.00501H10.3864C10.0725 2.00446 9.76152 2.06602 9.47147 2.18616C9.18142 2.3063 8.91801 2.48263 8.69641 2.70501C8.25522 3.153 8.00746 3.75624 8.00641 4.38501V5.27501H3.31641C3.11749 5.27501 2.92673 5.35403 2.78608 5.49468C2.64542 5.63533 2.56641 5.8261 2.56641 6.02501C2.56641 6.22392 2.64542 6.41469 2.78608 6.55534C2.92673 6.69599 3.11749 6.77501 3.31641 6.77501H4.73641V18.535C4.73233 18.9908 4.8186 19.4428 4.99024 19.8651C5.16188 20.2873 5.41549 20.6714 5.73641 20.995C6.39074 21.6361 7.27034 21.9951 8.18641 21.995H15.8064C16.7225 21.9951 17.6021 21.6361 18.2564 20.995C18.5772 20.6713 18.8308 20.2872 19.0024 19.865C19.1741 19.4428 19.2604 18.9908 19.2564 18.535V6.77501H20.6864C20.8853 6.77501 21.0761 6.69599 21.2167 6.55534C21.3574 6.41469 21.4364 6.22392 21.4364 6.02501C21.4364 5.8261 21.3574 5.63533 21.2167 5.49468C21.0761 5.35403 20.8853 5.27501 20.6864 5.27501H20.7264ZM9.52641 4.38501C9.52645 4.26958 9.54946 4.15532 9.5941 4.04888C9.63873 3.94244 9.70411 3.84594 9.78641 3.76501C9.95173 3.60151 10.1739 3.50833 10.4064 3.50501H13.6664C13.7834 3.50428 13.8994 3.5269 14.0076 3.57154C14.1158 3.61619 14.214 3.68196 14.2964 3.76501C14.459 3.93091 14.5521 4.15273 14.5564 4.38501V5.27501H9.55641L9.52641 4.38501ZM10.8564 16.995C10.8564 17.2602 10.751 17.5146 10.5635 17.7021C10.376 17.8897 10.1216 17.995 9.85641 17.995C9.59119 17.995 9.33684 17.8897 9.1493 17.7021C8.96176 17.5146 8.85641 17.2602 8.85641 16.995V11.565C8.85641 11.2998 8.96176 11.0454 9.1493 10.8579C9.33684 10.6704 9.59119 10.565 9.85641 10.565C10.1216 10.565 10.376 10.6704 10.5635 10.8579C10.751 11.0454 10.8564 11.2998 10.8564 11.565V16.995ZM15.2164 16.995C15.2164 17.2602 15.111 17.5146 14.9235 17.7021C14.736 17.8897 14.4816 17.995 14.2164 17.995C13.9512 17.995 13.6968 17.8897 13.5093 17.7021C13.3218 17.5146 13.2164 17.2602 13.2164 16.995V11.565C13.2164 11.2998 13.3218 11.0454 13.5093 10.8579C13.6968 10.6704 13.9512 10.565 14.2164 10.565C14.4816 10.565 14.736 10.6704 14.9235 10.8579C15.111 11.0454 15.2164 11.2998 15.2164 11.565V16.995Z" fill="#9F9F9F"/>
</svg>
