<svg width="32" height="35" viewBox="0 0 32 35" fill="none" xmlns="http://www.w3.org/2000/svg">
<path d="M6 5.875C6 4.84729 6.40826 3.86166 7.13496 3.13496C7.86166 2.40826 8.84729 2 9.875 2H21.5C22.5277 2 23.5133 2.40826 24.24 3.13496C24.9667 3.86166 25.375 4.84729 25.375 5.875V29.125C25.375 30.1527 24.9667 31.1383 24.24 31.865C23.5133 32.5917 22.5277 33 21.5 33H9.875C8.84729 33 7.86166 32.5917 7.13496 31.865C6.40826 31.1383 6 30.1527 6 29.125V5.875ZM17.625 27.1875C17.625 26.6736 17.4209 26.1808 17.0575 25.8175C16.6942 25.4541 16.2014 25.25 15.6875 25.25C15.1736 25.25 14.6808 25.4541 14.3175 25.8175C13.9541 26.1808 13.75 26.6736 13.75 27.1875C13.75 27.7014 13.9541 28.1942 14.3175 28.5575C14.6808 28.9209 15.1736 29.125 15.6875 29.125C16.2014 29.125 16.6942 28.9209 17.0575 28.5575C17.4209 28.1942 17.625 27.7014 17.625 27.1875Z" fill="white"/>
</svg>
