<svg width="210" height="210" viewBox="0 0 210 210" fill="none" xmlns="http://www.w3.org/2000/svg">
<g clip-path="url(#clip0_1127_3632)">
<rect width="210" height="210" rx="105" fill="url(#paint0_linear_1127_3632)"/>
<path fill-rule="evenodd" clip-rule="evenodd" d="M160.757 69.8792C160.757 62.0056 154.367 55.6154 146.494 55.6154L63.5041 55.6154C55.6304 55.6154 49.2402 62.0056 49.2402 69.8792L49.2402 125.276C49.2402 133.149 55.6304 139.54 63.5041 139.54L146.494 139.54C154.367 139.54 160.758 133.149 160.758 125.276L160.757 69.8792ZM152.977 69.8792L152.977 125.276C152.977 128.855 150.073 131.759 146.494 131.759L63.5041 131.759C59.9251 131.759 57.0205 128.855 57.0205 125.276L57.0205 69.8792C57.0205 66.3003 59.9251 63.3957 63.5041 63.3957L146.494 63.3957C150.073 63.3957 152.977 66.3003 152.977 69.8792Z" fill="white"/>
<rect x="80.3789" y="144.827" width="45.6207" height="7.96552" rx="3.98276" fill="white"/>
<path d="M132.556 103.734H140.377V104.774H132.556V103.734ZM136.466 95.7267C138.005 95.7267 139.262 96.9843 139.262 98.5203C139.262 100.059 138.004 101.311 136.466 101.311C134.931 101.311 133.671 100.059 133.671 98.5203C133.671 96.9848 134.931 95.7267 136.466 95.7267ZM137.547 92.2642C137.553 92.2642 137.56 92.2642 137.568 92.2642H138.467C139.158 92.2662 139.158 93.3028 138.467 93.3028H137.568C136.875 93.3183 136.854 92.2797 137.547 92.2642ZM134.445 92.2642C134.453 92.2642 134.461 92.2642 134.469 92.2642H135.371C136.062 92.2662 136.062 93.3028 135.371 93.3028H134.469C133.775 93.3183 133.754 92.2797 134.445 92.2642ZM137.547 89.9845C137.553 89.9845 137.56 89.9845 137.568 89.9845H138.467C139.155 89.9874 139.155 91.0221 138.467 91.0221H137.568C136.877 91.0345 136.856 90.0009 137.547 89.9845ZM134.445 89.9845C134.453 89.9845 134.461 89.9845 134.469 89.9845H135.371C136.062 89.9874 136.062 91.0221 135.371 91.0221H134.469C133.778 91.0345 133.757 90.0009 134.445 89.9845ZM137.547 87.7062C137.553 87.7062 137.56 87.7062 137.568 87.7062H138.467C139.158 87.7062 139.158 88.7428 138.467 88.7428H137.568C136.875 88.7588 136.854 87.7202 137.547 87.7062ZM134.445 87.7062C134.453 87.7062 134.461 87.7062 134.469 87.7062H135.371C136.062 87.7062 136.062 88.7428 135.371 88.7428H134.469C133.775 88.7588 133.754 87.7202 134.445 87.7062ZM133.977 83.9788C132.678 83.9788 131.613 85.0408 131.613 86.3403L131.619 108.666C131.619 109.965 132.681 111.027 133.983 111.027H138.956C140.257 111.027 141.32 109.965 141.32 108.666L141.317 86.3403C141.317 85.0408 140.257 83.9788 138.956 83.9788H133.977Z" fill="white"/>
<path d="M136.467 96.7618C135.491 96.7618 134.711 97.543 134.711 98.5203C134.711 99.4975 135.491 100.277 136.467 100.277C137.445 100.277 138.224 99.497 138.224 98.5203C138.224 97.5435 137.445 96.7618 136.467 96.7618Z" fill="white"/>
<path d="M116.001 94.5034C116.038 94.5034 116.074 94.5094 116.111 94.5169C116.358 94.5598 116.54 94.7763 116.54 95.0282L117.822 98.4862L119.174 94.8491C119.244 94.6516 119.426 94.5139 119.636 94.5034C120.013 94.4829 120.284 94.8571 120.148 95.2108L118.33 100.102C118.277 100.321 118.088 100.482 117.864 100.498C117.606 100.518 117.375 100.349 117.316 100.1L115.624 95.546H114.029V99.9753C114.003 100.641 113.019 100.641 112.993 99.9753V95.546H111.036C110.376 95.548 110.326 94.5737 110.984 94.5094C111.002 94.5094 111.02 94.5094 111.036 94.5094H115.889C115.907 94.5054 115.925 94.5034 115.946 94.5034C115.964 94.5014 115.982 94.5014 116 94.5014V94.5034H116.001ZM104.409 84.0071C103.029 84.0071 101.855 85.0387 101.855 86.3662V103.579C101.879 103.642 101.891 103.706 101.888 103.772C101.888 104.481 102.533 105.091 103.411 105.091H127.283C128.161 105.091 128.806 104.481 128.806 103.772C128.8 103.697 128.814 103.618 128.842 103.549L128.837 86.3667C128.837 85.0397 127.663 84.0076 126.283 84.0076L104.409 84.0071Z" fill="white"/>
<path d="M123.315 107.411C123.606 107.406 123.846 107.645 123.84 107.936V108.926C123.84 109.617 122.804 109.617 122.801 108.926V107.936C122.798 107.651 123.027 107.414 123.315 107.411ZM121.062 107.411C121.356 107.406 121.595 107.645 121.59 107.936V108.926C121.59 109.617 120.553 109.617 120.553 108.926V107.936C120.548 107.651 120.777 107.414 121.062 107.411ZM128.841 105.626C128.405 105.938 127.865 106.128 127.283 106.128H103.411C102.829 106.128 102.294 105.938 101.857 105.629V108.639C101.857 109.965 103.032 110.997 104.411 110.997H126.286C127.668 110.997 128.842 109.966 128.842 108.639L128.841 105.626Z" fill="white"/>
<path fill-rule="evenodd" clip-rule="evenodd" d="M87.6278 104.744C88.7503 105.265 89.7969 105.935 90.739 106.738C88.9341 108.672 86.6076 110.043 84.0406 110.684C85.0356 109.822 85.8526 108.773 86.4458 107.598C86.9253 106.684 87.3209 105.729 87.6278 104.744ZM75.0373 107.597C74.5577 106.684 74.1621 105.729 73.8553 104.744C72.7329 105.264 71.6864 105.935 70.7447 106.738C72.549 108.672 74.8751 110.043 77.4419 110.684C76.4472 109.821 75.6304 108.773 75.0373 107.597ZM75.0373 87.1948C75.6304 86.0195 76.4472 84.9713 77.4419 84.109C74.8752 84.7498 72.5491 86.1203 70.7447 88.0549C71.6864 88.8574 72.7329 89.5283 73.8553 90.049C74.1624 89.0639 74.558 88.1086 75.0373 87.1948ZM86.4458 87.1948C86.9254 88.1084 87.321 89.0636 87.6278 90.0487C88.7504 89.5282 89.7971 88.8574 90.739 88.0549C88.9342 86.1205 86.608 84.75 84.0412 84.109C85.0359 84.9715 85.8527 86.0194 86.4458 87.1948ZM88.6928 96.9458H94.4219C94.3267 93.9355 93.2369 91.0417 91.3227 88.7165C90.2823 89.6037 89.1221 90.3399 87.8763 90.9034C88.3944 92.8767 88.6687 94.9057 88.6928 96.9458ZM88.6928 97.8287C88.67 99.8743 88.3956 101.909 87.8759 103.888C89.1215 104.452 90.2816 105.188 91.3221 106.075C93.2401 103.746 94.3304 100.845 94.4219 97.8291L88.6928 97.8287ZM87.8092 97.8287H81.1829V102.375C83.1946 102.42 85.1831 102.815 87.0594 103.543C87.5347 101.674 87.7866 99.7565 87.8095 97.8291L87.8092 97.8287ZM81.1829 103.258V111.059C83.5776 110.773 85.6531 108.17 86.8179 104.396C85.021 103.688 83.1135 103.303 81.1829 103.258ZM75.8167 107.183C77.0482 109.498 78.6257 110.854 80.2993 111.059V103.258C78.3717 103.303 76.4672 103.688 74.6728 104.393C74.9668 105.356 75.3497 106.29 75.8167 107.183ZM74.4275 103.541C76.3023 102.815 78.2894 102.42 80.2996 102.375V97.8291H73.6732C73.6957 99.7564 73.9489 101.674 74.4275 103.541ZM72.7899 97.8291H67.0605C67.1526 100.845 68.243 103.746 70.161 106.076C71.2014 105.188 72.3616 104.452 73.6075 103.889C73.0874 101.91 72.8128 99.8748 72.7899 97.8291ZM73.6068 90.9044C72.3613 90.3406 71.2014 89.6044 70.161 88.7174C68.2471 91.0427 67.1572 93.9365 67.0618 96.9467H72.7906C72.8146 94.9068 73.0888 92.8775 73.6068 90.9044ZM73.6735 96.9461H80.2996V92.4181C78.288 92.3728 76.2996 91.9775 74.4237 91.2497C73.9495 93.1122 73.6977 95.0243 73.6735 96.9461ZM74.6649 90.3973C76.4617 91.1046 78.3691 91.4897 80.2996 91.5351V83.7337C77.9048 84.0213 75.8294 86.6251 74.6649 90.3973ZM81.1829 83.7337V91.5351C83.1135 91.4897 85.021 91.1044 86.8179 90.3969C85.6531 86.6232 83.5776 84.0197 81.1829 83.7337ZM87.0594 91.2497C85.1833 91.9778 83.1947 92.3732 81.1829 92.4181V96.9461H87.8092C87.7853 95.0243 87.5336 93.1122 87.0594 91.2497Z" fill="white"/>
</g>
<defs>
<linearGradient id="paint0_linear_1127_3632" x1="-53.114" y1="208.934" x2="245.766" y2="173.513" gradientUnits="userSpaceOnUse">
<stop stop-color="#284FDC"/>
<stop offset="1" stop-color="#578FEC"/>
</linearGradient>
<clipPath id="clip0_1127_3632">
<rect width="210" height="210" fill="white"/>
</clipPath>
</defs>
</svg>
