<svg width="118" height="102" viewBox="0 0 118 102" fill="none" xmlns="http://www.w3.org/2000/svg">
<path fill-rule="evenodd" clip-rule="evenodd" d="M114.757 18.8792C114.757 11.0056 108.367 4.61539 100.494 4.61539L17.5041 4.61539C9.63043 4.61539 3.24023 11.0056 3.24023 18.8792L3.24023 74.2758C3.24023 82.1495 9.63043 88.5397 17.5041 88.5397L100.494 88.5397C108.367 88.5397 114.758 82.1495 114.758 74.2758L114.757 18.8792ZM106.977 18.8792L106.977 74.2758C106.977 77.8548 104.073 80.7594 100.494 80.7594L17.5041 80.7594C13.9251 80.7594 11.0205 77.8548 11.0205 74.2758L11.0205 18.8792C11.0205 15.3003 13.9251 12.3957 17.5041 12.3957L100.494 12.3957C104.073 12.3957 106.977 15.3003 106.977 18.8792Z" fill="white"/>
<rect x="34.3789" y="93.8275" width="45.6207" height="7.96552" rx="3.98276" fill="white"/>
<path d="M86.5561 52.7338H94.3766V53.7744H86.5561V52.7338ZM90.4661 44.7267C92.0046 44.7267 93.2617 45.9843 93.2617 47.5203C93.2617 49.0587 92.0041 50.3109 90.4661 50.3109C88.9311 50.3109 87.6705 49.0587 87.6705 47.5203C87.671 45.9848 88.9311 44.7267 90.4661 44.7267ZM91.5471 41.2642C91.5526 41.2642 91.5601 41.2642 91.5681 41.2642H92.467C93.1584 41.2662 93.1584 42.3028 92.467 42.3028H91.5681C90.8747 42.3183 90.8537 41.2797 91.5471 41.2642ZM88.4453 41.2642C88.4532 41.2642 88.4607 41.2642 88.4687 41.2642H89.3706C90.0615 41.2662 90.0615 42.3028 89.3706 42.3028H88.4687C87.7748 42.3183 87.7543 41.2797 88.4453 41.2642ZM91.5471 38.9845C91.5526 38.9845 91.5601 38.9845 91.5681 38.9845H92.467C93.1554 38.9874 93.1554 40.0221 92.467 40.0221H91.5681C90.8772 40.0345 90.8562 39.0009 91.5471 38.9845ZM88.4453 38.9845C88.4532 38.9845 88.4607 38.9845 88.4687 38.9845H89.3706C90.0615 38.9874 90.0615 40.0221 89.3706 40.0221H88.4687C87.7778 40.0345 87.7568 39.0009 88.4453 38.9845ZM91.5471 36.7062C91.5526 36.7062 91.5601 36.7062 91.5681 36.7062H92.467C93.1584 36.7062 93.1584 37.7428 92.467 37.7428H91.5681C90.8747 37.7588 90.8537 36.7202 91.5471 36.7062ZM88.4453 36.7062C88.4532 36.7062 88.4607 36.7062 88.4687 36.7062H89.3706C90.0615 36.7062 90.0615 37.7428 89.3706 37.7428H88.4687C87.7748 37.7588 87.7543 36.7202 88.4453 36.7062ZM87.9773 32.9788C86.6783 32.9788 85.6133 34.0408 85.6133 35.3403L85.6188 57.6659C85.6188 58.9654 86.6813 60.0275 87.9828 60.0275H92.9559C94.2574 60.0275 95.3199 58.9654 95.3199 57.6659L95.3174 35.3403C95.3174 34.0408 94.2574 32.9788 92.9559 32.9788H87.9773Z" fill="white"/>
<path d="M90.4674 45.7618C89.4906 45.7618 88.7109 46.543 88.7109 47.5203C88.7109 48.4975 89.4906 49.2767 90.4674 49.2767C91.4446 49.2767 92.2238 48.497 92.2238 47.5203C92.2238 46.5435 91.4446 45.7618 90.4674 45.7618Z" fill="white"/>
<path d="M70.0014 43.5034C70.0383 43.5034 70.0742 43.5094 70.1106 43.5169C70.3581 43.5598 70.5401 43.7763 70.5401 44.0282L71.8222 47.4862L73.1741 43.8491C73.2439 43.6516 73.426 43.5139 73.6365 43.5034C74.0126 43.4829 74.2835 43.8571 74.1478 44.2108L72.3295 49.102C72.2771 49.321 72.0881 49.4821 71.8636 49.4976C71.6062 49.518 71.3752 49.3494 71.3158 49.1L69.6242 44.546H68.0289V48.9753C68.003 49.6408 67.0187 49.6408 66.9928 48.9753V44.546H65.0358C64.3758 44.548 64.3265 43.5737 64.9839 43.5094C65.0019 43.5094 65.0204 43.5094 65.0358 43.5094H69.8891C69.9066 43.5054 69.925 43.5034 69.9455 43.5034C69.964 43.5014 69.9824 43.5014 69.9999 43.5014V43.5034H70.0014ZM58.4086 33.0071C57.0293 33.0071 55.8555 34.0387 55.8555 35.3662V52.5795C55.8789 52.6418 55.8914 52.7062 55.8884 52.7715C55.8884 53.4809 56.5329 54.091 57.4114 54.091H81.2834C82.1614 54.091 82.8059 53.4809 82.8059 52.7715C82.8004 52.6967 82.8139 52.6184 82.8418 52.5486L82.8368 35.3667C82.8368 34.0397 81.6625 33.0076 80.2827 33.0076L58.4086 33.0071Z" fill="white"/>
<path d="M77.3155 56.4108C77.6063 56.4058 77.8458 56.6447 77.8403 56.9361V57.9258C77.8403 58.6167 76.8037 58.6167 76.8012 57.9258V56.9361C76.7982 56.6507 77.0271 56.4138 77.3155 56.4108ZM75.0622 56.4108C75.356 56.4058 75.5949 56.6447 75.59 56.9361V57.9258C75.59 58.6167 74.5533 58.6167 74.5533 57.9258V56.9361C74.5484 56.6507 74.7768 56.4138 75.0622 56.4108ZM82.8412 54.6259C82.4053 54.9377 81.8645 55.1277 81.2828 55.1277H57.4113C56.8292 55.1277 56.2944 54.9377 55.8574 54.6289V57.6395C55.8574 58.9654 57.0322 59.9965 58.411 59.9965H80.2856C81.668 59.9965 82.8417 58.9659 82.8417 57.6395L82.8412 54.6259Z" fill="white"/>
<path fill-rule="evenodd" clip-rule="evenodd" d="M41.6278 53.7439C42.7503 54.2647 43.7969 54.9354 44.739 55.7377C42.9341 57.6723 40.6076 59.0429 38.0406 59.6839C39.0356 58.8216 39.8526 57.7733 40.4458 56.5978C40.9253 55.6842 41.3209 54.729 41.6278 53.7439ZM29.0373 56.5975C28.5577 55.6839 28.1621 54.7287 27.8553 53.7436C26.7329 54.2643 25.6864 54.9351 24.7447 55.7377C26.549 57.6724 28.8751 59.043 31.4419 59.6836C30.4472 58.8212 29.6304 57.7729 29.0373 56.5975ZM29.0373 36.1948C29.6304 35.0195 30.4472 33.9713 31.4419 33.109C28.8752 33.7498 26.5491 35.1203 24.7447 37.0549C25.6864 37.8574 26.7329 38.5283 27.8553 39.049C28.1624 38.0639 28.558 37.1086 29.0373 36.1948ZM40.4458 36.1948C40.9254 37.1084 41.321 38.0636 41.6278 39.0487C42.7504 38.5282 43.7971 37.8574 44.739 37.0549C42.9342 35.1205 40.608 33.75 38.0412 33.109C39.0359 33.9715 39.8527 35.0194 40.4458 36.1948ZM42.6928 45.9458H48.4219C48.3267 42.9355 47.2369 40.0417 45.3227 37.7165C44.2823 38.6037 43.1221 39.3399 41.8763 39.9034C42.3944 41.8767 42.6687 43.9057 42.6928 45.9458ZM42.6928 46.8287C42.67 48.8743 42.3956 50.9093 41.8759 52.8879C43.1215 53.4518 44.2816 54.1881 45.3221 55.0752C47.2401 52.7457 48.3304 49.8452 48.4219 46.8291L42.6928 46.8287ZM41.8092 46.8287H35.1829V51.3749C37.1946 51.4202 39.1831 51.8153 41.0594 52.5426C41.5347 50.6745 41.7866 48.7565 41.8095 46.8291L41.8092 46.8287ZM35.1829 52.2579V60.0589C37.5776 59.7729 39.6531 57.1697 40.8179 53.396C39.021 52.6884 37.1135 52.3031 35.1829 52.2579ZM29.8167 56.1825C31.0482 58.4982 32.6257 59.8536 34.2993 60.0589V52.2579C32.3717 52.3034 30.4672 52.6877 28.6728 53.3931C28.9668 54.3564 29.3497 55.2902 29.8167 56.1825ZM28.4275 52.5413C30.3023 51.8146 32.2894 51.42 34.2996 51.3749V46.8291H27.6732C27.6957 48.7564 27.9489 50.6742 28.4275 52.5413ZM26.7899 46.8291H21.0605C21.1526 49.8453 22.243 52.7458 24.161 55.0755C25.2014 54.1883 26.3616 53.4521 27.6075 52.8886C27.0874 50.9099 26.8128 48.8748 26.7899 46.8291ZM27.6068 39.9044C26.3613 39.3406 25.2014 38.6044 24.161 37.7174C22.2471 40.0427 21.1572 42.9365 21.0618 45.9467H26.7906C26.8146 43.9068 27.0888 41.8775 27.6068 39.9044ZM27.6735 45.9461H34.2996V41.4181C32.288 41.3728 30.2996 40.9775 28.4237 40.2497C27.9495 42.1122 27.6977 44.0243 27.6735 45.9461ZM28.6649 39.3973C30.4617 40.1046 32.3691 40.4897 34.2996 40.5351V32.7337C31.9048 33.0213 29.8294 35.6251 28.6649 39.3973ZM35.1829 32.7337V40.5351C37.1135 40.4897 39.021 40.1044 40.8179 39.3969C39.6531 35.6232 37.5776 33.0197 35.1829 32.7337ZM41.0594 40.2497C39.1833 40.9778 37.1947 41.3732 35.1829 41.4181V45.9461H41.8092C41.7853 44.0243 41.5336 42.1122 41.0594 40.2497Z" fill="white"/>
</svg>
