<svg width="107" height="107" viewBox="0 0 107 107" fill="none" xmlns="http://www.w3.org/2000/svg">
<g clip-path="url(#clip0_1127_3997)">
<path fill-rule="evenodd" clip-rule="evenodd" d="M-18.1963 13.2311C-18.1963 4.89609 -14.8964 -3.09774 -8.99252 -8.99041C-3.08864 -14.8853 4.90295 -18.1964 13.2313 -18.1964H94.0451C102.373 -18.1964 110.365 -14.8853 116.269 -8.99041C122.15 -3.09774 125.473 4.89609 125.473 13.2311V94.0449C125.473 102.38 122.15 110.374 116.269 116.266C110.365 122.161 102.373 125.473 94.0451 125.473H13.2313C4.90295 125.473 -3.08864 122.161 -8.99252 116.266C-14.8964 110.374 -18.1963 102.38 -18.1963 94.0449V13.2311ZM-9.21701 13.2311V94.0449C-9.21701 99.9982 -6.85994 105.709 -2.63966 109.918C1.55817 114.127 7.28248 116.493 13.2313 116.493H94.0451C99.9939 116.493 105.718 114.127 109.916 109.918C114.136 105.709 116.493 99.9982 116.493 94.0449V13.2311C116.493 7.27786 114.136 1.56701 109.916 -2.64204C105.718 -6.85109 99.9939 -9.21714 94.0451 -9.21714H13.2313C7.28248 -9.21714 1.55817 -6.85109 -2.63966 -2.64204C-6.85994 1.56701 -9.21701 7.27786 -9.21701 13.2311ZM77.568 10.4363C84.3025 6.45625 89.9819 4.37305 93.7532 4.25856C96.7613 4.16652 99.0286 5.11384 100.6 6.68073C101.947 8.03436 102.822 9.88635 103.002 12.2793C103.159 14.5197 102.62 17.4671 101.251 20.9354C100.241 23.5057 98.7592 26.4532 96.8287 29.688C100.78 36.7861 103.024 44.9506 103.024 53.638C103.024 80.8947 80.8904 103.024 53.6382 103.024C44.9507 103.024 36.7795 100.777 29.6859 96.8308C26.4533 98.7568 23.5126 100.25 20.931 101.26C17.474 102.62 14.5108 103.152 12.2884 102.995C9.88648 102.827 8.02327 101.949 6.67638 100.595C5.105 99.0127 4.13972 96.714 4.25196 93.6521C4.4091 89.883 6.49679 84.2575 10.4252 77.5701C6.49679 70.481 4.25196 62.3188 4.25196 53.638C4.25196 26.3813 26.386 4.25183 53.6382 4.25183C62.3257 4.25183 70.4744 6.49441 77.568 10.4363ZM91.0819 38.4204C92.99 43.1188 94.0451 48.2572 94.0451 53.638C94.0451 75.9382 75.9293 94.0449 53.6382 94.0449C48.2506 94.0449 43.1099 92.9899 38.4182 91.0773C47.0608 84.8905 56.8932 76.5375 66.7255 66.7164C76.5354 56.8953 84.8862 47.0674 91.0819 38.4204ZM16.1495 85.7638C17.7883 87.6898 19.5841 89.4857 21.5147 91.1401C20.1453 91.8383 18.8658 92.4287 17.6536 92.9001C16.2393 93.4546 14.9822 93.8362 13.9047 93.9866C13.7251 94.009 13.5006 94.018 13.2986 94.018C13.366 93.3827 13.4782 92.3456 13.7027 91.5218C14.219 89.8269 15.0496 87.8941 16.1495 85.7638ZM29.7532 86.224C19.7413 78.8699 13.2313 67.0082 13.2313 53.638C13.2313 31.3379 31.347 13.2311 53.6382 13.2311C67.0173 13.2311 78.87 19.7389 86.2331 29.7553C80.2169 38.7459 71.2152 49.5278 60.3727 60.3658C49.5301 71.2061 38.755 80.219 29.7532 86.224ZM85.7617 16.1404C87.9391 15.0158 89.9146 14.1807 91.6431 13.6801C92.4288 13.4511 93.3941 13.3479 94.0226 13.303C94.0226 13.5028 94.0002 13.716 93.9777 13.8934C93.843 14.9843 93.4614 16.2437 92.9002 17.6535C92.4288 18.8589 91.8451 20.1497 91.1492 21.5168C89.4881 19.5907 87.6922 17.7926 85.7617 16.1404Z" fill="white"/>
</g>
<defs>
<clipPath id="clip0_1127_3997">
<rect width="107" height="107" fill="white"/>
</clipPath>
</defs>
</svg>
