<svg width="210" height="210" viewBox="0 0 210 210" fill="none" xmlns="http://www.w3.org/2000/svg">
<rect width="210" height="210" rx="105" fill="url(#paint0_linear_1130_6378)"/>
<g clip-path="url(#clip0_1130_6378)">
<path fill-rule="evenodd" clip-rule="evenodd" d="M32.8037 64.2311C32.8037 55.8961 36.1036 47.9023 42.0075 42.0096C47.9114 36.1147 55.903 32.8036 64.2313 32.8036H145.045C153.373 32.8036 161.365 36.1147 167.269 42.0096C173.15 47.9023 176.473 55.8961 176.473 64.2311V145.045C176.473 153.38 173.15 161.374 167.269 167.266C161.365 173.161 153.373 176.473 145.045 176.473H64.2313C55.903 176.473 47.9114 173.161 42.0075 167.266C36.1036 161.374 32.8037 153.38 32.8037 145.045V64.2311ZM41.783 64.2311V145.045C41.783 150.998 44.1401 156.709 48.3603 160.918C52.5582 165.127 58.2825 167.493 64.2313 167.493H145.045C150.994 167.493 156.718 165.127 160.916 160.918C165.136 156.709 167.493 150.998 167.493 145.045V64.2311C167.493 58.2779 165.136 52.567 160.916 48.358C156.718 44.1489 150.994 41.7829 145.045 41.7829H64.2313C58.2825 41.7829 52.5582 44.1489 48.3603 48.358C44.1401 52.567 41.783 58.2779 41.783 64.2311ZM128.568 61.4363C135.303 57.4562 140.982 55.373 144.753 55.2586C147.761 55.1665 150.029 56.1138 151.6 57.6807C152.947 59.0344 153.822 60.8863 154.002 63.2793C154.159 65.5197 153.62 68.4671 152.251 71.9354C151.241 74.5057 149.759 77.4532 147.829 80.688C151.78 87.7861 154.024 95.9506 154.024 104.638C154.024 131.895 131.89 154.024 104.638 154.024C95.9507 154.024 87.7795 151.777 80.6859 147.831C77.4533 149.757 74.5126 151.25 71.931 152.26C68.474 153.62 65.5108 154.152 63.2884 153.995C60.8865 153.827 59.0233 152.949 57.6764 151.595C56.105 150.013 55.1397 147.714 55.252 144.652C55.4091 140.883 57.4968 135.257 61.4252 128.57C57.4968 121.481 55.252 113.319 55.252 104.638C55.252 77.3813 77.386 55.2518 104.638 55.2518C113.326 55.2518 121.474 57.4944 128.568 61.4363ZM142.082 89.4204C143.99 94.1188 145.045 99.2572 145.045 104.638C145.045 126.938 126.929 145.045 104.638 145.045C99.2506 145.045 94.1099 143.99 89.4182 142.077C98.0608 135.891 107.893 127.538 117.726 117.716C127.535 107.895 135.886 98.0674 142.082 89.4204ZM67.1495 136.764C68.7883 138.69 70.5841 140.486 72.5147 142.14C71.1453 142.838 69.8658 143.429 68.6536 143.9C67.2393 144.455 65.9822 144.836 64.9047 144.987C64.7251 145.009 64.5006 145.018 64.2986 145.018C64.366 144.383 64.4782 143.346 64.7027 142.522C65.219 140.827 66.0496 138.894 67.1495 136.764ZM80.7532 137.224C70.7413 129.87 64.2313 118.008 64.2313 104.638C64.2313 82.3379 82.347 64.2311 104.638 64.2311C118.017 64.2311 129.87 70.7389 137.233 80.7553C131.217 89.7459 122.215 100.528 111.373 111.366C100.53 122.206 89.755 131.219 80.7532 137.224ZM136.762 67.1404C138.939 66.0158 140.915 65.1807 142.643 64.6801C143.429 64.4511 144.394 64.3479 145.023 64.303C145.023 64.5028 145 64.716 144.978 64.8934C144.843 65.9843 144.461 67.2437 143.9 68.6535C143.429 69.8589 142.845 71.1497 142.149 72.5168C140.488 70.5907 138.692 68.7926 136.762 67.1404Z" fill="white"/>
</g>
<defs>
<linearGradient id="paint0_linear_1130_6378" x1="-53.114" y1="208.934" x2="245.766" y2="173.513" gradientUnits="userSpaceOnUse">
<stop stop-color="#284FDC"/>
<stop offset="1" stop-color="#578FEC"/>
</linearGradient>
<clipPath id="clip0_1130_6378">
<rect width="107" height="107" fill="white" transform="translate(51 51)"/>
</clipPath>
</defs>
</svg>
