<svg width="130" height="100" viewBox="0 0 130 100" fill="none" xmlns="http://www.w3.org/2000/svg">
<rect x="53.3555" y="85.5119" width="40.7218" height="7.11016" rx="3.55508" fill="white"/>
<rect x="31.3789" y="12.4712" width="88.5538" height="62.6987" fill="url(#paint0_linear_1130_6191)"/>
<path fill-rule="evenodd" clip-rule="evenodd" d="M125.103 18.6118C125.103 11.5837 119.399 5.87967 112.371 5.87967L38.2927 5.87968C31.2645 5.87968 25.5605 11.5837 25.5605 18.6118L25.5605 68.0598C25.5605 75.0879 31.2645 80.7919 38.2927 80.7919L112.371 80.7919C119.399 80.7919 125.103 75.0879 125.103 68.0598L125.103 18.6118ZM118.158 18.6118L118.158 68.0598C118.158 71.2544 115.565 73.8471 112.371 73.8471L38.2927 73.8471C35.0981 73.8471 32.5054 71.2544 32.5054 68.0598L32.5054 18.6118C32.5054 15.4172 35.0981 12.8245 38.2927 12.8245L112.371 12.8245C115.565 12.8245 118.158 15.4172 118.158 18.6118Z" fill="white"/>
<path fill-rule="evenodd" clip-rule="evenodd" d="M43.5455 28.9484C44.4951 29.4898 45.3413 30.2592 46.0024 31.2362C46.6636 32.2131 47.0633 33.2847 47.2129 34.3675C47.3695 35.5178 48.4044 36.3757 49.5229 36.2811C50.6377 36.1857 51.4164 35.1748 51.2598 34.0245C51.0203 32.2851 50.3785 30.5606 49.3174 28.9927C48.2564 27.4249 46.8941 26.1879 45.3683 25.319C44.3587 24.746 43.1291 25.0908 42.6278 26.0925C42.1248 27.0919 42.5342 28.3731 43.5455 28.9484Z" fill="white"/>
<path fill-rule="evenodd" clip-rule="evenodd" d="M47.2725 21.9067C49.2532 23.0315 50.9981 24.6343 52.335 26.6705C53.672 28.7067 54.4492 30.9449 54.6939 33.2094C54.8338 34.4938 55.9779 35.4496 57.2479 35.3414C58.5162 35.2306 59.4353 34.0969 59.298 32.8109C58.9743 29.8123 57.9453 26.8445 56.1754 24.1489C54.4037 21.4507 52.0912 19.3294 49.4684 17.8404C48.3429 17.2033 46.9381 17.5917 46.3315 18.7157C45.7257 19.8354 46.1479 21.2653 47.2725 21.9067Z" fill="white"/>
<rect x="7.19141" y="32.9884" width="32.1104" height="55.4634" fill="url(#paint1_linear_1130_6191)"/>
<path d="M25.6615 83.103C25.6615 84.3281 24.6672 85.3224 23.4421 85.3224C22.217 85.3224 21.2227 84.3281 21.2227 83.103C21.2227 81.8779 22.217 80.8836 23.4421 80.8836C24.6672 80.8836 25.6615 81.8779 25.6615 83.103Z" fill="white"/>
<path fill-rule="evenodd" clip-rule="evenodd" d="M33.4713 92.7205C38.9607 92.7205 43.4143 88.2669 43.4143 82.7775V39.0403C43.4143 33.5509 38.9607 29.0973 33.4713 29.0973H13.4108C7.91847 29.0973 3.46484 33.5509 3.46484 39.0403V82.7775C3.46484 88.2669 7.91847 92.7205 13.4108 92.7205H33.4713ZM33.4713 88.2817H13.4108C10.3687 88.2817 7.90367 85.8166 7.90367 82.7775V39.0403C7.90367 36.0012 10.3687 33.5361 13.4108 33.5361H33.4713C36.5104 33.5361 38.9755 36.0012 38.9755 39.0403V82.7775C38.9755 85.8166 36.5104 88.2817 33.4713 88.2817Z" fill="white"/>
<path fill-rule="evenodd" clip-rule="evenodd" d="M20.4792 40.9342H26.3976C27.6227 40.9342 28.617 39.9399 28.617 38.7147C28.617 37.4896 27.6227 36.4953 26.3976 36.4953H20.4792C19.2541 36.4953 18.2598 37.4896 18.2598 38.7147C18.2598 39.9399 19.2541 40.9342 20.4792 40.9342Z" fill="white"/>
<defs>
<linearGradient id="paint0_linear_1130_6191" x1="8.98153" y1="74.8516" x2="133.302" y2="54.0425" gradientUnits="userSpaceOnUse">
<stop stop-color="#284FDC"/>
<stop offset="1" stop-color="#578FEC"/>
</linearGradient>
<linearGradient id="paint1_linear_1130_6191" x1="-0.930083" y1="88.1702" x2="45.1954" y2="85.0055" gradientUnits="userSpaceOnUse">
<stop stop-color="#284FDC"/>
<stop offset="1" stop-color="#578FEC"/>
</linearGradient>
</defs>
</svg>
