<svg width="151" height="100" viewBox="0 0 151 100" fill="none" xmlns="http://www.w3.org/2000/svg">
<path d="M76.234 69.5543C77.9297 69.5543 79.3058 70.9305 79.3058 72.6261C79.3058 74.3218 77.9297 75.698 76.234 75.698C74.5383 75.698 73.1621 74.3218 73.1621 72.6261C73.1621 70.9305 74.5383 69.5543 76.234 69.5543Z" fill="white"/>
<path d="M63.9449 69.5543C65.6406 69.5543 67.0168 70.9305 67.0168 72.6261C67.0168 74.3218 65.6406 75.698 63.9449 75.698C62.2492 75.698 60.873 74.3218 60.873 72.6261C60.873 70.9305 62.2492 69.5543 63.9449 69.5543Z" fill="white"/>
<path fill-rule="evenodd" clip-rule="evenodd" d="M83.4022 90.0331C89.6197 90.0331 94.6657 84.9871 94.6657 78.7696V66.4821C94.6657 60.2647 89.6197 55.2186 83.4022 55.2186H17.869C11.6515 55.2186 6.60547 60.2647 6.60547 66.4821V78.7696C6.60547 84.9871 11.6515 90.0331 17.869 90.0331H83.4022ZM83.4022 83.8894H17.869C15.0429 83.8894 12.7492 81.5957 12.7492 78.7696V66.4821C12.7492 63.656 15.0429 61.3623 17.869 61.3623H83.4022C86.2283 61.3623 88.522 63.656 88.522 66.4821V78.7696C88.522 81.5957 86.2283 83.8894 83.4022 83.8894Z" fill="white"/>
<path fill-rule="evenodd" clip-rule="evenodd" d="M86.4738 91.0574V86.9615C86.4738 85.2659 85.0976 83.8897 83.4019 83.8897C81.7063 83.8897 80.3301 85.2659 80.3301 86.9615V91.0574C80.3301 92.753 81.7063 94.1292 83.4019 94.1292C85.0976 94.1292 86.4738 92.753 86.4738 91.0574Z" fill="white"/>
<path fill-rule="evenodd" clip-rule="evenodd" d="M20.9387 91.0574V86.9615C20.9387 85.2659 19.5625 83.8897 17.8668 83.8897C16.1711 83.8897 14.7949 85.2659 14.7949 86.9615V91.0574C14.7949 92.753 16.1711 94.1292 17.8668 94.1292C19.5625 94.1292 20.9387 92.753 20.9387 91.0574Z" fill="white"/>
<path fill-rule="evenodd" clip-rule="evenodd" d="M34.25 69.5543H21.9625C20.2668 69.5543 18.8906 70.9305 18.8906 72.6261C18.8906 74.3218 20.2668 75.698 21.9625 75.698H34.25C35.9456 75.698 37.3218 74.3218 37.3218 72.6261C37.3218 70.9305 35.9456 69.5543 34.25 69.5543Z" fill="white"/>
<path fill-rule="evenodd" clip-rule="evenodd" d="M88.741 16.1892L72.3577 57.1475C71.7269 58.7244 72.4929 60.5143 74.0656 61.1409C75.6425 61.7717 77.4324 61.0058 78.0591 59.433L94.4424 18.4747C95.0731 16.8978 94.3072 15.1079 92.7344 14.4813C91.1575 13.8505 89.3677 14.6164 88.741 16.1892Z" fill="white"/>
<path fill-rule="evenodd" clip-rule="evenodd" d="M6.82644 18.4747L23.2097 59.433C23.8364 61.0058 25.6263 61.7717 27.2032 61.1409C28.776 60.5143 29.5419 58.7244 28.9111 57.1475L12.5278 16.1892C11.9012 14.6164 10.1113 13.8505 8.5344 14.4813C6.9616 15.1079 6.19568 16.8978 6.82644 18.4747Z" fill="white"/>
<path fill-rule="evenodd" clip-rule="evenodd" d="M33.7525 16.3534C38.815 13.6953 44.5491 12.2126 50.6314 12.2126C56.7137 12.2126 62.452 13.6953 67.5062 16.3534C69.0094 17.1439 70.8689 16.5664 71.6553 15.0633C72.4458 13.5642 71.8683 11.7047 70.3651 10.9142C64.4548 7.80546 57.7418 6.06882 50.6314 6.06882C43.5211 6.06882 36.8121 7.80546 30.8936 10.9142C29.3946 11.7047 28.817 13.5642 29.6034 15.0633C30.3939 16.5623 32.2534 17.1439 33.7525 16.3534Z" fill="white"/>
<path fill-rule="evenodd" clip-rule="evenodd" d="M41.8246 26.9129C44.4664 25.5244 47.4605 24.7503 50.6348 24.7503C53.809 24.7503 56.8031 25.5244 59.4449 26.9129C60.9439 27.6993 62.8035 27.1218 63.5939 25.6227C64.3803 24.1236 63.8028 22.2641 62.3038 21.4736C58.8059 19.6346 54.8371 18.6066 50.6348 18.6066C46.4283 18.6066 42.4636 19.6346 38.9657 21.4736C37.4667 22.2641 36.8851 24.1195 37.6756 25.6227C38.462 27.1218 40.3215 27.6993 41.8246 26.9129Z" fill="white"/>
<path fill-rule="evenodd" clip-rule="evenodd" d="M45.9223 38.2007C47.3353 37.4593 48.9368 37.0457 50.6366 37.0457C52.3364 37.0457 53.9378 37.4593 55.3509 38.2007C56.85 38.9912 58.7095 38.4137 59.5 36.9105C60.2864 35.4114 59.7088 33.5519 58.2098 32.7614C55.9407 31.5695 53.3644 30.9019 50.6366 30.9019C47.9088 30.9019 45.3325 31.5695 43.0634 32.7614C41.5643 33.5519 40.9827 35.4114 41.7732 36.9105C42.5596 38.4096 44.4191 38.9912 45.9223 38.2007Z" fill="white"/>
<path d="M126.775 81.9512C126.775 83.2809 125.696 84.3601 124.366 84.3601C123.036 84.3601 121.957 83.2809 121.957 81.9512C121.957 80.6216 123.036 79.5424 124.366 79.5424C125.696 79.5424 126.775 80.6216 126.775 81.9512Z" fill="white"/>
<path fill-rule="evenodd" clip-rule="evenodd" d="M135.253 92.3897C141.211 92.3897 146.044 87.556 146.044 81.5982V34.1284C146.044 28.1706 141.211 23.3369 135.253 23.3369H113.48C107.519 23.3369 102.686 28.1706 102.686 34.1284V81.5982C102.686 87.556 107.519 92.3897 113.48 92.3897H135.253ZM135.253 87.572H113.48C110.179 87.572 107.503 84.8966 107.503 81.5982V34.1284C107.503 30.8299 110.179 28.1545 113.48 28.1545H135.253C138.551 28.1545 141.227 30.8299 141.227 34.1284V81.5982C141.227 84.8966 138.551 87.572 135.253 87.572Z" fill="white"/>
<path fill-rule="evenodd" clip-rule="evenodd" d="M121.153 36.1837H127.576C128.906 36.1837 129.985 35.1046 129.985 33.7749C129.985 32.4452 128.906 31.3661 127.576 31.3661H121.153C119.823 31.3661 118.744 32.4452 118.744 33.7749C118.744 35.1046 119.823 36.1837 121.153 36.1837Z" fill="white"/>
</svg>
