<svg width="30" height="30" viewBox="0 0 30 30" fill="none" xmlns="http://www.w3.org/2000/svg">
<path d="M6.83984 5.23501C6.83984 4.37173 7.18278 3.54381 7.79321 2.93338C8.40364 2.32295 9.23156 1.98001 10.0948 1.98001L19.8598 1.98001C20.7231 1.98001 21.551 2.32295 22.1615 2.93338C22.7719 3.54381 23.1148 4.37173 23.1148 5.23501V24.765C23.1148 25.6283 22.7719 26.4562 22.1615 27.0666C21.551 27.6771 20.7231 28.02 19.8598 28.02H10.0948C9.23156 28.02 8.40364 27.6771 7.79321 27.0666C7.18278 26.4562 6.83984 25.6283 6.83984 24.765V5.23501ZM16.6048 23.1375C16.6048 22.7059 16.4334 22.2919 16.1282 21.9867C15.8229 21.6815 15.409 21.51 14.9773 21.51C14.5457 21.51 14.1317 21.6815 13.8265 21.9867C13.5213 22.2919 13.3498 22.7059 13.3498 23.1375C13.3498 23.5692 13.5213 23.9831 13.8265 24.2883C14.1317 24.5935 14.5457 24.765 14.9773 24.765C15.409 24.765 15.8229 24.5935 16.1282 24.2883C16.4334 23.9831 16.6048 23.5692 16.6048 23.1375Z" fill="white"/>
</svg>
