<svg width="30" height="30" viewBox="0 0 30 30" fill="none" xmlns="http://www.w3.org/2000/svg">
<path d="M20.419 17.0712C20.5184 16.2737 20.593 15.4762 20.593 14.6545C20.593 13.8328 20.5184 13.0353 20.419 12.2378H24.6198C24.8187 13.0112 24.943 13.8207 24.943 14.6545C24.943 15.4882 24.8187 16.2978 24.6198 17.0712M18.2191 23.7895C18.9648 22.4482 19.5365 20.9982 19.9342 19.4878H23.6007C22.3966 21.5037 20.4862 23.0307 18.2191 23.7895ZM17.9084 17.0712H12.0918C11.9675 16.2737 11.893 15.4762 11.893 14.6545C11.893 13.8328 11.9675 13.0232 12.0918 12.2378H17.9084C18.0202 13.0232 18.1072 13.8328 18.1072 14.6545C18.1072 15.4762 18.0202 16.2737 17.9084 17.0712ZM15.0001 24.2728C13.9685 22.8228 13.1358 21.2157 12.6262 19.4878H17.374C16.8644 21.2157 16.0317 22.8228 15.0001 24.2728ZM10.0287 9.82117H6.39953C7.59099 7.79967 9.50004 6.27017 11.7687 5.5195C11.023 6.86075 10.4637 8.31075 10.0287 9.82117ZM6.39953 19.4878H10.0287C10.4637 20.9982 11.023 22.4482 11.7687 23.7895C9.50452 23.031 7.59801 21.5036 6.39953 19.4878ZM5.38039 17.0712C5.18153 16.2978 5.05725 15.4882 5.05725 14.6545C5.05725 13.8207 5.18153 13.0112 5.38039 12.2378H9.58125C9.48182 13.0353 9.40725 13.8328 9.40725 14.6545C9.40725 15.4762 9.48182 16.2737 9.58125 17.0712M15.0001 5.02408C16.0317 6.47408 16.8644 8.09325 17.374 9.82117H12.6262C13.1358 8.09325 13.9685 6.47408 15.0001 5.02408ZM23.6007 9.82117H19.9342C19.5447 8.32478 18.9687 6.88021 18.2191 5.5195C20.506 6.28075 22.4075 7.81533 23.6007 9.82117ZM15.0001 2.57117C8.1271 2.57117 2.57153 8.00867 2.57153 14.6545C2.57153 17.8592 3.88097 20.9326 6.21178 23.1987C7.36588 24.3207 8.73599 25.2108 10.2439 25.818C11.7518 26.4253 13.368 26.7378 15.0001 26.7378C18.2964 26.7378 21.4576 25.4648 23.7884 23.1987C26.1192 20.9326 27.4287 17.8592 27.4287 14.6545C27.4287 13.0677 27.1072 11.4964 26.4826 10.0304C25.858 8.56439 24.9425 7.23233 23.7884 6.11029C22.6343 4.98825 21.2642 4.0982 19.7563 3.49096C18.2484 2.88371 16.6322 2.57117 15.0001 2.57117Z" fill="white"/>
</svg>
