<svg width="30" height="30" viewBox="0 0 30 30" fill="none" xmlns="http://www.w3.org/2000/svg">
<path d="M3.36157 7.08066C3.36157 6.34867 3.65236 5.64665 4.16996 5.12905C4.68756 4.61145 5.38958 4.32066 6.12157 4.32066H22.6816C23.4136 4.32066 24.1156 4.61145 24.6332 5.12905C25.1508 5.64665 25.4416 6.34867 25.4416 7.08066V8.8305C25.022 8.58824 24.5461 8.46068 24.0616 8.46066H21.3016C20.5696 8.46066 19.8676 8.75145 19.35 9.26905C18.8324 9.78665 18.5416 10.4887 18.5416 11.2207V12.9705C18.122 13.2127 17.7736 13.5611 17.5314 13.9807C17.2891 14.4003 17.1616 14.8762 17.1616 15.3607V18.3677C17.1615 18.7583 17.2442 19.1444 17.4045 19.5007H6.12157C5.38958 19.5007 4.68756 19.2099 4.16996 18.6923C3.65236 18.1747 3.36157 17.4727 3.36157 16.7407V7.08066ZM24.0616 9.84066C24.4276 9.84066 24.7786 9.98606 25.0374 10.2449C25.2962 10.5037 25.4416 10.8547 25.4416 11.2207V13.9807C25.8076 13.9807 26.1586 14.1261 26.4174 14.3849C26.6762 14.6437 26.8216 14.9947 26.8216 15.3607V18.4049C26.8216 18.6965 26.7294 18.9805 26.558 19.2164L24.7516 21.7004V23.6407C24.7516 24.0067 24.6062 24.3577 24.3474 24.6165C24.0886 24.8753 23.7376 25.0207 23.3716 25.0207H21.9916C21.6256 25.0207 21.2746 24.8753 21.0158 24.6165C20.757 24.3577 20.6116 24.0067 20.6116 23.6407V21.7004L18.7996 19.1708C18.6322 18.937 18.5419 18.6567 18.5416 18.3691V15.3607C18.5416 14.9947 18.687 14.6437 18.9458 14.3849C19.2046 14.1261 19.5556 13.9807 19.9216 13.9807V11.2207C19.9216 10.8547 20.067 10.5037 20.3258 10.2449C20.5846 9.98606 20.9356 9.84066 21.3016 9.84066H24.0616ZM24.0616 13.9807V11.2207H21.3016V13.9807H24.0616ZM19.2316 22.1434L18.3277 20.8807H8.19157C8.00857 20.8807 7.83307 20.9534 7.70367 21.0828C7.57427 21.2122 7.50157 21.3877 7.50157 21.5707C7.50157 21.7537 7.57427 21.9292 7.70367 22.0586C7.83307 22.188 8.00857 22.2607 8.19157 22.2607H19.2316V22.1434Z" fill="white"/>
</svg>
