<svg width="30" height="30" viewBox="0 0 30 30" fill="none" xmlns="http://www.w3.org/2000/svg">
<path d="M17.6347 3.27851C17.6611 3.24532 17.6939 3.21783 17.7313 3.19773C17.7686 3.17763 17.8096 3.16534 17.8519 3.16159C17.8941 3.15785 17.9367 3.16273 17.977 3.17595C18.0173 3.18917 18.0545 3.21044 18.0863 3.23848L19.2397 4.25427L15.6119 8.78901H18.0137L20.6482 5.49647L22.7148 7.31913C22.776 7.37313 22.8136 7.44886 22.8196 7.53018C22.8257 7.61151 22.7998 7.69199 22.7474 7.75447L21.8842 8.78901H24.3161C24.6173 8.34802 24.747 7.81212 24.6806 7.2822C24.6142 6.75228 24.3565 6.2649 23.9558 5.91179L19.3272 1.82989C19.1039 1.63325 18.8429 1.48418 18.5601 1.3918C18.2772 1.29941 17.9785 1.26566 17.6822 1.29258C17.3859 1.31951 17.0982 1.40656 16.8367 1.54841C16.5751 1.69026 16.3452 1.88394 16.161 2.11762L10.9045 8.78901H13.2938L17.6347 3.27851ZM6.24338 8.16353C5.99455 8.16353 5.75591 8.26238 5.57996 8.43833C5.40401 8.61428 5.30516 8.85292 5.30516 9.10176C5.30516 9.35059 5.40401 9.58923 5.57996 9.76518C5.75591 9.94113 5.99455 10.04 6.24338 10.04L22.5059 10.04C23.5842 10.04 24.6183 10.4683 25.3808 11.2308C26.1432 11.9932 26.5716 13.0273 26.5716 14.1056V22.2369C26.5716 23.3152 26.1432 24.3493 25.3808 25.1117C24.6183 25.8742 23.5842 26.3025 22.5059 26.3025H7.49435C6.41607 26.3025 5.38196 25.8742 4.61951 25.1117C3.85705 24.3493 3.42871 23.3152 3.42871 22.2369L3.42871 9.10176C3.42871 8.35526 3.72526 7.63934 4.25311 7.11148C4.78096 6.58363 5.49689 6.28708 6.24338 6.28708L11.6476 6.28708L10.1564 8.16353H6.24338ZM19.0658 18.484C19.0658 19.0019 19.4861 19.4222 20.004 19.4222H22.5059C22.7548 19.4222 22.9934 19.3234 23.1694 19.1474C23.3453 18.9715 23.4442 18.7328 23.4442 18.484C23.4442 18.2352 23.3453 17.9965 23.1694 17.8206C22.9934 17.6446 22.7548 17.5458 22.5059 17.5458H20.004C19.7552 17.5458 19.5165 17.6446 19.3406 17.8206C19.1646 17.9965 19.0658 18.2352 19.0658 18.484Z" fill="white"/>
</svg>
