<svg width="30" height="30" viewBox="0 0 30 30" fill="none" xmlns="http://www.w3.org/2000/svg">
<path fill-rule="evenodd" clip-rule="evenodd" d="M27.5 19.1429V14.1429C27.5 10.6079 27.5 8.8391 26.4013 7.7416C25.37 6.7091 23.7475 6.6466 20.625 6.64285V26.6429C23.7475 26.6391 25.37 26.5766 26.4013 25.5441C27.5 24.4466 27.5 22.6766 27.5 19.1429ZM23.75 12.8941C24.0815 12.8941 24.3995 13.0258 24.6339 13.2602C24.8683 13.4946 25 13.8126 25 14.1441C25 14.4756 24.8683 14.7936 24.6339 15.028C24.3995 15.2624 24.0815 15.3941 23.75 15.3941C23.4185 15.3941 23.1005 15.2624 22.8661 15.028C22.6317 14.7936 22.5 14.4756 22.5 14.1441C22.5 13.8126 22.6317 13.4946 22.8661 13.2602C23.1005 13.0258 23.4185 12.8941 23.75 12.8941ZM23.75 17.8941C24.0815 17.8941 24.3995 18.0258 24.6339 18.2602C24.8683 18.4946 25 18.8126 25 19.1441C25 19.4756 24.8683 19.7936 24.6339 20.028C24.3995 20.2624 24.0815 20.3941 23.75 20.3941C23.4185 20.3941 23.1005 20.2624 22.8661 20.028C22.6317 19.7936 22.5 19.4756 22.5 19.1441C22.5 18.8126 22.6317 18.4946 22.8661 18.2602C23.1005 18.0258 23.4185 17.8941 23.75 17.8941Z" fill="white"/>
<path d="M19.4635 3.50331L16.7697 6.64331H18.751V26.6433H10.001C6.46598 26.6433 4.69723 26.6433 3.59973 25.5446C2.50098 24.4471 2.50098 22.6783 2.50098 19.1446V14.1446C2.50098 10.6071 2.50098 8.83956 3.59973 7.74206C4.69723 6.64331 6.46598 6.64331 10.001 6.64331H13.231L10.5385 3.50331C10.3861 3.31353 10.3136 3.07194 10.3361 2.82963C10.3586 2.58731 10.4745 2.36326 10.6593 2.20483C10.844 2.0464 11.0831 1.96601 11.326 1.98065C11.5689 1.9953 11.7966 2.10383 11.961 2.28331L15.001 5.82831L18.0385 2.28331C18.2003 2.09434 18.4305 1.97738 18.6785 1.95816C18.9265 1.93894 19.172 2.01903 19.361 2.18081C19.5499 2.34259 19.6669 2.57281 19.6861 2.82083C19.7053 3.06885 19.6253 3.31434 19.4635 3.50331Z" fill="white"/>
</svg>
