<svg width="30" height="30" viewBox="0 0 30 30" fill="none" xmlns="http://www.w3.org/2000/svg">
<path d="M11.1012 6.32069C11.6131 5.80875 12.2208 5.40265 12.8896 5.12559C13.5585 4.84852 14.2754 4.70592 14.9993 4.70592C15.7233 4.70592 16.4401 4.84852 17.109 5.12559C17.7778 5.40265 18.3855 5.80875 18.8974 6.32069C18.9701 6.39591 19.057 6.4559 19.1531 6.49717C19.2491 6.53844 19.3525 6.56017 19.457 6.56108C19.5616 6.56199 19.6653 6.54206 19.7621 6.50247C19.8589 6.46287 19.9468 6.40439 20.0207 6.33045C20.0947 6.25651 20.1531 6.16859 20.1927 6.07181C20.2323 5.97503 20.2523 5.87133 20.2513 5.76676C20.2504 5.6622 20.2287 5.55886 20.1874 5.46279C20.1462 5.36671 20.0862 5.27981 20.011 5.20717C19.3528 4.54902 18.5715 4.02695 17.7116 3.67077C16.8517 3.31458 15.9301 3.13126 14.9993 3.13126C14.0686 3.13126 13.1469 3.31458 12.287 3.67077C11.4271 4.02695 10.6458 4.54902 9.98766 5.20717C9.84421 5.35569 9.76484 5.55462 9.76663 5.7611C9.76843 5.96758 9.85125 6.16509 9.99725 6.3111C10.1433 6.45711 10.3408 6.53993 10.5473 6.54172C10.7537 6.54352 10.9527 6.46414 11.1012 6.32069Z" fill="white"/>
<path d="M13.3325 8.5494C13.7755 8.10699 14.3759 7.85848 15.002 7.85848C15.6281 7.85848 16.2285 8.10699 16.6715 8.5494C16.8194 8.69728 17.0199 8.78035 17.229 8.78035C17.4382 8.78035 17.6387 8.69728 17.7866 8.5494C17.9345 8.40153 18.0175 8.20098 18.0175 7.99185C18.0175 7.78273 17.9345 7.58218 17.7866 7.4343C17.421 7.06856 16.9868 6.77844 16.5091 6.58049C16.0313 6.38255 15.5192 6.28067 15.002 6.28067C14.4848 6.28067 13.9727 6.38255 13.4949 6.58049C13.0172 6.77844 12.583 7.06856 12.2174 7.4343C12.0739 7.58283 11.9946 7.78175 11.9964 7.98823C11.9982 8.19471 12.081 8.39223 12.227 8.53824C12.373 8.68425 12.5705 8.76707 12.777 8.76886C12.9835 8.77065 13.1824 8.69128 13.3309 8.54783L13.3325 8.5494Z" fill="white"/>
<path d="M7.08444 5.24513C7.05478 5.14344 7.00491 5.04877 6.93781 4.9668C6.87071 4.88483 6.78776 4.81724 6.69392 4.76808C6.60009 4.71892 6.49731 4.68919 6.39172 4.68068C6.28613 4.67217 6.17991 4.68504 6.07941 4.71854C5.97892 4.75204 5.88621 4.80547 5.80685 4.87563C5.72748 4.9458 5.66309 5.03125 5.61752 5.12688C5.57195 5.22251 5.54615 5.32635 5.54165 5.43219C5.53715 5.53802 5.55405 5.64368 5.59134 5.74283L8.39484 14.1565H4.76289C4.13632 14.1565 3.53541 14.4054 3.09235 14.8484C2.6493 15.2915 2.40039 15.8924 2.40039 16.519L2.40039 19.669C2.40039 20.2956 2.6493 20.8965 3.09235 21.3395C3.53541 21.7826 4.13632 22.0315 4.76289 22.0315H5.55039C5.55039 22.2403 5.63336 22.4406 5.78104 22.5883C5.92873 22.736 6.12903 22.819 6.33789 22.819H9.48789C9.69675 22.819 9.89705 22.736 10.0447 22.5883C10.1924 22.4406 10.2754 22.2403 10.2754 22.0315H19.7254C19.7254 22.2403 19.8084 22.4406 19.956 22.5883C20.1037 22.736 20.304 22.819 20.5129 22.819H23.6629C23.8717 22.819 24.0721 22.736 24.2197 22.5883C24.3674 22.4406 24.4504 22.2403 24.4504 22.0315H25.2379C25.8645 22.0315 26.4654 21.7826 26.9084 21.3395C27.3515 20.8965 27.6004 20.2956 27.6004 19.669V16.519C27.6004 15.8924 27.3515 15.2915 26.9084 14.8484C26.4654 14.4054 25.8645 14.1565 25.2379 14.1565H21.6059L24.4094 5.74283C24.4467 5.64368 24.4636 5.53802 24.4591 5.43219C24.4546 5.32635 24.4288 5.22251 24.3833 5.12688C24.3377 5.03125 24.2733 4.9458 24.1939 4.87563C24.1146 4.80547 24.0219 4.75204 23.9214 4.71854C23.8209 4.68504 23.7147 4.67217 23.6091 4.68068C23.5035 4.68919 23.4007 4.71892 23.3069 4.76808C23.213 4.81724 23.1301 4.88483 23.063 4.9668C22.9959 5.04877 22.946 5.14344 22.9163 5.24513L19.9459 14.1565H10.0549L7.08444 5.24513ZM6.33789 18.8815C6.12903 18.8815 5.92873 18.7985 5.78104 18.6508C5.63336 18.5031 5.55039 18.3028 5.55039 18.094C5.55039 17.8851 5.63336 17.6848 5.78104 17.5371C5.92873 17.3894 6.12903 17.3065 6.33789 17.3065C6.54675 17.3065 6.74705 17.3894 6.89474 17.5371C7.04242 17.6848 7.12539 17.8851 7.12539 18.094C7.12539 18.3028 7.04242 18.5031 6.89474 18.6508C6.74705 18.7985 6.54675 18.8815 6.33789 18.8815ZM13.4254 18.094C13.4254 17.8851 13.5084 17.6848 13.656 17.5371C13.8037 17.3894 14.004 17.3065 14.2129 17.3065C14.4217 17.3065 14.6221 17.3894 14.7697 17.5371C14.9174 17.6848 15.0004 17.8851 15.0004 18.094C15.0004 18.3028 14.9174 18.5031 14.7697 18.6508C14.6221 18.7985 14.4217 18.8815 14.2129 18.8815C14.004 18.8815 13.8037 18.7985 13.656 18.6508C13.5084 18.5031 13.4254 18.3028 13.4254 18.094ZM17.3629 18.8815C17.154 18.8815 16.9537 18.7985 16.806 18.6508C16.6584 18.5031 16.5754 18.3028 16.5754 18.094C16.5754 17.8851 16.6584 17.6848 16.806 17.5371C16.9537 17.3894 17.154 17.3065 17.3629 17.3065C17.5717 17.3065 17.7721 17.3894 17.9197 17.5371C18.0674 17.6848 18.1504 17.8851 18.1504 18.094C18.1504 18.3028 18.0674 18.5031 17.9197 18.6508C17.7721 18.7985 17.5717 18.8815 17.3629 18.8815ZM19.7254 18.094C19.7254 17.8851 19.8084 17.6848 19.956 17.5371C20.1037 17.3894 20.304 17.3065 20.5129 17.3065C20.7217 17.3065 20.9221 17.3894 21.0697 17.5371C21.2174 17.6848 21.3004 17.8851 21.3004 18.094C21.3004 18.3028 21.2174 18.5031 21.0697 18.6508C20.9221 18.7985 20.7217 18.8815 20.5129 18.8815C20.304 18.8815 20.1037 18.7985 19.956 18.6508C19.8084 18.5031 19.7254 18.3028 19.7254 18.094ZM22.8754 18.094C22.8754 17.8851 22.9584 17.6848 23.106 17.5371C23.2537 17.3894 23.454 17.3065 23.6629 17.3065C23.8717 17.3065 24.0721 17.3894 24.2197 17.5371C24.3674 17.6848 24.4504 17.8851 24.4504 18.094C24.4504 18.3028 24.3674 18.5031 24.2197 18.6508C24.0721 18.7985 23.8717 18.8815 23.6629 18.8815C23.454 18.8815 23.2537 18.7985 23.106 18.6508C22.9584 18.5031 22.8754 18.3028 22.8754 18.094Z" fill="white"/>
<path d="M15.7879 10.2188C15.7879 10.4276 15.7049 10.6279 15.5572 10.7756C15.4096 10.9233 15.2092 11.0063 15.0004 11.0063C14.7915 11.0063 14.5912 10.9233 14.4435 10.7756C14.2959 10.6279 14.2129 10.4276 14.2129 10.2188C14.2129 10.0099 14.2959 9.80959 14.4435 9.66191C14.5912 9.51422 14.7915 9.43126 15.0004 9.43126C15.2092 9.43126 15.4096 9.51422 15.5572 9.66191C15.7049 9.80959 15.7879 10.0099 15.7879 10.2188Z" fill="white"/>
</svg>
