<svg id="Группа_1" data-name="Группа 1" xmlns="http://www.w3.org/2000/svg" width="300" height="300" viewBox="0 0 300 300">
  <defs>
    <style>
      .cls-1 {
        fill: #fff;
        fill-rule: evenodd;
      }
    </style>
  </defs>
  <path id="Фигура_1" data-name="Фигура 1" class="cls-1" d="M167,59H131c-0.053,61.925-42.913,97.073-96,107v-2c-2.088-3.306-1-11.937-1-17,0-24.658-.472-100.334,16-115,4.633-2.227,54.034-32.93,161-10,13.093,3.507,24.847,3.013,34,10,7.066,5.395,7.716,18.766,11,28-50.555,2.75-90.521,41.953-105,65C157.859,113.232,166.958,88.877,167,59ZM40,202c49.358-5.7,83.546-33.987,104-65-7.992,16.713-16.13,33.639-16,65h36c0.429-60.986,44.058-96.208,97-106-1.532,7.65,1,22.527,1,34,0,24.1-.777,48.5-6,68-3.276,12.229-3,26.843-12,33-13.047,6.278-107.951,27.884-193,0C44.662,226.569,40.6,211.878,40,202Z"/>
  <path id="СИБСЕТИ" class="cls-1" d="M59.575,280.934a14.362,14.362,0,0,0,5.38-3.9l-3.766-3.586a11.136,11.136,0,0,1-3.811,2.8,11.312,11.312,0,0,1-4.573.919,12.146,12.146,0,0,1-4.506-.807,10.353,10.353,0,0,1-5.873-5.784,12.291,12.291,0,0,1,0-8.877,10.348,10.348,0,0,1,5.873-5.783,12.146,12.146,0,0,1,4.506-.807,11.028,11.028,0,0,1,8.384,3.676l3.766-3.542a13.952,13.952,0,0,0-5.38-3.923,19.388,19.388,0,0,0-13.719-.134,16.183,16.183,0,0,0-5.335,3.362,15.183,15.183,0,0,0-3.542,5.134,17.228,17.228,0,0,0,0,12.912,15.32,15.32,0,0,0,3.52,5.133,15.866,15.866,0,0,0,5.335,3.363,18.315,18.315,0,0,0,6.658,1.188A18.023,18.023,0,0,0,59.575,280.934Zm16.275,0.9,16.858-22.238v22.238h5.739V250.447H93.022L76.164,272.729V250.447H70.425v31.384H75.85Zm45.551,0q5.919,0,9.169-2.533a8.542,8.542,0,0,0,3.25-7.151,8.25,8.25,0,0,0-2.936-6.838q-2.937-2.353-8.586-2.353h-9.281v-7.712h18.7v-4.8H107.279v31.384H121.4Zm-8.384-14.392h8.071q6.86,0,6.859,4.842a4.406,4.406,0,0,1-1.748,3.766,8.485,8.485,0,0,1-5.111,1.3h-8.071v-9.908Zm48.69,13.5a14.362,14.362,0,0,0,5.38-3.9l-3.766-3.586a11.13,11.13,0,0,1-3.811,2.8,11.308,11.308,0,0,1-4.573.919,12.149,12.149,0,0,1-4.506-.807,10.359,10.359,0,0,1-5.873-5.784,12.3,12.3,0,0,1,0-8.877,10.353,10.353,0,0,1,5.873-5.783,12.149,12.149,0,0,1,4.506-.807,11.029,11.029,0,0,1,8.384,3.676l3.766-3.542a13.952,13.952,0,0,0-5.38-3.923,19.388,19.388,0,0,0-13.719-.134,16.178,16.178,0,0,0-5.335,3.362,15.169,15.169,0,0,0-3.542,5.134,17.22,17.22,0,0,0,0,12.912,15.323,15.323,0,0,0,3.519,5.133,15.867,15.867,0,0,0,5.336,3.363,18.309,18.309,0,0,0,6.657,1.188A18.02,18.02,0,0,0,161.707,280.934Zm16.185-12.643h15.6v-4.8h-15.6v4.8Zm0.449-12.957h17.081v-4.887h-22.91v31.384H196.05v-4.887H178.341v-21.61Zm36.584,26.5V253.944l-1.345,1.435h11.747v-4.932H198.785v4.932h11.746l-1.39-1.435v27.887h5.784Zm20.893,0,16.857-22.238v22.238h5.739V250.447h-5.425l-16.857,22.282V250.447h-5.739v31.384h5.425Z"/>
</svg>
