<svg width="175" height="175" viewBox="0 0 175 175" fill="none" xmlns="http://www.w3.org/2000/svg">
<g clip-path="url(#clip0_5_352)">
<path d="M158.079 21.3746C158.008 21.0288 157.84 20.7105 157.594 20.4571C157.349 20.2036 157.036 20.0255 156.693 19.9436C133.813 14.3447 80.9493 34.2967 52.3083 62.9519C47.1999 68.0236 42.5429 73.5312 38.3901 79.4124C29.5579 78.6304 20.7258 79.2833 13.1983 82.5676C-8.04028 91.9239 -14.224 116.337 -15.9466 126.839C-16.0444 127.414 -16.0075 128.003 -15.839 128.561C-15.6704 129.12 -15.3748 129.631 -14.9754 130.055C-14.576 130.48 -14.0836 130.806 -13.537 131.007C-12.9905 131.209 -12.4046 131.281 -11.8255 131.218L22.2805 127.453C22.3048 130.026 22.46 132.597 22.7453 135.155C22.917 136.931 23.7048 138.591 24.9719 139.847L38.1792 153.035C39.4346 154.301 41.0926 155.09 42.8667 155.263C45.408 155.548 47.9621 155.703 50.5192 155.729L46.777 189.823C46.7145 190.402 46.7871 190.988 46.9889 191.535C47.1907 192.081 47.5163 192.574 47.9401 192.973C48.364 193.373 48.8745 193.669 49.4318 193.838C49.9891 194.007 50.5779 194.044 51.152 193.947C61.6248 192.266 86.0588 186.077 95.3519 164.819C98.6332 157.285 99.3051 148.488 98.5472 139.69C104.437 135.534 109.954 130.871 115.036 125.756C143.767 97.1435 163.587 45.4123 158.079 21.3746ZM86.3713 91.6228C83.7478 88.9987 81.9608 85.6547 81.2363 82.0138C80.5118 78.373 80.8824 74.5989 82.3012 71.1689C83.72 67.739 86.1233 64.8072 89.207 62.7445C92.2908 60.6817 95.9164 59.5808 99.6254 59.5808C103.334 59.5808 106.96 60.6817 110.044 62.7445C113.128 64.8072 115.531 67.739 116.95 71.1689C118.368 74.5989 118.739 78.373 118.014 82.0138C117.29 85.6547 115.503 88.9987 112.88 91.6228C111.14 93.3665 109.074 94.7499 106.8 95.6937C104.525 96.6376 102.087 97.1234 99.6254 97.1234C97.1634 97.1234 94.7255 96.6376 92.4513 95.6937C90.177 94.7499 88.111 93.3665 86.3713 91.6228Z" fill="white"/>
<path d="M37.0242 161.777C34.8839 163.922 31.4508 164.758 27.3186 165.473C18.0349 167.055 9.83688 159.031 11.5046 149.645C12.1412 146.086 14.0238 141.098 15.1955 139.926C15.4516 139.675 15.622 139.349 15.6826 138.995C15.7433 138.642 15.6909 138.278 15.5331 137.956C15.3753 137.634 15.12 137.37 14.8035 137.201C14.487 137.032 14.1253 136.967 13.7699 137.016C8.57832 137.651 3.74848 140.005 0.0492811 143.703C-9.13294 152.895 -10 187 -10 187C-10 187 24.1199 186.133 33.3021 176.941C37.0112 173.245 39.3679 168.407 39.9925 163.207C40.137 161.574 38.1491 160.602 37.0242 161.777Z" fill="white"/>
</g>
<defs>
<clipPath id="clip0_5_352">
<path d="M0 0H175V175H40C17.9086 175 0 157.091 0 135V0Z" fill="white"/>
</clipPath>
</defs>
</svg>
