<svg width="122" height="91" viewBox="0 0 122 91" fill="none" xmlns="http://www.w3.org/2000/svg">
<g clip-path="url(#clip0_332_871)">
<path d="M96.8334 0.242496C91.4337 0.398655 86.2292 2.35798 81.9933 5.8301C80.2146 7.28922 78.5139 9.18021 77.1914 11.181C75.0759 14.3774 73.7315 18.0789 73.2996 21.9048C73.1313 23.4127 73.1069 25.2037 73.2386 26.7702C73.7144 32.4359 76.1666 37.7477 80.178 41.8103C84.792 46.4805 91.0043 49.0742 97.5727 49.0742C101.457 49.0742 105.168 48.1861 108.643 46.4268C112.957 44.243 116.595 40.7294 118.95 36.4741C121.375 32.0894 122.424 26.7946 121.831 21.917C121.758 21.3241 121.597 20.3139 121.487 19.7576C120.309 13.8357 116.8 8.39941 111.864 4.84922C111.215 4.38317 110.41 3.86589 109.66 3.43645C105.827 1.23801 101.308 0.113174 96.8334 0.242496Z" fill="#EE2D24"/>
<path d="M48.094 6.34267C46.796 6.41099 45.3954 6.61351 44.2632 6.89899C39.4418 8.10679 35.2133 11.3642 32.8001 15.7245C31.4679 18.1328 30.7603 20.5118 30.5212 23.3934C30.4602 24.1474 30.487 25.6968 30.5773 26.5654C31.075 31.3283 33.393 35.6666 37.0896 38.7532C39.8859 41.0883 43.2946 42.5157 46.9594 42.8866C48.2356 43.0159 49.7874 42.9988 51.0952 42.8402C52.6349 42.6523 54.1916 42.2497 55.6629 41.6592C59.1716 40.2538 62.2753 37.6674 64.2883 34.471C64.8715 33.5462 65.479 32.3458 65.8743 31.3405C67.4091 27.4267 67.5286 22.9444 66.2062 18.9038C64.9984 15.2145 62.5901 11.9596 59.3912 9.68791C58.2688 8.89003 56.8707 8.13851 55.536 7.61147C53.3718 6.75991 51.0147 6.31339 48.765 6.33047C48.4698 6.33291 48.1672 6.33779 48.094 6.34267Z" fill="#EE2D24"/>
<path d="M11.4936 12.4402C11.4472 12.4451 11.2716 12.4622 11.1032 12.4744C9.45376 12.6159 7.67012 13.1796 6.1744 14.0336C2.97312 15.8611 0.796641 18.9697 0.186641 22.5882C-0.159839 24.6403 -0.00367929 26.6167 0.662441 28.6126C1.49692 31.1111 3.20736 33.3413 5.418 34.8175C7.09916 35.9423 8.87304 36.5841 10.9324 36.8159C11.3911 36.8695 12.577 36.8866 13.0918 36.8525C15.0584 36.7134 16.9372 36.1302 18.5452 35.1542C21.4464 33.395 23.5618 30.3913 24.2402 27.0656C24.5354 25.6089 24.5452 23.9644 24.2646 22.4418C23.962 20.7973 23.2715 19.1332 22.3028 17.7131C21.1438 16.0124 19.5602 14.6411 17.679 13.7066C16.3785 13.0624 14.9779 12.6525 13.492 12.4842C13.1626 12.4476 11.7156 12.4158 11.4936 12.4402Z" fill="#EE2D24"/>
<path d="M91.6605 60.0204C90.6357 60.1009 89.828 60.2547 89.0497 60.5182C88.2079 60.8061 87.6052 61.1013 86.8415 61.604C86.3022 61.9578 85.8899 62.2969 85.4141 62.7752C84.6796 63.5072 84.177 64.2099 83.7549 65.0883C83.1498 66.3498 82.8887 67.5063 82.8887 68.9313C82.8887 71.3493 83.8232 73.6332 85.4653 75.2314C86.5853 76.3196 87.9297 77.1004 89.4425 77.5372C91.0017 77.9886 92.6853 78.0545 94.3054 77.7299C95.7548 77.4371 97.1017 76.832 98.2046 75.9707C100.044 74.5384 101.179 72.6303 101.552 70.3392C101.635 69.8317 101.66 69.3949 101.645 68.7337C101.63 68.0822 101.574 67.5942 101.445 66.9915C100.898 64.4661 99.122 62.2237 96.7235 61.0306C95.6596 60.5011 94.691 60.2132 93.4661 60.0643C93.1635 60.0277 91.946 59.9985 91.6605 60.0204ZM92.7585 63.3242C94.0639 63.4681 95.2497 64.0269 96.2013 64.9419C96.9919 65.7032 97.497 66.5865 97.7873 67.7235C98.1289 69.0631 97.8678 70.5929 97.0797 71.8886C96.6137 72.6547 95.911 73.3623 95.1619 73.8235C94.5958 74.17 93.7442 74.4725 93.0025 74.5872C92.6389 74.6433 91.9264 74.6433 91.5629 74.5872C89.6694 74.292 88.0078 73.1037 87.1855 71.4494C86.8708 70.8125 86.6926 70.1635 86.6194 69.3607C86.456 67.5576 87.3807 65.5739 88.9326 64.4075C89.5889 63.9122 90.3892 63.5682 91.2945 63.3876C91.7166 63.3022 92.3266 63.2778 92.7585 63.3242Z" fill="#455560"/>
<path d="M15.0565 62.0283V63.6656L15.3078 63.6704C15.4445 63.6729 17.0451 63.6778 18.8629 63.6778C23.0939 63.6802 23.2769 63.69 23.7844 63.934C24.6213 64.339 25.1679 65.2247 25.2679 66.3422L25.285 66.5204H21.9642C19.8438 66.5204 18.5555 66.5301 18.4042 66.5448C16.7889 66.718 15.2664 67.6647 14.3123 69.0946C13.5218 70.278 13.2192 71.8908 13.512 73.3524C13.7487 74.5333 14.3904 75.6655 15.2712 76.4585C16.1716 77.2661 17.0695 77.6785 18.4115 77.8981C18.7141 77.9469 18.8312 77.9493 20.8027 77.9591C23.2818 77.9688 23.7868 77.9444 24.5432 77.7785C25.8999 77.4784 27.1638 76.5927 27.9788 75.3727C28.418 74.7139 28.6986 73.9916 28.8328 73.1816C28.8694 72.9522 28.8767 72.6448 28.884 70.3268C28.8962 67.3573 28.8645 65.3248 28.8084 65.0198C28.557 63.7119 27.8812 62.5749 26.8295 61.694C26.1829 61.1524 25.2508 60.6888 24.4871 60.5302C23.9357 60.4155 24.0308 60.4179 19.4192 60.4033L15.0565 60.3886V62.0283ZM25.2191 71.0051C25.2191 72.3251 25.2094 72.4203 25.0678 72.8766C24.8507 73.5646 24.4042 74.0892 23.7868 74.3747C23.3403 74.5821 22.9938 74.6334 22.1203 74.6212C21.3737 74.609 20.7661 74.6114 20.0219 74.6236C19.4314 74.6334 19.1874 74.6016 18.7678 74.4601C18.1407 74.2503 17.7405 73.9233 17.455 73.389C17.1915 72.8936 17.1232 72.6594 17.1256 72.23C17.1281 71.4492 17.5697 70.6537 18.2578 70.1974C18.6238 69.9534 18.9361 69.8461 19.3631 69.8168C19.512 69.8046 20.8881 69.7948 22.4253 69.7948L25.2191 69.79V71.0051Z" fill="#455560"/>
<path d="M31.7166 68.9288C31.7117 73.6233 31.7117 77.4688 31.7166 77.4761C31.7214 77.4834 32.5657 77.4907 33.5905 77.4956L35.4546 77.5029V73.8795V70.2586L35.6157 70.2415C35.8767 70.2122 37.1431 70.2464 37.4408 70.2878C38.3289 70.4147 39.0975 70.6807 39.6636 71.0564C40.3102 71.4883 40.6201 71.7348 40.9739 72.1032C41.8255 72.9914 42.4135 74.2382 42.616 75.5924C42.699 76.1585 42.7161 76.7368 42.6624 77.337L42.6453 77.5005L44.4729 77.4956L46.3004 77.4883L46.3077 76.9515C46.3321 75.2703 45.9783 73.6477 45.2683 72.1813C44.8315 71.2785 44.3094 70.544 43.6042 69.8364C43.1357 69.3655 42.9186 69.185 42.4525 68.8702C42.2793 68.7531 42.1402 68.653 42.1427 68.6457C42.1427 68.6384 42.2256 68.5725 42.3281 68.4993C43.0015 68.0187 43.7311 67.2818 44.2313 66.5791C44.9731 65.5396 45.5123 64.305 45.788 63.0288C45.9344 62.3408 45.993 61.8186 46.0125 61.0403L46.0271 60.4278L45.0316 60.4132C44.4826 60.4034 43.6433 60.3961 43.165 60.3961H42.2939L42.2793 60.8158C42.2232 62.3749 41.7498 63.7389 40.8958 64.8125C40.6909 65.0687 40.2126 65.5372 39.9686 65.7177C39.1537 66.3253 38.4583 66.6327 37.5164 66.8011C37.0333 66.8865 36.699 66.9109 36.0354 66.9109H35.4546V63.6706V60.4278L34.9618 60.4132C34.6885 60.4034 33.8491 60.3961 33.0976 60.3961H31.7263L31.7166 68.9288Z" fill="#455560"/>
<path d="M49.599 61.1695C49.5771 62.1479 49.5771 62.9312 49.599 63.3557L49.6137 63.6876L53.1053 63.6827C57.5241 63.6778 57.7193 63.6851 58.2415 63.9047C58.9613 64.2073 59.5347 64.9613 59.7275 65.8616C59.7738 66.0812 59.8226 66.4911 59.8031 66.5009C59.7982 66.5033 58.2342 66.5131 56.3285 66.5204C52.5417 66.5375 52.8198 66.5277 52.1927 66.6815C51.39 66.8791 50.5482 67.3207 49.8796 67.8966C48.8231 68.8091 48.1179 70.1804 47.9691 71.6176C47.9276 72.008 47.9545 72.7961 48.0179 73.1694C48.2326 74.4187 48.7816 75.4655 49.6698 76.3317C50.5433 77.1808 51.6584 77.7151 52.9491 77.9079C53.1614 77.9396 53.5543 77.9494 55.2061 77.9567C57.4558 77.9689 58.1878 77.9494 58.7441 77.8542C60.2594 77.598 61.6941 76.6489 62.5432 75.341C63.041 74.5773 63.2947 73.8136 63.4338 72.6692C63.4655 72.4155 63.4729 71.8713 63.4826 69.4728C63.4948 66.0715 63.4826 65.7396 63.3045 64.8612C62.9727 63.2093 61.8161 61.7429 60.2325 60.9694C59.7153 60.7157 59.3029 60.5815 58.7441 60.479C58.3977 60.4155 57.246 60.3985 53.2517 60.3985L49.6137 60.396L49.599 61.1695ZM59.7445 69.9779C59.7348 70.0828 59.7397 70.4927 59.7543 70.888C59.8007 72.2056 59.7226 72.779 59.4176 73.3622C59.0638 74.0454 58.4196 74.4577 57.4851 74.6017C57.3387 74.6237 57.0654 74.6285 56.5237 74.6212C55.6356 74.609 54.8767 74.6115 54.3155 74.6237C53.991 74.631 53.8739 74.6237 53.7055 74.5871C52.9638 74.426 52.3562 74.0161 52.0024 73.4378C51.9024 73.2768 51.7657 72.9157 51.7047 72.6619C51.6511 72.4374 51.6413 72.0836 51.6828 71.8494C51.7682 71.3565 52.0341 70.8734 52.427 70.4976C52.8711 70.0731 53.342 69.8559 53.9129 69.8169C54.0618 69.8047 55.4355 69.7949 56.9703 69.7949L59.7592 69.79L59.7445 69.9779Z" fill="#455560"/>
<path d="M66.2461 68.9488V77.501H69.8573C73.8174 77.501 73.815 77.501 74.5421 77.3546C77.6433 76.7324 80.2639 74.2485 81.0398 71.1936C81.2472 70.3811 81.3009 69.976 81.318 69.144C81.3302 68.4437 81.3033 68.0435 81.2033 67.4677C80.891 65.6816 80.0004 64.0102 78.695 62.7634C77.4969 61.6166 75.8987 60.8089 74.2737 60.5308C73.5734 60.4088 73.7101 60.4137 69.8646 60.4039L66.2461 60.3941V68.9488ZM72.1387 63.6906C73.4929 63.7638 74.3396 64.0078 75.1911 64.5641C76.621 65.5011 77.5116 67.0553 77.6067 68.778C77.6482 69.5466 77.4457 70.4616 77.0675 71.2277C76.5258 72.316 75.6865 73.1627 74.6275 73.6824C73.6783 74.1509 72.9024 74.2655 70.9016 74.2363L69.9793 74.2241V68.9585V63.693L70.2062 63.6833C70.7357 63.6662 71.7312 63.6686 72.1387 63.6906Z" fill="#455560"/>
<path d="M44.0435 80.9584C43.5604 80.9804 43.2579 81.017 43.0651 81.078C41.9525 81.4269 41.1058 82.4102 40.8691 83.6351C40.8252 83.8596 40.8203 84.0206 40.8081 85.4456C40.7935 87.1218 40.8032 87.3561 40.9081 87.8856C41.1473 89.0812 41.8549 89.9205 42.9529 90.3085C43.7044 90.5744 44.3339 90.6257 46.0175 90.5671C46.6739 90.5427 47.2741 90.5354 47.4791 90.5452L47.8255 90.5622V89.6228V88.6834L47.7353 88.6664C47.684 88.659 47.0277 88.659 46.2761 88.6688C44.1851 88.6908 43.8215 88.6468 43.4653 88.3248C43.2213 88.1027 43.0236 87.7343 42.9138 87.2926C42.887 87.1804 42.8699 87.0828 42.8772 87.0755C42.8845 87.0682 43.7849 87.0608 44.8756 87.056C47.0374 87.0486 46.9349 87.056 47.3766 86.9071C48.0281 86.6875 48.6649 86.1629 49.0309 85.5456C49.1773 85.2992 49.2798 85.0552 49.3554 84.7721C49.4384 84.4622 49.4628 83.8034 49.4042 83.4667C49.2017 82.3077 48.3282 81.3293 47.2448 81.0462C47.035 80.9926 46.9349 80.9828 46.3493 80.9657C45.7345 80.9462 44.4047 80.9413 44.0435 80.9584ZM45.9004 82.7713C46.4811 82.8299 46.8837 83.0226 47.1423 83.3667C47.2643 83.5277 47.3131 83.6936 47.3131 83.9547C47.3131 84.3183 47.1911 84.6233 46.9471 84.8673C46.7349 85.0771 46.6617 85.104 46.2029 85.1357C45.9858 85.1503 45.1684 85.1625 44.3681 85.1625H42.9211L42.9065 85.0991C42.8967 85.0649 42.8967 84.8478 42.9041 84.6184C42.9187 84.1694 42.9553 83.9718 43.0822 83.6717C43.2701 83.2227 43.6239 82.9128 44.0338 82.8421C44.1899 82.8152 45.1001 82.7542 45.4368 82.7494C45.5539 82.7494 45.7613 82.7591 45.9004 82.7713Z" fill="#455560"/>
<path d="M63.0256 80.968C61.8861 81.0973 60.9979 81.6878 60.5197 82.6369C60.3294 83.0127 60.2074 83.4031 60.1488 83.8325C60.1342 83.9277 60.122 84.7158 60.122 85.6259C60.1171 87.3852 60.1293 87.5901 60.2537 88.105C60.4074 88.7345 60.6514 89.1615 61.1077 89.5982C61.6884 90.1521 62.3765 90.4474 63.3428 90.5523C63.8088 90.6035 64.2553 90.606 65.2948 90.5669C65.934 90.5425 66.5001 90.5352 66.7173 90.545L67.076 90.562V89.6178V88.6759L66.9003 88.671C66.8027 88.671 66.178 88.671 65.5144 88.6735C64.1553 88.6808 63.477 88.6515 63.2378 88.5783C62.8157 88.4441 62.4863 88.1147 62.318 87.6584C62.2472 87.4632 62.1789 87.0972 62.2082 87.0704C62.2179 87.0606 62.8914 87.0558 63.7039 87.0606C65.3899 87.068 66.2024 87.0436 66.505 86.9679C66.9759 86.8557 67.4298 86.5922 67.8104 86.214C68.1837 85.8382 68.4448 85.4088 68.6083 84.8915C68.7132 84.5572 68.7449 84.3376 68.7425 83.9667C68.7327 83.1127 68.4058 82.3539 67.7982 81.7756C67.3932 81.3925 66.9418 81.1436 66.4074 81.0119C66.222 80.9655 66.1097 80.9631 64.7092 80.9558C63.8844 80.9509 63.1256 80.9558 63.0256 80.968ZM65.0874 82.7955C65.4363 82.8199 65.773 82.859 65.8364 82.8785C66.078 82.9517 66.3049 83.1396 66.4489 83.3836C66.5318 83.5251 66.6124 83.835 66.6124 84.018C66.6124 84.4523 66.3854 84.8573 66.0463 85.0306C65.8413 85.1355 65.5998 85.1477 63.86 85.1501H62.2667L62.2618 84.5523C62.257 83.9008 62.274 83.7886 62.4082 83.5568C62.5132 83.3738 62.8011 83.1103 63.0158 82.998C63.4892 82.7516 63.9259 82.7077 65.0874 82.7955Z" fill="#455560"/>
<path d="M83.3156 80.958C82.974 80.9971 82.6617 81.0507 82.4518 81.0995C81.3978 81.3557 80.3437 82.0682 79.702 82.9564C79.4018 83.3712 79.1042 84.0422 78.9626 84.6131C78.6454 85.9039 78.8675 87.3899 79.5385 88.4805C80.8488 90.6058 83.9573 91.3719 86.4144 90.1763C86.9488 89.9177 87.3514 89.6273 87.7466 89.2223C88.12 88.8368 88.3542 88.4976 88.5811 88.0169C89.2253 86.6554 89.2204 84.9816 88.5714 83.6249C87.8589 82.1414 86.5022 81.2167 84.6869 80.9775C84.4258 80.9434 83.5401 80.9312 83.3156 80.958ZM84.5844 82.9027C85.1554 83.0467 85.5994 83.2931 86.0216 83.6957C86.4974 84.1544 86.7584 84.6253 86.8926 85.2719C87.0293 85.9381 86.9146 86.6481 86.5681 87.2508C86.1118 88.0487 85.3384 88.6294 84.5332 88.7807C83.2546 89.0222 82.0785 88.5001 81.3734 87.3825C80.6682 86.2675 80.7926 84.8937 81.6857 83.8616C82.1468 83.3321 82.7446 82.9905 83.4474 82.8563C83.7328 82.8027 84.2745 82.8246 84.5844 82.9027Z" fill="#455560"/>
<path d="M35.7662 81.1046L31.7207 81.1119V82.0488V82.9858L32.0989 83.0029C32.3063 83.0126 32.9895 83.0175 33.619 83.0126L34.7585 83.0029L34.7658 86.78L34.7707 90.5547H35.7955H36.8203V86.7849V83.0151H38.3453H39.8703V82.0513C39.8703 81.2924 39.863 81.0899 39.841 81.0924C39.8239 81.0972 37.9891 81.1021 35.7662 81.1046Z" fill="#455560"/>
<path d="M55.0104 81.129C53.7611 81.1973 52.6582 81.6877 51.7871 82.5613C51.099 83.2518 50.6647 84.0594 50.511 84.9305C50.35 85.8577 50.3304 86.3067 50.35 88.5929L50.3695 90.5474L51.1161 90.562C51.526 90.5718 52.0018 90.5791 52.1726 90.5791H52.4825L52.4923 88.083C52.5045 85.3941 52.4996 85.4771 52.6338 85.0647C52.707 84.8427 52.9022 84.4718 53.0437 84.2839C53.3268 83.9081 53.8465 83.4933 54.2735 83.2957C54.7517 83.0785 55.2617 82.9663 55.7619 82.9663C55.9254 82.9663 56.101 82.9736 56.1523 82.9809L56.2426 82.998V86.7751V90.5547H57.304H58.3654V85.8333V81.1119L56.7623 81.1168C55.879 81.1192 55.0909 81.1241 55.0104 81.129Z" fill="#455560"/>
<path d="M70.0576 85.8377L70.0649 90.5664L71.1141 90.5566C71.6924 90.5518 72.1682 90.542 72.1755 90.5371C72.1829 90.5298 72.1902 89.6538 72.1951 88.5876L72.2024 86.6502H72.4635C73.2906 86.6526 74.1105 86.8991 74.6643 87.3114C75.5501 87.9727 75.96 88.8755 75.9649 90.1784L75.9673 90.5493L77.0189 90.5591C77.5948 90.564 78.073 90.564 78.0803 90.5591C78.1072 90.5396 78.1072 89.7929 78.0803 89.5294C77.9315 88.0361 77.1824 86.638 76.0771 85.7913L75.9161 85.6669L76.1967 85.396C76.9579 84.6592 77.4752 83.771 77.7241 82.773C77.8437 82.2997 77.9071 81.6604 77.8729 81.2968L77.8559 81.1114H76.8506H75.8429L75.8282 81.4701C75.8111 81.8654 75.7648 82.1118 75.6403 82.4656C75.1914 83.7295 74.0909 84.6396 72.8221 84.7934C72.7026 84.808 72.5123 84.8202 72.4025 84.8202H72.1999V83.2757C72.1999 82.429 72.1926 81.5945 72.1829 81.4213L72.1682 81.1114H71.1093H70.0527L70.0576 85.8377Z" fill="#455560"/>
<path d="M90.475 81.1337L90.2188 81.1483V81.8608C90.2188 82.2537 90.2212 84.3716 90.2261 86.5652L90.231 90.5546H91.2924H92.3538V87.7925C92.3538 86.0967 92.3635 85.0402 92.3757 85.0524C92.4026 85.0792 93.5176 87.0166 93.9398 87.7632L94.2155 88.2536L94.8987 88.2707C95.2744 88.2805 95.5892 88.278 95.6014 88.2683C95.6112 88.2585 95.9357 87.6998 96.3236 87.0288C97.1874 85.5355 97.4607 85.067 97.4778 85.067C97.4851 85.0646 97.4851 86.2992 97.4826 87.8047L97.4729 90.5472L98.5318 90.5619C99.1126 90.5692 99.5908 90.5741 99.5908 90.5716C99.5932 90.5692 99.6006 88.4391 99.6054 85.838L99.6176 81.1117H98.566H97.5144L97.3826 81.3387C97.3118 81.4607 96.9702 82.056 96.6286 82.6611C96.287 83.2638 95.8771 83.9739 95.721 84.235C95.4038 84.7644 94.9231 85.5208 94.8914 85.5404C94.8792 85.5477 94.8084 85.4403 94.7303 85.3037C94.5278 84.9377 93.7275 83.5444 93.1785 82.6001C92.9174 82.1512 92.6197 81.6315 92.5148 81.446L92.3245 81.1117L91.5266 81.1166C91.0898 81.1191 90.6165 81.1264 90.475 81.1337Z" fill="#455560"/>
</g>
<defs>
<clipPath id="clip0_332_871">
<rect width="122" height="90.524" fill="white" transform="translate(0 0.225586)"/>
</clipPath>
</defs>
</svg>
