<svg width="102" height="102" viewBox="0 0 102 102" fill="none" xmlns="http://www.w3.org/2000/svg">
<circle cx="11.419" cy="26.6964" r="9.66316" fill="#EEC6DE"/>
<circle cx="90.5811" cy="26.6964" r="9.66316" fill="#EEC6DE"/>
<path d="M16.852 10.3174C13.2991 11.2805 10.8263 13.7532 9.82423 17.3582C9.47284 18.6075 9.49887 20.7549 9.87629 22.0954C10.3578 23.8393 11.0866 25.0757 12.4271 26.4162C13.3902 27.3922 13.8066 27.7046 14.7957 28.1861C16.4355 29.019 17.5548 29.2403 19.559 29.1752C21.7454 29.0971 23.216 28.5765 25.1291 27.223C25.3113 27.0929 25.6627 27.2881 27.2114 28.3162C37.2975 35.0447 47.2405 37.4393 57.5218 35.6303C61.257 34.9796 64.6537 33.8343 68.519 31.9342C71.226 30.6068 73.1521 29.4875 75.1823 28.082C75.8461 27.6265 76.4577 27.21 76.5618 27.171C76.666 27.1319 77.0434 27.3011 77.3948 27.5484C78.2928 28.1861 78.9435 28.4985 80.2579 28.8889C81.195 29.1752 81.6635 29.2273 82.8348 29.2273C84.5917 29.2273 85.8411 28.9149 87.3638 28.134C88.7693 27.4052 90.5653 25.6483 91.2551 24.3208C92.5955 21.744 92.8168 19.037 91.9058 16.4732C91.3852 15.0156 90.7995 14.0785 89.6673 12.9203C88.5611 11.801 87.3507 11.0332 85.8281 10.4996C84.865 10.1612 84.6307 10.1352 82.8348 10.1352C81.0388 10.1352 80.8045 10.1612 79.8415 10.4996C76.9002 11.5277 74.7268 13.7011 73.6987 16.6424C73.3603 17.6054 73.3343 17.8397 73.3343 19.6357C73.3343 21.4967 73.3473 21.6399 73.7377 22.694C73.959 23.3057 74.1802 23.8914 74.2323 23.9955C74.4015 24.3859 69.0005 27.5094 65.5907 29.006C60.2288 31.3486 54.2162 32.4678 49.0235 32.0904C42.1259 31.5829 35.6968 29.2793 28.8642 24.8674L27.745 24.1386L28.1094 23.1886C28.63 21.8611 28.7992 20.6898 28.7341 19.063C28.5519 15.1587 25.9881 11.814 22.1879 10.5126C20.7823 10.0311 18.2445 9.93998 16.852 10.3174Z" fill="#59009A"/>
<path d="M7.41769 68.8297C5.40046 69.3894 3.48735 70.925 2.62841 72.708C1.23587 75.5582 1.78247 78.8768 4.03396 81.1283C6.3375 83.4318 9.70822 83.9394 12.5974 82.4297L13.5344 81.9482V82.5078V83.0805H15.0311H16.5277V79.007C16.5277 74.491 16.4497 73.8663 15.7078 72.4998C14.8749 70.925 13.3262 69.6236 11.5563 69.0119C10.4891 68.6345 8.45884 68.5564 7.41769 68.8297ZM11.0487 71.8361C12.9618 72.695 14.068 74.8033 13.6646 76.7945C13.3652 78.2651 12.4542 79.4364 11.0877 80.1002C10.5802 80.3605 10.2678 80.4125 9.2397 80.4125C8.17252 80.4125 7.89922 80.3605 7.28755 80.0741C6.37654 79.6447 5.51759 78.7857 5.08812 77.8747C4.8018 77.263 4.74975 76.9897 4.74975 75.9226C4.74975 74.8944 4.8018 74.5821 5.06209 74.0745C5.6998 72.7731 6.96219 71.771 8.31568 71.4847C9.08353 71.3155 10.2678 71.4717 11.0487 71.8361Z" fill="#6416A0"/>
<path d="M54.4394 68.8813C51.8886 69.6101 49.9234 71.5883 49.2597 74.1C49.0124 75.0371 49.0124 76.8461 49.2597 77.7961C50.483 82.4683 55.9881 84.7718 60.0356 82.2861C60.3869 82.0778 60.6863 81.9086 60.7253 81.9086C60.7513 81.9086 60.7774 82.1689 60.7774 82.4943V83.0799H62.209H63.6405V78.7461C63.6405 74.5295 63.6275 74.3994 63.3282 73.5404C62.5083 71.2369 60.5301 69.4539 58.1094 68.8292C57.0943 68.5689 55.4545 68.5949 54.4394 68.8813ZM57.9142 71.6924C60.4 72.5513 61.6103 75.5446 60.439 77.9132C59.9705 78.9023 58.9293 79.8524 57.9402 80.2168C56.9902 80.5812 55.4415 80.5421 54.5045 80.1127C53.5935 79.7092 52.6694 78.7852 52.253 77.8612C51.5762 76.3255 51.6803 74.8158 52.5913 73.4623C53.7626 71.7054 55.897 70.9896 57.9142 71.6924Z" fill="#6416A0"/>
<path d="M80.9352 68.9334C78.5015 69.7664 76.7185 71.7315 76.1199 74.2303C75.8726 75.2844 75.9377 77.1195 76.25 78.1346C77.2001 81.193 79.868 83.2232 82.9654 83.2492C85.0477 83.2753 86.7005 82.6376 88.1972 81.206L89.0692 80.3731L87.9369 79.6443L86.8047 78.9024L86.206 79.423C84.5922 80.8416 82.0024 80.8936 80.2324 79.5401C79.5296 79.0066 78.8789 78.0695 78.7748 77.4448L78.6967 76.9633H84.397H90.0973L90.0192 75.6879C89.9411 74.3084 89.5767 72.9419 89.0431 72.0178C88.2102 70.5472 86.5183 69.2458 84.9176 68.8423C83.7593 68.53 81.9894 68.5821 80.9352 68.9334ZM84.3319 71.5103C85.4251 71.7836 86.5314 72.8378 86.9088 73.957C86.9999 74.2043 87.0649 74.4255 87.0649 74.4385C87.0649 74.4645 85.2169 74.4906 82.9654 74.4906C79.7769 74.4906 78.8659 74.4515 78.8659 74.3214C78.8789 73.957 79.3995 73.046 79.868 72.5775C80.9872 71.4582 82.614 71.0678 84.3319 71.5103Z" fill="#6416A0"/>
<path d="M17.9837 73.5406C18.0488 78.6031 18.0878 78.9285 18.7385 80.2169C19.6235 81.9478 22.1613 83.0801 25.1286 83.0801H26.2869V81.7266V80.3861L24.8162 80.321C23.5278 80.269 23.2415 80.2169 22.5908 79.9046C21.7058 79.4751 21.2893 78.9675 21.003 77.9394C20.8208 77.2887 20.7818 76.4818 20.7688 72.994L20.7558 68.8294L19.3502 68.7903L17.9316 68.7513L17.9837 73.5406Z" fill="#6416A0"/>
<path d="M28.1094 75.9092V83.0801H29.541H30.9725V77.3407V71.5884L31.9226 71.6535C33.5884 71.7576 35.1762 72.7597 35.8399 74.1392L36.1783 74.816L36.1913 78.9415L36.2043 83.0801H37.6489H39.1065V78.8114C39.1065 74.6207 39.1065 74.5427 39.4058 73.944C40.0435 72.6426 41.5272 71.7836 43.3101 71.6535L44.2472 71.5884V77.3407V83.0801H45.6788H47.1103V75.9222V68.7643H45.1972C41.6053 68.7643 40.0696 69.2849 38.2996 71.0678L37.6229 71.7576L36.9721 71.0678C36.2043 70.2479 34.994 69.5061 33.8357 69.1287C33.1459 68.9074 32.5603 68.8424 30.5561 68.7903L28.1094 68.7383V75.9092Z" fill="#6416A0"/>
<path d="M65.8893 73.4755C65.9413 78.5641 66.0064 79.1107 66.6962 80.295C67.7113 82.0259 70.0799 83.0801 73.0081 83.0801H74.1794V81.7266V80.3861L72.7218 80.321C71.043 80.256 70.3532 80.0217 69.6114 79.2799C68.9737 78.6552 68.8305 78.0696 68.7524 75.9482L68.6744 74.1002H71.3683H74.0493V72.6686V71.237H71.3813H68.7134V70.0007V68.7643H67.2688H65.8242L65.8893 73.4755Z" fill="#6416A0"/>
<path d="M91.8809 73.1241C91.8809 77.8874 91.985 78.8764 92.6097 80.1128C93.5467 81.9608 95.9674 83.0801 99.0518 83.0801H100.21V81.7136V80.3471H98.9997C96.9695 80.3471 95.629 79.7354 95.1214 78.5771C94.757 77.7572 94.6009 75.5968 94.6399 71.9398L94.6789 68.8294L93.2864 68.7903L91.8809 68.7513V73.1241Z" fill="#6416A0"/>
<path d="M45.0914 88.494C44.9743 88.6762 44.3886 89.0537 43.7769 89.353C42.1241 90.1599 41.6426 90.8627 41.6426 92.3853C41.6556 93.9861 42.8399 95.0793 44.3365 94.8711C45.5859 94.7019 46.2627 93.934 46.2627 92.6847C46.2627 91.8908 46.0414 91.4613 45.3907 90.9798C44.8571 90.5894 43.855 90.5373 43.2043 90.8757C42.918 91.0188 42.6837 91.0839 42.6837 91.0188C42.6837 90.8106 43.4906 90.29 44.4407 89.8605C45.69 89.3009 46.1325 88.6893 45.5599 88.3249C45.3517 88.1947 45.2736 88.2207 45.0914 88.494ZM44.9222 91.5915C45.0523 91.6695 45.2476 91.9298 45.3647 92.1771C45.8332 93.1662 45.0263 94.2204 43.868 94.1032C42.2673 93.934 41.994 91.8648 43.5166 91.4223C43.9591 91.2921 44.5578 91.3572 44.9222 91.5915Z" fill="#6416A0"/>
<path d="M59.3438 89.1317C59.3438 89.457 59.3438 89.457 60.5801 89.457C61.8165 89.457 61.8165 89.457 61.8165 89.1317C61.8165 88.8063 61.8165 88.8063 60.5801 88.8063C59.3438 88.8063 59.3438 88.8063 59.3438 89.1317Z" fill="#6416A0"/>
<path d="M9.79979 90.1081C9.29223 90.2252 8.7196 90.5766 8.70658 90.7978C8.69357 90.8759 8.65453 90.7718 8.60247 90.5636C8.5374 90.2642 8.4463 90.1601 8.15998 90.1341L7.80859 90.095V93.3486V96.6152H8.19902H8.58946V95.3659V94.1165L8.97989 94.4549C10.3724 95.6131 12.6109 94.4418 12.6239 92.5548C12.6239 91.7999 12.4547 91.3184 11.9992 90.8499C11.3875 90.1992 10.5937 89.9259 9.79979 90.1081ZM11.1663 91.1232C12.1554 91.7609 12.0122 93.3877 10.919 93.9603C9.89089 94.4809 8.58946 93.7 8.58946 92.5417C8.58946 91.1492 10.008 90.3683 11.1663 91.1232Z" fill="#6416A0"/>
<path d="M25.7947 90.134C25.4954 90.186 25.0659 90.3422 24.8707 90.4984C23.8946 91.1881 23.6473 92.9711 24.3892 93.9472C25.2481 95.0664 27.0311 95.2486 28.0072 94.3116C28.4496 93.8821 28.4496 93.8301 28.0592 93.6479C27.8119 93.5437 27.7078 93.5568 27.4736 93.791C27.2523 94.0253 27.0441 94.0773 26.4064 94.0773C25.6646 94.0773 25.5995 94.0513 25.17 93.5958C24.9227 93.3225 24.7275 93.0492 24.7275 92.9711C24.7275 92.893 25.4433 92.841 26.6797 92.841H28.6318V92.3594C28.6318 92.0992 28.5147 91.6306 28.3585 91.3183C27.89 90.3552 26.966 89.9258 25.7947 90.134ZM27.3434 91.2402C27.5386 91.4354 27.7338 91.7348 27.7859 91.8909C27.864 92.1903 27.864 92.1903 26.3673 92.1903C25.5474 92.1903 24.8447 92.1382 24.8056 92.0861C24.7666 92.0211 24.8577 91.7868 25.0008 91.5526C25.5084 90.7066 26.6797 90.5504 27.3434 91.2402Z" fill="#6416A0"/>
<path d="M37.8961 90.1338C37.2193 90.277 36.3734 91.0579 36.2433 91.6565C36.1652 92.0079 36.1001 92.06 35.7097 92.06H35.2672V91.0839V90.1078H34.8768H34.4863V92.4504V94.793H34.8768H35.2672V93.8169V92.8408H35.7097C36.0871 92.8408 36.1522 92.8929 36.2172 93.2182C36.3214 93.7388 36.92 94.4025 37.5447 94.6758C39.3797 95.5088 41.3709 93.8299 40.8503 91.8778C40.499 90.5373 39.3016 89.8345 37.8961 90.1338ZM39.64 91.3312C40.0304 91.7216 40.0825 91.8517 40.0825 92.4374C40.0825 93.01 40.0174 93.1662 39.653 93.5696C38.8722 94.4286 37.5837 94.2464 37.0502 93.1922C36.7118 92.5415 36.8419 91.8908 37.4146 91.3181C37.792 90.9407 37.9221 90.8887 38.5208 90.8887C39.1194 90.8887 39.2496 90.9407 39.64 91.3312Z" fill="#6416A0"/>
<path d="M71.7074 90.1084C71.4601 90.1474 71.1218 90.2645 70.9656 90.3426C70.6142 90.5378 70.0806 91.2276 69.9505 91.6441C69.7943 92.1516 69.8594 93.1928 70.0546 93.5832C70.6402 94.7024 72.0718 95.21 73.2431 94.7285C73.7116 94.5202 74.3103 94.0517 74.3103 93.8825C74.3103 93.7134 73.6075 93.4661 73.5555 93.6092C73.3993 94.0908 72.1109 94.286 71.4471 93.9476C71.1218 93.7784 70.6663 93.1667 70.6663 92.9065C70.6663 92.8674 71.5512 92.8414 72.6184 92.8414C74.5576 92.8414 74.5706 92.8414 74.5706 92.5421C74.5706 90.9803 73.2171 89.8221 71.7074 90.1084ZM72.8006 90.9413C73.2691 91.1365 73.6596 91.592 73.6596 91.9564C73.6596 92.1646 73.5164 92.1907 72.1629 92.1907C70.5231 92.1907 70.432 92.1386 70.9526 91.4749C71.2129 91.1365 71.8506 90.7721 72.202 90.7591C72.2931 90.7591 72.5664 90.8372 72.8006 90.9413Z" fill="#6416A0"/>
<path d="M81.936 90.1206C80.8297 90.3809 80.166 91.2528 80.166 92.4241C80.166 93.5694 80.5695 94.2331 81.5325 94.6756C82.4435 95.0921 83.5758 94.9229 84.2916 94.2461C84.669 93.8948 84.669 93.8297 84.3046 93.6605C84.0833 93.5564 83.9272 93.5954 83.5758 93.8427C82.7559 94.3893 81.5586 94.155 81.1421 93.3612C81.038 93.1529 80.9469 92.9577 80.9469 92.9057C80.9469 92.8666 81.8319 92.8406 82.899 92.8406H84.8512V92.4632C84.8512 91.5131 84.0183 90.3288 83.2374 90.1726C83.0162 90.1206 82.7429 90.0685 82.6387 90.0425C82.5346 90.0295 82.2093 90.0555 81.936 90.1206ZM83.0812 90.9405C83.5497 91.1357 83.9402 91.5912 83.9402 91.9556C83.9402 92.1638 83.797 92.1899 82.4435 92.1899C80.8037 92.1899 80.7126 92.1378 81.2332 91.4741C81.4935 91.1357 82.1312 90.7713 82.4826 90.7583C82.5737 90.7583 82.847 90.8364 83.0812 90.9405Z" fill="#6416A0"/>
<path d="M91.6859 90.1079C90.5146 90.3812 89.7988 91.2532 89.7988 92.4375C89.7988 93.2834 90.0331 93.8561 90.5537 94.2986C91.1133 94.7671 91.79 94.9753 92.5058 94.8712C94.6141 94.5849 95.3429 91.969 93.7031 90.5764C93.1695 90.134 92.3627 89.9387 91.6859 90.1079ZM93.2606 91.3183C94.4319 92.3854 93.5339 94.2855 91.9462 94.0903C91.2044 93.9992 90.5797 93.3095 90.5797 92.5807C90.5797 91.5135 91.1653 90.8888 92.1674 90.8888C92.688 90.8888 92.8702 90.9539 93.2606 91.3183Z" fill="#6416A0"/>
<path d="M2.83543 91.6959C2.77036 93.4789 2.61419 94.0125 2.11964 94.0125C1.83333 94.0125 1.82031 94.0515 1.82031 94.9756C1.82031 95.8866 1.83333 95.9386 2.14567 95.9907C2.56213 96.0818 2.60117 96.0297 2.60117 95.353V94.7934H4.35811H6.11505V95.418C6.11505 96.0297 6.12806 96.0557 6.47945 96.0297C6.83084 96.0167 6.83084 96.0037 6.86988 95.0146C6.90893 94.0125 6.90893 94.0125 6.57055 94.0125H6.24519V92.0603V90.1082H4.56634H2.88749L2.83543 91.6959ZM5.46433 92.4508V94.0125H4.41017C3.36902 94.0125 3.35601 94.0125 3.44711 93.7132C3.49916 93.557 3.56424 92.8542 3.60328 92.1514L3.66835 90.8891H4.56634H5.46433V92.4508Z" fill="#6416A0"/>
<path d="M12.9219 90.2642C12.9609 90.3553 13.4034 91.3835 13.911 92.5548C14.4185 93.726 14.835 94.7542 14.835 94.8583C14.835 95.1446 14.1973 95.8083 13.885 95.8604C13.6767 95.8864 13.5856 96.0036 13.5596 96.2508C13.5206 96.5632 13.5596 96.6152 13.8719 96.6152C14.3014 96.6152 15.0042 96.1988 15.2775 95.7693C15.5118 95.4179 17.4379 90.4725 17.4379 90.2382C17.4379 90.0039 16.6961 90.095 16.5919 90.3293C16.5399 90.4594 16.2666 91.2013 15.9933 91.9951C15.707 92.776 15.4207 93.4788 15.3686 93.5308C15.3035 93.5959 14.9782 93.0103 14.6528 92.2294C13.7028 90.056 13.7808 90.1731 13.2863 90.1341C12.9609 90.095 12.8698 90.1341 12.9219 90.2642Z" fill="#6416A0"/>
<path d="M17.8279 90.1989C17.8279 90.2379 18.1663 90.6934 18.5828 91.201C18.9992 91.7086 19.3896 92.2031 19.4417 92.2942C19.4938 92.3853 19.2335 92.8278 18.7259 93.4655C18.2834 94.0121 17.854 94.5457 17.7889 94.6238C17.6978 94.7539 17.7759 94.793 18.1273 94.793C18.5567 94.793 18.6608 94.7149 19.4157 93.7388L20.2356 92.6846L20.2746 93.7388L20.3137 94.793H20.6911H21.0685L21.1075 93.7128L21.1466 92.6456L21.9795 93.7128C22.7343 94.6889 22.8645 94.793 23.2549 94.793C23.4892 94.793 23.6844 94.7539 23.6844 94.7149C23.6844 94.6628 23.2679 94.1423 22.7604 93.5306L21.8363 92.4374L22.1747 92.0209C22.3439 91.7867 22.7734 91.2661 23.0987 90.8496L23.7104 90.1078H23.2549C22.8385 90.1078 22.7213 90.1989 22.0316 91.0709C21.6151 91.6045 21.2377 92.0469 21.1856 92.0469C21.1206 92.06 21.0815 91.6175 21.0815 91.0839V90.1078H20.6911H20.3137L20.2746 91.0969L20.2356 92.099L19.4157 91.0969C18.7389 90.264 18.5437 90.1078 18.2184 90.1078C17.9971 90.1078 17.8279 90.1468 17.8279 90.1989Z" fill="#6416A0"/>
<path d="M29.7997 91.7736C29.7997 93.5436 29.6695 94.0121 29.1359 94.0121C28.9537 94.0121 28.8887 94.1032 28.8887 94.4025C28.8887 94.7539 28.9277 94.793 29.2791 94.793C29.5264 94.793 29.8257 94.6498 30.086 94.4156L30.5155 94.0381L30.5805 92.4894L30.6456 90.9537L31.5306 90.9147L32.4025 90.8756V92.8408V94.793H32.793H33.1704L33.2094 92.7367C33.2615 89.7955 33.4697 90.1078 31.4785 90.1078H29.7997V91.7736Z" fill="#6416A0"/>
<path d="M47.2005 90.1989C47.1484 90.2379 47.1094 91.2921 47.1094 92.5415V94.793H47.4998H47.8772L47.9163 93.8429L47.9553 92.9059L49.1656 92.8668L50.363 92.8278V93.8169V94.793H50.7534H51.1438V92.4504V90.1078H50.7534H50.363V91.0839V92.06H49.1266H47.8902V91.0839C47.8902 90.1468 47.8772 90.1078 47.5909 90.1078C47.4217 90.1078 47.2395 90.1468 47.2005 90.1989Z" fill="#6416A0"/>
<path d="M52.4326 90.1596C52.3936 90.1987 52.3805 91.2398 52.3936 92.4762L52.4326 94.7277L53.5388 94.7667C54.9053 94.8058 55.478 94.6105 55.7773 93.9728C56.0636 93.3742 55.9335 92.7365 55.4389 92.2549C55.1266 91.9556 54.9314 91.8905 54.1505 91.8255L53.2395 91.7604L53.2004 90.9665C53.1614 90.2247 53.1354 90.1727 52.836 90.1336C52.6538 90.1076 52.4716 90.1206 52.4326 90.1596ZM54.9183 92.8406C55.2307 93.1529 55.2437 93.3351 54.9704 93.7256C54.8012 93.9728 54.6581 94.0119 53.9943 94.0119H53.2265V93.2961V92.5803H53.9423C54.4889 92.5803 54.7231 92.6454 54.9183 92.8406Z" fill="#6416A0"/>
<path d="M56.5318 90.2776C56.4927 90.3818 56.4797 91.4229 56.5057 92.5942L56.5448 94.7286L56.9742 94.7676L57.3907 94.8066L57.3647 92.4901L57.3256 90.1735L56.9612 90.1345C56.74 90.1085 56.5838 90.1605 56.5318 90.2776Z" fill="#6416A0"/>
<path d="M58.5625 92.4504V94.793L58.9269 94.78C59.2132 94.78 59.4605 94.5457 60.3845 93.3484C60.9832 92.5675 61.5558 91.8517 61.6469 91.7736C61.7901 91.6695 61.8161 91.9428 61.8161 93.2182V94.793H62.2065H62.597V92.4504V90.1078H62.2846C62.0243 90.1078 61.712 90.4332 60.7489 91.6695C60.0852 92.5155 59.4995 93.2182 59.4475 93.2312C59.3824 93.2312 59.3434 92.5285 59.3434 91.6695V90.1078H58.9529H58.5625V92.4504Z" fill="#6416A0"/>
<path d="M65.5918 90.4982V90.8887H66.3727H67.1535V92.8408V94.793H67.544H67.9214L67.9604 92.8668L67.9995 90.9537L68.7543 90.8887C69.1577 90.8496 69.4961 90.7845 69.4961 90.7195C69.4961 90.6674 69.4961 90.5112 69.4961 90.3681C69.4961 90.1208 69.405 90.1078 67.544 90.1078H65.5918V90.4982Z" fill="#6416A0"/>
<path d="M75.743 91.6956C75.743 93.4265 75.6129 93.921 75.1183 93.9861C74.8971 94.0251 74.832 94.1162 74.832 94.4156C74.832 94.7409 74.8841 94.793 75.2094 94.793C75.717 94.793 76.2246 94.3505 76.3938 93.7778C76.4588 93.5176 76.5239 92.7497 76.5239 92.086V90.8887H77.4349H78.3459V92.8408V94.793H78.7363H79.1268V92.4504V90.1078H77.4349H75.743V91.6956Z" fill="#6416A0"/>
<path d="M85.7637 92.4504V94.793H86.1541H86.5445V93.7518C86.5445 93.1792 86.5706 92.7107 86.5966 92.7107C86.6226 92.7107 87.1042 93.1792 87.6638 93.7518C88.6008 94.7149 88.7049 94.793 89.1995 94.793H89.7331L88.5618 93.6217L87.4035 92.4504L88.1063 91.7086C88.4967 91.3051 88.9782 90.8366 89.1864 90.6544C89.655 90.2379 89.6289 90.1078 89.0693 90.1078C88.6529 90.1078 88.4967 90.2119 87.6768 91.0839C87.1822 91.6175 86.7137 92.06 86.6617 92.06C86.5966 92.06 86.5445 91.6175 86.5445 91.0839V90.1078H86.1541H85.7637V92.4504Z" fill="#6416A0"/>
<path d="M95.6145 90.1989C95.5625 90.2379 95.5234 91.2921 95.5234 92.5415V94.793H95.9139H96.3043V93.1532C96.3043 92.2552 96.3564 91.5524 96.4084 91.5914C96.4735 91.6305 96.8119 92.125 97.1502 92.7107C97.5016 93.2833 97.827 93.7518 97.879 93.7518C97.9311 93.7518 98.2825 93.2443 98.6729 92.6196L99.3627 91.4873L99.4017 93.1401L99.4408 94.793H99.8182H100.209V92.4504V90.1078H99.7921C99.3887 90.1078 99.3106 90.1859 98.6469 91.2791C98.2565 91.9168 97.9051 92.4504 97.866 92.4504C97.827 92.4504 97.4886 91.9168 97.0982 91.2791C96.4995 90.264 96.3564 90.1078 96.057 90.1078C95.8618 90.1078 95.6536 90.1468 95.6145 90.1989Z" fill="#6416A0"/>
</svg>
