<svg width="103" height="101" viewBox="0 0 103 101" fill="none" xmlns="http://www.w3.org/2000/svg">
<path fill-rule="evenodd" clip-rule="evenodd" d="M51.4531 99.4351C78.8314 99.7977 101.405 77.9495 101.858 50.4805C101.405 23.1022 78.922 1.16331 51.4531 1.52593C24.0748 1.16331 1.5013 23.0116 1.13867 50.4805C1.59195 77.9495 24.0748 99.7977 51.4531 99.4351Z" fill="url(#paint0_radial_332_961)"/>
<path fill-rule="evenodd" clip-rule="evenodd" d="M73.1208 87.0155C55.9868 96.6251 37.4928 98.3476 25.6168 92.5456C41.391 101.611 60.7009 101.793 76.5658 92.9082C92.2494 84.2958 101.95 67.7057 101.768 49.8463C101.043 62.6289 90.2549 77.4059 73.1208 87.0155ZM79.2855 11.4986C78.2883 9.86678 76.8378 8.41627 75.206 7.32839C81.4613 10.5014 86.9913 15.0342 91.3428 20.5643C92.0681 21.4708 92.7933 22.468 93.5186 23.4653C95.3317 26.5476 96.1476 30.0832 95.9663 33.7095C95.513 46.764 83.637 62.5383 64.8711 73.0544C46.1052 83.5706 26.1607 85.6557 14.2847 79.4911C11.0211 77.8592 8.30139 75.3208 6.3976 72.2385L6.30694 72.1479C5.85366 71.1506 5.40037 70.2441 4.94709 69.2468C2.13673 62.8102 0.867542 55.8297 1.13951 48.8491C1.23017 50.8436 1.77411 52.7474 2.77133 54.4698C8.84532 64.6234 30.8749 63.3542 51.9072 51.4782C73.1208 39.5115 85.3595 21.6521 79.2855 11.4986ZM57.8905 5.15263C57.7092 4.88066 57.5279 4.60869 57.2559 4.42738C54.3549 2.07031 50.638 1.16374 47.0117 1.79834C46.2865 1.889 45.5612 1.889 44.836 2.07031C38.3087 2.88622 32.0534 4.97132 26.2514 8.23496C20.54 11.4079 15.5539 15.6688 11.4744 20.7456C11.0211 21.2895 10.6585 21.9241 10.2052 22.468C7.8481 25.1877 6.76022 28.814 7.48547 32.4403C7.57613 32.7122 7.66679 33.0749 7.8481 33.3468C11.2931 39.1489 25.3448 37.6077 39.1246 29.9019C52.9951 22.0148 61.3355 11.0453 57.8905 5.15263Z" fill="url(#paint1_radial_332_961)"/>
<defs>
<radialGradient id="paint0_radial_332_961" cx="0" cy="0" r="1" gradientUnits="userSpaceOnUse" gradientTransform="translate(51.4915 50.5228) scale(50.3578 48.9176)">
<stop stop-color="#FEC700"/>
<stop offset="1" stop-color="#FFDB51"/>
</radialGradient>
<radialGradient id="paint1_radial_332_961" cx="0" cy="0" r="1" gradientUnits="userSpaceOnUse" gradientTransform="translate(51.4881 50.5217) scale(50.3637 48.9334)">
<stop stop-color="#050007"/>
<stop offset="0.48" stop-color="#050007"/>
<stop offset="1" stop-color="#50504F"/>
</radialGradient>
</defs>
</svg>
