<svg width="101" height="101" viewBox="0 0 101 101" fill="none" xmlns="http://www.w3.org/2000/svg">
<path fill-rule="evenodd" clip-rule="evenodd" d="M19.289 56.014L35.2506 55.9161C35.2506 55.9161 37.4977 55.8912 37.9925 53.9579C38.493 52.0015 37.5029 50.9219 37.5029 50.9219L22.1289 24.7766C22.1289 24.7766 21.0309 23.3985 19.5829 23.4057C18.1904 23.4126 17.1348 24.6787 17.1348 24.6787L1.7609 50.9219C1.7609 50.9219 0.552638 52.7023 1.46713 54.2516C2.43943 55.8985 4.20899 55.9161 4.20899 55.9161L19.289 56.014ZM35.6423 35.4502L47.1971 55.3286C47.1971 55.3286 47.8528 56.1407 48.6662 56.3077C49.4795 56.4748 56.9072 57.8588 63.4524 51.7056C66.1861 49.1355 72.1946 41.0948 66.7817 30.7498C65.5197 28.3371 61.0734 21.5672 51.7017 21.3492C48.5558 21.2762 41.9238 22.0174 36.7192 29.281C33.8629 33.2679 35.6423 35.4502 35.6423 35.4502ZM72.2655 55.9161H96.1589C96.1589 55.9161 97.8903 56.0187 98.9987 54.5454C99.9447 53.2876 99.7819 52.1951 99.7819 52.1951L99.8799 25.6579C99.8799 25.6579 99.9756 24.2564 98.9008 23.2099C97.5726 21.917 96.6485 22.0347 96.6485 22.0347L71.7759 21.9368C71.7759 21.9368 70.6349 22.1757 70.4052 23.014C70.1755 23.8523 70.2072 24.7091 71.2864 26.0496C72.3655 27.3901 75.3199 32.867 75.1052 39.4651C74.9824 47.4663 70.8595 52.4116 70.601 53.0763C69.5404 55.8031 72.2655 55.9161 72.2655 55.9161Z" fill="#FF312C"/>
<path fill-rule="evenodd" clip-rule="evenodd" d="M4.95613 78.6472H1.125V71.581H3.25339L7.33994 61.1091H13.3846L17.4711 71.581H19.5143V78.6472H15.6832V75.4119H4.95626V78.6472H4.95613ZM10.1494 64.77H10.7453L13.2995 71.581H7.68047L10.1494 64.77ZM28.2833 60.6836C29.7819 60.6836 31.2468 61.128 32.4928 61.9606C33.7388 62.7932 34.7099 63.9765 35.2834 65.361C35.8568 66.7455 36.0069 68.269 35.7145 69.7387C35.4222 71.2085 34.7005 72.5586 33.6409 73.6182C32.5813 74.6779 31.2312 75.3995 29.7614 75.6919C28.2917 75.9842 26.7682 75.8342 25.3837 75.2607C23.9992 74.6873 22.8159 73.7162 21.9833 72.4702C21.1507 71.2242 20.7063 69.7593 20.7062 68.2607C20.7062 66.2512 21.5045 64.3239 22.9255 62.9029C24.3465 61.4819 26.2738 60.6836 28.2833 60.6836ZM28.3259 64.6849C30.2302 64.6849 31.7739 66.3047 31.7739 68.3032C31.7739 70.3018 30.2302 71.9216 28.3259 71.9216C26.4216 71.9216 24.8779 70.3013 24.8779 68.3032C24.8779 66.3052 26.4216 64.6849 28.3259 64.6849ZM38.4996 61.1942V75.4119H42.416V67.5797H43.012L46.3322 72.4321H48.2054L51.6107 67.5797H52.1213V75.4119H56.0376V61.1942H51.4401L47.5242 66.8132H47.0982L43.2674 61.1942H38.4996ZM61.529 70.5599C62.9624 70.5599 64.1244 71.7412 64.1244 73.1982C64.1244 74.6553 62.9624 75.837 61.529 75.837C60.0956 75.837 58.9331 74.6557 58.9331 73.1982C58.9331 71.7408 60.0951 70.5599 61.529 70.5599ZM67.02 61.1942H70.7663V62.6418H70.9363C70.9363 62.6418 71.7428 60.8369 75.1081 60.8536C78.4735 60.8704 81.7161 62.9673 81.6637 68.1753C81.6435 70.1717 81.4619 75.3033 75.2782 75.7524C72.6132 75.9461 71.1068 74.0498 71.1068 74.0498H70.9363V79.7538H67.02V61.1942ZM74.2566 64.4294C76.1847 64.4294 77.7474 66.1445 77.7474 68.2607C77.7474 70.3769 76.1847 72.0916 74.2566 72.0916C72.3285 72.0916 70.7663 70.3765 70.7663 68.2607C70.7663 66.145 72.3289 64.4294 74.2566 64.4294ZM83.0258 61.1942H87.5378L91.284 70.7295H91.7946L95.5409 61.1942H99.8828L93.4973 76.093C93.4973 76.093 92.4319 77.8914 91.4541 78.5621C90.7799 79.0246 89.3263 79.7581 88.2188 79.7538C87.3952 79.7508 84.558 79.7538 84.558 79.7538V75.8375H89.0704C89.0704 75.8375 89.3929 75.4939 89.3259 75.4119C89.2198 75.2822 88.3412 73.7616 88.0488 73.0282C87.7563 72.2947 83.0258 61.1942 83.0258 61.1942Z" fill="#FF312C"/>
</svg>
