<svg id="Группа_1" data-name="Группа 1" xmlns="http://www.w3.org/2000/svg" width="299.921" height="299.921" viewBox="0 0 3735 3735">
  <defs>
    <style>
      .cls-1, .cls-2, .cls-3 {
        fill-rule: evenodd;
      }

      .cls-2 {
        fill: #626262;
      }

      .cls-3 {
        fill: #e4dcdc;
      }
    </style>
  </defs>
  <path id="Ростелеком" class="cls-1" d="M220.1,3419.17L219,3315l77.473-.37q50.907,0,87.75-16.52,36.828-16.53,56.875-47.4t20.041-73.12q0-42.8-20.041-73.67t-56.875-47.4q-36.843-16.515-87.75-16.52H132.348v379.17H220.1ZM220,3109l71.6,2.5q40.624,0,60.666,17.34t20.042,48.75q0,30.87-20.042,48.2T291.6,3243.13L220,3244V3109Zm516.848,295q36.282-19.5,56.875-53.35t20.583-77.19q0-44.415-20.583-78t-56.875-52.81q-36.3-19.23-82.334-19.23-46.592,0-82.6,19.23a146.448,146.448,0,0,0-56.875,53.08q-20.857,33.855-20.854,77.73,0,43.335,20.854,77.19T571.91,3404q36.017,19.5,82.6,19.5Q700.547,3423.5,736.848,3404ZM616.6,3344.42a71.162,71.162,0,0,1-26.813-27.9q-10.029-18.135-10.021-43.06,0-25.455,10.021-43.33A71.706,71.706,0,0,1,616.6,3202.5q16.782-9.75,37.916-9.75t37.917,9.75a69.892,69.892,0,0,1,26.542,27.63q9.75,17.865,9.75,43.33,0,24.915-9.75,43.06a69.392,69.392,0,0,1-26.542,27.9q-16.8,9.75-37.917,9.75T616.6,3344.42Zm474.5,59.85a117.654,117.654,0,0,0,50.37-54.43l-65.54-35.75q-11.37,21.12-28.44,30.6a75.141,75.141,0,0,1-37.1,9.48q-21.672,0-39-9.75a70.545,70.545,0,0,1-27.354-27.63q-10.029-17.865-10.021-43.33t10.021-43.33a70.545,70.545,0,0,1,27.354-27.63q17.329-9.75,39-9.75a73.511,73.511,0,0,1,37.1,9.75q17.07,9.75,28.44,30.34l65.54-35.21a117.211,117.211,0,0,0-50.37-54.98q-34.125-19.23-80.17-19.23-47.124,0-83.957,19.23t-57.688,53.08q-20.857,33.855-20.854,77.73,0,43.335,20.854,77.46t57.688,53.35q36.828,19.23,83.957,19.23Q1056.965,3423.5,1091.1,3404.27Zm248.08,14.9L1340,3197l97.76,0.09v-69.34H1156.64v69.34L1255,3197l0.22,222.17h83.96Zm355.88-7.86q30.33-12.18,50.37-34.93l-44.96-48.75a99.575,99.575,0,0,1-32.23,21.12q-17.61,7.05-40.89,7.04-26.01,0-45.23-9.48a68.816,68.816,0,0,1-29.79-27.62c-9.43-16.19-18.29-63.98-1.36-95.33a66.232,66.232,0,0,1,25.73-26.55q16.515-9.465,38.19-9.47,21.66,0,37.92,9.47c10.83,6.33,18.2,15.77,25.45,26.28,6.92,10.03,8.74,24.91,8.74,24.91H1542s-3.69,27.41,2,48c5.69-.15,220.39,1.29,220.39,1.29,0.35-3.6.72-7.49,1.08-11.64s0.54-7.86.54-11.11q0-47.115-20.04-80.98a136.05,136.05,0,0,0-54.43-52q-34.41-18.135-77.19-18.14-44.43,0-79.63,19.23a144,144,0,0,0-55.52,53.08q-20.31,33.855-20.31,77.73,0,43.335,20.58,77.19T1537.7,3404q37.65,19.5,87.48,19.5Q1664.72,3423.5,1695.06,3411.31Zm122.41,12.19a138.165,138.165,0,0,0,20.59,1.63q27.075,0,44.41-12.73t27.63-36.29q10.275-23.565,14.89-56.07,4.6-32.49,6.23-71.5L1934,3197h92l0.01,222.17h84.5V3127.75H1861.35l-4.34,117q-1.08,20.6-2.97,39.54a190.233,190.233,0,0,1-6.23,33.86q-4.35,14.895-13,23.56-8.67,8.67-23.84,8.67c-1.81,0-3.79-.09-5.96-0.27s-4.33-.45-6.5-0.82l-4.33,69.34A224.957,224.957,0,0,0,1817.47,3423.5Zm586.63-12.19q30.33-12.18,50.37-34.93l-44.96-48.75a99.534,99.534,0,0,1-32.22,21.12q-17.61,7.05-40.9,7.04-25.995,0-45.23-9.48a68.816,68.816,0,0,1-29.79-27.62q-10.56-18.15-10.56-41.98v-13q0-23.28,9.2-40.35a66.232,66.232,0,0,1,25.73-26.55q16.515-9.465,38.19-9.47t37.92,9.47c10.83,6.33,18.21,15.76,25.46,26.28,6.86,9.98,7.69,24.91,7.69,24.91H2251s-3.41,36.74,1,49c5.64,0,221.43.29,221.43,0.29,0.36-3.6.72-7.49,1.08-11.64s0.55-7.86.55-11.11q0-47.115-20.05-80.98a136.05,136.05,0,0,0-54.43-52q-34.41-18.135-77.19-18.14-44.415,0-79.63,19.23a144.136,144.136,0,0,0-55.52,53.08q-20.31,33.855-20.31,77.73,0,43.335,20.58,77.19t58.23,53.35q37.65,19.5,87.48,19.5Q2373.76,3423.5,2404.1,3411.31Zm702.54-7.31q36.285-19.5,56.87-53.35t20.59-77.19q0-44.415-20.59-78t-56.87-52.81q-36.3-19.23-82.33-19.23-46.605,0-82.61,19.23-36.03,19.23-56.87,53.08-20.865,33.855-20.86,77.73,0,43.335,20.86,77.19,20.835,33.855,56.87,53.35,36.015,19.5,82.61,19.5Q3070.33,3423.5,3106.64,3404Zm-120.25-59.58a71.086,71.086,0,0,1-26.81-27.9q-10.035-18.135-10.02-43.06,0-25.455,10.02-43.33a71.628,71.628,0,0,1,26.81-27.63q16.785-9.75,37.92-9.75t37.91,9.75a69.88,69.88,0,0,1,26.54,27.63q9.75,17.865,9.75,43.33,0,24.915-9.75,43.06a69.381,69.381,0,0,1-26.54,27.9q-16.785,9.75-37.91,9.75T2986.39,3344.42Zm332.04,74.75L3319,3223l84.47,168h35.75L3528,3225l-1.57,194.17h76.38l-1.09-291.42h-79.08L3424,3295l-93.65-167.25h-88.29v291.42h76.37Zm-472.33,0-128.38-178.75-68.79,40.62,97.5,138.13h99.67Zm-221.54,0V3127.75h-84.5v291.42h84.5Zm76.91-110.5v-67.71H2599.64v67.71h101.83Zm137.59-180.92h-89.92L2671,3241l54.85,42.21Zm-239.42,113.21v67.71"/>
  <rect id="Фигура_3" data-name="Фигура 3" x="2540" y="3128" width="84" height="290"/>
  <path id="Фигура_4" data-name="Фигура 4" class="cls-1" d="M2592,3241l107,1,7,66H2593Z"/>
  <path id="Фигура_6" data-name="Фигура 6" class="cls-1" d="M2654,3288l93,131h99l-121-169Z"/>
  <path id="Фигура_1" data-name="Фигура 1" class="cls-2" d="M1858,149c7.43,3.282,12.7,12.281,18,18,3.11,3.355,8.08,5.519,11,9,7.87,9.386,16.36,18.361,25,27l129,129Q2184,475,2327,618c32.17,32.169,63.86,64.8,96,97,17.38,17.416,35.96,33.2,52,52,6.25,7.319,16.12,12.314,22,20,13.61,17.787,31.27,32.268,47,48q39,39.5,78,79,19.995,20,40,40c5.25,5.246,14.32,10.578,17,18-7.7,5.106-13.53,13.531-20,20l-47,47-141,141-445,445-173,173-49,49c-6,6-16.97,12.6-20,21,5.5,3.65,9.4,9.4,14,14l32,32,96,96,303,303,118,118,33,33c4.5,4.5,11.67,8.56,14,15h-1c-3.89-2.39-14.25-1-20-1H1434c-12.33-2.98-22.19-1.23-36-6-21.76-7.51-41.13-19.35-58-32-22.05-16.52-41.29-48.06-51-77-3.48-10.37-4.42-22.38-7-33q-0.495-21.495-1-43V978c0-19.716-3.18-45.267,1-63V890q1.995-26,4-52,3.495-21,7-42c8.63-30.514,16.87-58.611,29-85,30.44-66.218,93.92-118.918,143-168Q1661.485,346.02,1858,149Z"/>
  <path id="Фигура_2" data-name="Фигура 2" class="cls-3" d="M1782,1867c5.79,2.08,9.01,8.01,13,12l30,30,105,105,332,332,94,94c7.94,7.94,34.73,29.93,38,39h-1c-3.52-2.18-12.69-1-18-1H1479c-32.21,0-62.67.83-83-11-36.04-20.97-77.52-74.95-57-138,5.31-16.31,14.61-30.49,24-43q51.99-51.495,104-103,107.49-107.985,215-216l68-68C1760.21,1888.79,1773.97,1879.1,1782,1867Z"/>
</svg>
