<svg width="100" height="100" viewBox="0 0 100 100" fill="none" xmlns="http://www.w3.org/2000/svg">
<path fill-rule="evenodd" clip-rule="evenodd" d="M84.4558 77.2825C81.0087 77.2825 78.2094 74.4831 78.2094 71.036C78.2094 67.5889 81.0087 64.7896 84.4558 64.7896C87.9029 64.7896 90.7023 67.5889 90.7023 71.036C90.7023 74.4831 87.9029 77.2825 84.4558 77.2825ZM69.8114 77.2825C66.3643 77.2825 63.5649 74.4831 63.5649 71.036C63.5649 67.5889 66.3643 64.7896 69.8114 64.7896C73.2585 64.7896 76.0578 67.5889 76.0578 71.036C76.0578 74.4831 73.2585 77.2825 69.8114 77.2825ZM55.1438 77.2825C51.6967 77.2825 48.8974 74.4831 48.8974 71.036C48.8974 67.5889 51.6967 64.7896 55.1438 64.7896C58.5909 64.7896 61.3903 67.5889 61.3903 71.036C61.3903 74.4831 58.5909 77.2825 55.1438 77.2825ZM56.1618 0.381836V50.0063V51.9265V51.9497C56.1386 54.1938 54.311 55.9752 52.09 55.9752H50.1698H45.9361C45.6353 55.9752 45.3809 56.2297 45.3809 56.5304V99.7465C46.9078 99.8853 48.4347 99.9548 50.0079 99.9548C77.631 99.9548 100.003 77.5601 100.003 49.9601C100.003 24.4885 80.8699 3.43565 56.1618 0.381836Z" fill="#00B856"/>
<path fill-rule="evenodd" clip-rule="evenodd" d="M40.4054 41.2382C36.9583 41.2382 34.1589 38.4389 34.1589 34.9918C34.1589 31.5447 36.9583 28.7454 40.4054 28.7454C43.8525 28.7454 46.6518 31.5447 46.6518 34.9918C46.6518 38.4389 43.8525 41.2382 40.4054 41.2382ZM50.0064 0.0117188C22.3832 0.0117188 0.0117188 22.4064 0.0117188 50.0064C0.0117188 73.9742 16.8771 93.986 39.3874 98.8674V54.0087C39.4337 51.8572 41.1688 50.0989 43.3204 50.0295H45.4025H49.6362C49.937 50.0295 50.1683 49.7982 50.1915 49.4974V0.0348534H50.8855C50.5616 0.0117184 50.284 0.0117188 50.0064 0.0117188Z" fill="#00B856"/>
</svg>
