<svg width="100" height="100" viewBox="0 0 100 100" fill="none" xmlns="http://www.w3.org/2000/svg">
<g clip-path="url(#clip0_332_926)">
<mask id="mask0_332_926" style="mask-type:luminance" maskUnits="userSpaceOnUse" x="0" y="0" width="100" height="100">
<path d="M100 0H0V100H100V0Z" fill="white"/>
</mask>
<g mask="url(#mask0_332_926)">
<path d="M100 0H0V100H100V0Z" fill="#FF0032"/>
<path d="M66.6172 7.69043V12.2926H76.6806V30.7627H82.3056V12.2926H92.3486V7.69043H66.6172Z" fill="white"/>
<path d="M30.4403 7.69043L23.0767 22.9493L15.7338 7.69043H7.69531V30.7627H13.3406V14.2562L20.52 28.2059H25.654L32.8333 14.2562V30.7627H38.4583V7.69043H30.4403Z" fill="white"/>
<path d="M86.7265 84.6183C86.5833 85.5388 86.2152 86.2956 85.622 86.8683C85.0697 87.4001 84.3129 87.7888 83.372 88.0138C82.4515 88.2183 81.0813 88.341 79.6495 88.341C78.1563 88.341 76.8472 88.1569 75.7222 87.7683C74.6381 87.4001 73.779 86.7456 73.1858 85.8456C72.5722 84.9456 72.2654 83.6367 72.2654 81.939V79.5867C72.2654 77.9095 72.5722 76.6004 73.1858 75.6799C73.7995 74.7799 74.6381 74.1256 75.7222 73.7574C76.8268 73.3688 78.1563 73.1847 79.6495 73.1847C81.0813 73.1847 82.4515 73.3074 83.372 73.5119C84.3129 73.7369 85.0697 74.1049 85.622 74.6572C86.2152 75.2299 86.5833 75.9867 86.7265 76.9072H92.3513C92.1877 75.0049 91.5538 73.3892 90.4288 72.0801C89.4061 70.8938 87.9743 70.0347 86.1947 69.5029C84.4765 68.9915 82.2061 68.7256 79.6495 68.7256C76.9495 68.7256 74.6177 69.1142 72.6949 69.871C70.752 70.6483 69.2384 71.9369 68.1952 73.7165C67.1929 75.414 66.6815 77.7049 66.6406 80.4867V80.7526L66.9474 80.7731L66.6406 80.7935V80.814V81.0594C66.6815 83.8413 67.1929 86.132 68.1952 87.8297C69.2384 89.6092 70.752 90.8979 72.6949 91.6751C74.6177 92.432 76.9495 92.8206 79.6495 92.8206C82.2061 92.8206 84.4765 92.5547 86.1947 92.0433C87.9743 91.5115 89.3856 90.6524 90.4288 89.466C91.5538 88.1774 92.2081 86.541 92.3513 84.6388H86.7265V84.6183Z" fill="white"/>
</g>
</g>
<defs>
<clipPath id="clip0_332_926">
<rect width="100" height="100" fill="white"/>
</clipPath>
</defs>
</svg>
