<svg width="130" height="73" viewBox="0 0 130 73" fill="none" xmlns="http://www.w3.org/2000/svg">
<path d="M116.782 28.6697C121.43 27.1204 129.398 23.1365 127.295 17.2712C123.754 9.96728 117.225 16.2752 114.126 21.2551C116.007 17.3819 117.999 10.4099 114.679 8.86063C109.589 6.53665 108.371 14.1726 108.15 19.2632C108.261 14.0619 107.818 4.21268 103.17 5.87266C96.7515 8.19663 100.182 15.3899 102.285 21.0338C102.285 21.0338 98.4115 11.0739 94.8702 14.5046C93.6529 16.1645 95.2022 19.0418 97.4155 20.9232C94.3168 19.1525 89.7796 16.8285 87.3449 19.1525C82.9183 23.3578 86.3489 26.3458 91.1075 28.3377C87.7876 29.1124 83.4716 31.3257 83.9143 34.7563C84.7996 41.8389 96.9728 39.8469 100.846 36.3056C97.6368 39.6256 89.8902 45.8229 96.6408 49.0322C101.621 51.4668 107.265 43.7202 107.707 38.9616C107.818 43.7202 105.715 54.2334 114.347 53.0161C123.643 51.6881 116.671 37.9656 114.679 33.7603C116.45 36.0843 125.524 47.1508 128.623 40.2896C131.058 34.4243 121.098 29.4444 116.782 28.6697Z" fill="#6EBB1F"/>
<path d="M1.91016 52.0204C1.91016 47.3724 4.56612 44.4951 8.32875 44.4951C10.5421 44.4951 12.4234 45.7124 13.4194 47.1511V44.8271H14.9687V64.7469H13.4194V56.8896C12.202 58.5496 10.4314 59.5456 8.32875 59.5456C4.56612 59.6563 1.91016 56.5576 1.91016 52.0204ZM13.4194 55.5617V48.3684C12.534 47.0404 10.6527 45.8231 8.66074 45.8231C5.45145 45.8231 3.57014 48.4791 3.57014 52.0204C3.57014 55.5617 5.45145 58.2176 8.66074 58.2176C10.6527 58.2176 12.6447 56.8896 13.4194 55.5617Z" fill="black"/>
<path d="M32.2329 59.2136L28.1382 46.8191L24.1543 59.2136H22.605L17.957 44.8271H19.617L23.4903 57.111L27.4743 44.8271H28.8022L32.8969 57.111L36.7701 44.8271H38.4301L33.7822 59.2136H32.2329Z" fill="black"/>
<path d="M40.5312 52.0204C40.5312 47.8151 43.5192 44.4951 47.5032 44.4951C51.9298 44.4951 54.3644 48.0364 54.3644 52.131V52.5737H42.3019C42.4126 55.6723 44.5152 58.3283 47.9458 58.3283C49.8271 58.3283 51.4871 57.6643 52.7044 56.3363L53.4791 57.3323C52.0404 58.8816 50.2698 59.6563 47.8352 59.6563C43.6299 59.6563 40.5312 56.447 40.5312 52.0204ZM47.5032 45.7124C44.0725 45.7124 42.4126 48.7004 42.3019 51.2457H52.8151C52.7044 48.8111 51.1551 45.7124 47.5032 45.7124Z" fill="black"/>
<path d="M58.3516 59.2136V44.8271H59.9009V47.2618C61.1182 45.6018 62.7782 44.4951 64.7702 44.4951V46.1551C64.5488 46.0444 64.3275 46.0444 63.9955 46.0444C62.5568 46.0444 60.5649 47.3724 59.9009 48.5897V59.2136H58.3516Z" fill="black"/>
<path d="M68.2003 56.4466V46.1547H65.7656V44.8267H68.2003V40.8428H69.7496V44.8267H72.7375V46.1547H69.7496V56.2253C69.7496 57.4426 70.1922 58.2172 71.2989 58.2172C71.9629 58.2172 72.6269 57.8852 72.9589 57.5532L73.5122 58.7706C72.9589 59.3239 72.2949 59.6559 71.0776 59.6559C69.0856 59.6559 68.2003 58.4386 68.2003 56.4466Z" fill="black"/>
<path d="M75.3931 63.4189C75.7251 63.5296 76.2784 63.6403 76.6104 63.6403C77.6064 63.6403 78.2704 63.1976 78.8237 61.8696L79.9303 59.3243L73.8438 44.8271H75.6144L80.9263 57.443L86.1276 44.8271H87.8982L80.373 62.4229C79.5984 64.3043 78.381 65.0789 76.6104 65.0789C76.1677 65.0789 75.5037 64.9682 75.0611 64.8576L75.3931 63.4189Z" fill="black"/>
</svg>
