<svg width="139" height="126" viewBox="0 0 139 126" fill="none" xmlns="http://www.w3.org/2000/svg">
<path d="M96.214 106.445L100.884 111.751H97.8481L94.238 107.662V111.751H91.7218V101.857H94.238V105.447L97.7866 101.857H100.761L96.214 106.445ZM20.9818 104.531C22.8143 104.531 23.6553 103.656 23.6553 102.336C23.6553 101.016 22.8143 100.141 20.9818 100.141H17.3512V104.531H20.9818ZM21.0639 97.7891C24.2159 97.7891 26.2945 99.4027 26.2945 102.336C26.2945 105.269 24.2159 106.883 21.0639 106.883H17.3512V111.751H14.7188V97.7822H21.0639M32.2362 109.679C33.7131 109.679 35.0874 108.62 35.0874 106.808C35.0874 104.989 33.7131 103.936 32.2362 103.936C30.7593 103.936 29.385 104.996 29.385 106.808C29.385 108.62 30.7593 109.679 32.2362 109.679ZM32.2362 101.577C34.9507 101.577 37.6446 103.334 37.6446 106.808C37.6446 110.281 34.9507 112.038 32.2362 112.038C29.5218 112.038 26.8278 110.281 26.8278 106.808C26.8278 103.334 29.5218 101.577 32.2362 101.577ZM44.065 109.679C42.5471 109.679 41.4326 108.585 41.4326 106.808C41.4326 105.05 42.5881 103.936 44.065 103.936C44.9607 103.936 45.7401 104.353 46.3623 105.29L48.5161 104.052C47.7982 102.514 46.2393 101.577 44.0855 101.577C41.2753 101.577 38.8754 103.656 38.8754 106.808C38.8754 109.96 41.1522 112.038 44.0855 112.038C46.1982 112.038 47.6136 111.081 48.6119 109.385L46.5333 108.25C45.9384 109.078 45.3025 109.679 44.065 109.679ZM70.8335 107.464C70.7104 108.982 70.4164 109.317 69.8967 109.317C69.5412 109.317 69.3771 109.276 69.131 109.214L69.1446 111.778C69.1446 111.778 69.4591 111.874 70.0335 111.874C72.1668 111.874 72.9667 110.5 73.165 107.567L73.4043 104.114H76.235V111.737H78.7512V101.857H71.2506L70.8335 107.464ZM66.1977 105.488C65.9584 104.25 65.0217 103.491 63.6268 103.491C62.3072 103.491 61.3089 104.367 60.9534 105.488H66.1977ZM63.702 101.577C66.5327 101.577 68.5293 103.635 68.5293 106.527V107.402H60.9055C61.0628 108.92 62.1431 109.878 63.62 109.878C64.9601 109.878 65.514 109.296 66.1362 108.524L68.1327 109.522C67.1344 111.218 65.7601 112.038 63.5858 112.038C60.8303 112.038 58.4988 109.946 58.4988 106.808C58.4919 103.676 60.8303 101.577 63.702 101.577ZM87.8586 105.488C87.6193 104.25 86.6826 103.491 85.2878 103.491C83.9682 103.491 82.9699 104.367 82.6143 105.488H87.8586ZM85.3698 101.577C88.2005 101.577 90.197 103.635 90.197 106.527V107.402H82.5733C82.7306 108.92 83.8109 109.878 85.2878 109.878C86.6279 109.878 87.1817 109.296 87.8039 108.524L89.8005 109.522C88.8022 111.218 87.4279 112.038 85.2536 112.038C82.4981 112.038 80.1665 109.946 80.1665 106.808C80.1597 103.676 82.4913 101.577 85.3698 101.577ZM49.3913 104.052H52.3451V111.751H54.8613V104.052H57.815V101.857H49.3913V104.052ZM105.875 109.679C107.352 109.679 108.726 108.62 108.726 106.808C108.726 104.989 107.352 103.936 105.875 103.936C104.398 103.936 103.024 104.996 103.024 106.808C103.024 108.62 104.398 109.679 105.875 109.679ZM105.875 101.577C108.59 101.577 111.284 103.334 111.284 106.808C111.284 110.281 108.59 112.038 105.875 112.038C103.161 112.038 100.467 110.281 100.467 106.808C100.467 103.334 103.161 101.577 105.875 101.577ZM121.287 101.857L118.559 108.79L115.831 101.857H112.542V111.737H114.928V105.481L117.574 111.737H119.523L122.169 105.481V111.737H124.562V101.857H121.287Z" fill="#101828"/>
<path d="M85.6876 83.8136H57.1823C55.1243 83.8136 53.9141 81.9743 53.9141 80.3675C53.9141 79.4171 54.297 78.5556 54.926 77.9334L67.3633 65.4961L85.6876 83.8136Z" fill="#FF4F12"/>
<path d="M57.1811 83.813C55.0273 83.813 52.3402 82.09 52.3402 78.6713V40.3612C52.3402 35.1853 52.0735 31.5409 55.7726 27.8419L69.6457 13.9688L94.2467 38.6108L54.9179 77.9328C54.2957 78.555 53.9059 79.4165 53.9059 80.367C53.9128 81.9737 55.123 83.813 57.1811 83.813Z" fill="#7700FF"/>
</svg>
