<svg width="104" height="104" viewBox="0 0 104 104" fill="none" xmlns="http://www.w3.org/2000/svg">
<path fill-rule="evenodd" clip-rule="evenodd" d="M39.8764 88.9329C39.2866 88.9183 39.0984 88.721 38.772 88.4782C37.9975 87.9017 38.379 86.9491 38.1224 85.8147C37.9925 85.2518 37.8626 84.6888 37.7327 84.1258H37.6028C37.0795 84.7838 35.8941 84.8592 34.8095 84.7754V85.555C35.7569 85.9793 36.3443 87.3281 35.5241 88.4132C35.051 89.0391 31.6861 89.1348 30.5222 88.8679C30.1671 88.7864 29.9403 88.8852 29.6777 88.738C29.2199 88.4812 28.7061 87.5845 28.9633 86.6592C29.074 86.2606 29.3683 85.8917 29.6777 85.6848C29.7696 85.6235 29.9515 85.6475 30.0026 85.555V80.6828C30.0979 80.5254 30.0027 80.2633 30.0675 80.0332C30.1928 79.5889 30.5212 79.085 30.7821 78.7341C32.0223 77.0659 35.2607 76.4305 37.4079 77.7597C37.931 78.0835 38.4627 78.6532 38.772 79.1888C38.9717 79.5346 38.8429 79.9299 39.2268 80.0982C39.5176 80.2762 40.0763 80.0565 40.461 80.1632C41.0743 80.3333 41.2416 81.013 41.8251 81.1376C42.2071 80.5453 43.4173 79.7302 44.6184 80.0332C45.0166 80.1339 45.2759 80.4062 45.6577 80.488C45.8562 80.2694 46.2221 79.9542 46.5022 79.8384C47.5436 79.4081 48.876 80.1276 49.5553 80.553C49.8494 80.7372 49.9999 81.048 50.3997 81.1376C50.9824 79.9949 52.3868 79.4 53.8425 80.0332C54.1554 80.1695 54.6864 80.8044 55.1417 80.6828C55.3531 80.6264 55.5766 80.3156 55.7912 80.2282C56.2048 80.0598 57.0163 80.1491 57.5452 80.1632C58.1002 80.1781 58.3343 80.7676 58.9093 80.553C59.072 80.4923 59.3145 80.2368 59.4939 80.1632C59.9568 79.9733 60.8502 79.9707 61.3128 80.1632C61.5834 80.2758 62.0008 80.5791 62.1572 80.8128C62.3084 81.0387 62.2461 81.3184 62.4821 81.4625V81.3975C62.8123 81.063 62.9512 80.5151 63.3914 80.2931C64.0452 79.9634 65.9468 80.0897 66.4446 80.4231C66.7906 80.6549 66.9213 81.362 67.2889 81.4625C68.1798 79.9161 69.7337 80.1632 72.096 80.1632C73.1318 80.1632 74.1809 80.105 74.6294 80.6828C74.838 80.9518 75.1305 81.58 75.0191 82.1121C74.648 83.8847 75.4958 87.8808 74.3045 88.673C73.8221 88.994 72.3465 89.0797 71.7062 88.8029C71.3888 88.6658 71.3526 88.451 70.8617 88.4132C70.0773 89.3854 67.7004 88.5983 66.0547 88.8679C65.923 88.8895 65.3791 88.8979 65.1454 88.8029C65.0175 88.751 64.8713 88.5217 64.6906 88.5432C64.4336 88.5735 63.9703 88.9173 63.6513 88.9978C62.8973 89.1882 62.3135 88.7899 61.8975 88.673C61.5472 88.5746 61.3372 88.8715 61.1178 88.9329H59.2341C58.846 88.8233 58.7241 88.5673 58.1948 88.5432C57.8529 89.0374 56.1408 89.0983 55.5315 88.738C55.2714 88.5842 55.0247 88.1619 54.8169 88.1533C54.4453 88.5127 54.0228 88.9831 53.5177 89.1928C51.9861 89.8285 50.5946 88.4112 50.1399 87.5037C50.0259 87.5448 50.0767 87.5163 50.0099 87.5687C49.5725 88.0008 49.243 88.6015 48.7108 88.9329C45.963 90.6433 44.5609 86.9718 43.9038 85.1651H43.8388V85.49C43.6323 85.8363 43.7258 86.5599 43.7089 87.0491C43.6968 87.4012 43.5551 87.8548 43.6439 88.2833C43.8158 89.1123 44.1721 90.7265 43.7089 91.4663C43.2341 92.2248 41.1656 92.8543 40.2661 91.9861C39.5662 91.3103 39.8302 90.073 39.8764 88.9329ZM30.4573 89.9723C32.781 89.9132 33.8715 90.4938 33.2505 92.6356C33.0845 93.2082 33.2149 93.7269 32.9258 94.1297C32.0834 95.303 31.3569 94.3204 30.3923 94.7144V94.8443C30.8748 94.9706 31.5517 95.4568 31.8214 95.8187C31.9686 96.0162 31.9829 96.2187 32.2112 96.3383C32.4007 94.798 34.5297 91.928 36.6933 92.8306C37.1789 93.0331 37.9453 93.5305 38.2524 93.9348C38.4928 94.2516 38.7428 94.7875 39.1618 94.9093V94.8443H39.2268C39.2052 92.6527 41.6987 92.9717 43.1893 93.4802C43.5565 93.0158 45.5276 92.8679 46.2423 93.2203C46.6113 93.4022 46.6218 93.7543 47.1517 93.8049C47.927 92.7972 50.1988 93.0904 51.9587 93.0903C52.7397 93.0903 53.5799 93.0258 54.0374 93.3502C54.275 93.5188 54.5933 93.9627 54.687 94.2597C54.8327 94.7211 54.5411 95.1358 54.7519 95.4939C54.9592 95.28 55.2265 95.1587 55.3366 94.8443C55.0802 94.4474 55.4779 93.9319 55.6614 93.7399C56.0187 93.3659 56.4387 92.965 57.2853 93.0903C57.413 93.1093 57.6497 93.1985 57.8699 93.1553C58.1246 93.1055 58.5475 93.0462 58.8444 93.1553C59.2783 93.3148 59.4044 93.8318 59.8188 93.9998C60.2241 93.3669 61.4935 92.7523 62.8068 93.0903C63.2147 93.1953 63.4032 93.485 63.8462 93.545C64.1325 93.1735 65.6082 92.8558 66.4446 93.0903C66.6101 93.1368 66.8412 93.3805 66.9642 93.4152C67.2147 93.4858 67.3993 93.2065 67.5488 93.1553C67.9124 93.0309 68.8488 92.976 69.3028 93.0903C69.7456 93.2018 69.988 93.5206 70.407 93.61C70.7268 93.151 71.9315 92.8527 72.8754 93.0903C73.2337 93.1805 73.6973 93.6557 74.1097 93.545C74.3261 93.4871 74.5869 93.223 74.8243 93.1553C75.3872 93.1336 75.9501 93.1119 76.5132 93.0903C78.0376 93.0903 80.1757 92.8193 80.8005 93.7399C81.0652 94.1302 81.2221 95.2792 81.0602 96.0136C80.6355 97.9422 81.7287 100.908 80.1509 101.73C79.8103 101.907 78.6066 102.008 78.0722 101.86C77.6533 101.744 77.4865 101.449 76.9678 101.405C76.5694 101.816 75.2654 102.087 74.3045 101.86C74.0506 101.8 73.7542 101.586 73.3952 101.665C72.9519 101.763 72.0796 102.036 71.3815 101.86C70.9193 101.744 70.6964 101.404 70.2121 101.34C69.9047 101.776 68.7244 102.109 67.8087 101.86C67.5714 101.795 67.2598 101.487 66.9642 101.535C66.7588 101.569 66.4597 101.803 66.2496 101.86C65.793 101.983 64.8667 101.909 64.4958 101.795C64.2711 101.726 64.0285 101.472 63.8462 101.405C63.3767 101.233 62.8396 101.771 62.4821 101.86C61.8232 102.024 60.8287 101.601 60.5332 101.665C60.0773 101.764 58.867 102.088 58.1298 101.86C57.9471 101.804 57.6501 101.504 57.4152 101.535C57.2762 101.554 57.0308 101.809 56.8956 101.86C56.5572 101.987 55.8235 102.112 55.3366 101.99C54.9547 101.894 54.5525 101.526 54.2323 101.47C53.9524 101.422 53.5333 101.792 53.2579 101.86C52.7023 101.998 51.5485 101.912 51.1792 101.73C50.9728 101.628 50.8961 101.464 50.5946 101.405C50.1508 101.991 48.7573 101.928 47.9313 101.73C47.6615 101.665 47.5344 101.825 47.4116 101.86C46.4343 102.136 45.068 101.72 44.6832 101.34C44.3382 101.467 44.1094 101.76 43.7089 101.86C42.6519 102.124 41.7272 101.641 41.1106 101.47C40.7805 101.899 39.2032 102.074 38.4473 101.795C38.2066 101.706 37.8867 101.339 37.7327 101.405C37.1705 101.607 36.8266 102.141 36.1737 102.315C34.9184 102.648 34.4013 101.571 33.6403 101.405C33.1914 102.071 31.6792 101.86 30.5872 101.86H23.9614C23.4319 101.692 23.26 101.24 22.922 100.886C22.8756 100.221 22.8054 99.5275 23.1169 99.0667C23.2466 98.8749 23.8595 98.6003 23.8964 98.547V93.4802C22.7931 92.9931 22.7277 92.107 23.052 90.8167C23.3461 90.6206 23.5347 90.2974 23.8964 90.1671C24.6558 89.8937 26.4626 90.1021 27.4042 90.1021C27.9346 90.1021 28.4607 90.0683 28.8333 90.2321C28.9542 90.2852 29.0264 90.4454 29.1581 90.4919C29.2797 90.5349 29.2065 90.5833 29.288 90.4919C29.6157 90.3472 30.1559 90.1964 30.4573 89.9723Z" fill="#9A2C20" stroke="white" stroke-width="0.611" stroke-linejoin="round"/>
<path fill-rule="evenodd" clip-rule="evenodd" d="M34.3491 86.9834V87.503H30.2567C30.2143 87.3813 30.1948 87.2489 30.1917 87.0484C30.235 87.0267 30.2783 87.005 30.3216 86.9834C30.4048 86.9287 31.0354 87.0427 31.231 86.9184C31.4444 86.5761 31.2959 85.5837 31.2959 85.0996V80.3574C31.724 79.8633 31.8955 79.2822 32.4653 78.9284C33.8967 78.0394 36.4595 78.3679 37.2721 79.578C38.227 80.9994 37.2996 83.0553 35.9731 83.4106C35.1126 83.641 34.688 83.0921 34.0892 83.0208C33.917 83.3702 33.5886 83.8005 33.3097 84.0602V86.9184C33.5603 87.0043 33.9993 86.9881 34.3491 86.9834ZM34.2191 78.9284C34.1632 78.9705 34.0149 79.0152 33.9594 79.0582C32.9871 79.4 33.2913 81.9031 33.3097 83.2158H33.3746C33.5571 82.9023 33.8127 82.402 34.2841 82.3711C34.4576 82.5343 34.6227 82.4898 34.8687 82.4361C35.5694 81.4 35.4048 80.5144 35.0636 79.2531C34.8062 79.1037 34.6023 78.9765 34.2191 78.9284ZM47.016 81.1369C48.0759 81.1183 48.8128 81.7149 49.3546 82.2413C49.3135 82.3553 49.342 82.3045 49.2896 82.3711C49.1894 82.6959 48.6625 83.4024 48.3153 83.4755C47.9728 82.9454 47.3934 82.4056 46.6263 82.3063V82.4361C46.4148 82.7021 46.4075 83.299 46.4964 83.6704C46.7426 84.7002 47.006 85.5515 47.7306 86.0739C47.8847 86.1851 48.0523 86.2103 48.1853 86.3338C48.2993 86.2929 48.2484 86.3213 48.3153 86.2688C48.5837 86.0825 48.8145 85.7268 48.9649 85.4243H49.0947C49.244 85.6132 49.3581 85.5745 49.4195 85.8791C48.7571 86.5917 48.5169 87.9084 47.2109 87.9578C46.9274 87.6952 46.5332 87.5558 46.3014 87.2433C45.5049 86.1688 44.7635 84.3483 45.5869 82.761C45.9412 82.0781 46.5024 81.655 47.016 81.1369ZM52.3427 81.1369C53.0289 81.1178 54.3965 81.7388 54.5512 82.1763C54.6034 82.253 54.6015 82.2856 54.6162 82.4361C54.2674 82.722 54.1068 83.3963 53.5769 83.4755C53.3936 83.0912 52.4785 82.116 51.9529 82.3711C51.7226 82.6592 51.7154 83.3766 51.823 83.8004C52.2272 85.3938 52.5114 85.4169 53.5119 86.3338C53.6259 86.2929 53.5751 86.3213 53.6419 86.2688C53.9024 86.0696 54.1222 85.712 54.2915 85.4243H54.4214C54.5085 85.5395 54.6208 85.6096 54.7461 85.6842C54.7051 85.7982 54.7336 85.7472 54.6812 85.8141C54.4997 86.5597 53.4165 87.9262 52.5375 87.9578C52.2316 87.6745 51.813 87.5154 51.5632 87.1783C50.8584 86.2272 50.1171 84.561 50.7837 83.0208C51.1405 82.1963 51.7415 81.7118 52.3427 81.1369ZM44.3527 83.3456C43.8564 83.3113 43.8585 83.095 43.2484 83.0858C43.0668 83.3247 42.7914 83.5006 42.6638 83.8004C42.2055 84.8762 42.209 86.3395 42.209 87.8279V88.9322C42.3345 89.5018 42.5158 90.2121 42.4039 90.8161C42.3336 90.8751 42.3984 90.811 42.339 90.8811C41.9338 90.9314 41.5399 91.0146 41.1697 90.9459C41.0676 90.6464 41.0999 90.1146 41.1048 89.7117C41.213 88.9972 41.3212 88.2827 41.4295 87.568C41.0801 87.4493 40.457 87.498 40.0005 87.503C39.9084 87.5656 39.7878 87.5665 39.6107 87.568V87.503H39.5457C39.4268 86.2548 39.3939 85.0463 39.0911 83.9302C38.893 83.2 38.5201 82.4515 38.4415 81.6567C38.5064 81.635 38.5713 81.6133 38.6364 81.5917C38.8641 81.4491 39.6441 81.5811 40.0655 81.5917C40.6048 82.5959 40.6268 84.2175 40.9099 85.4243C41.0212 85.8986 40.8635 86.609 41.1048 86.9834C41.2054 87.0515 41.3701 87.0504 41.5595 87.0484C41.7642 84.7219 42.0073 81.2351 44.5476 81.4618C44.5898 81.5434 44.6183 81.5962 44.6775 81.6567C44.5494 82.2262 44.3581 82.5587 44.3527 83.3456ZM60.6575 83.2158C60.5492 83.2373 60.4409 83.259 60.3326 83.2806C60.1983 83.0607 60.087 82.9214 59.748 82.8909C59.2978 82.6518 58.1379 83.9921 58.059 84.45C59.3742 84.6082 61.0053 85.9992 61.0472 87.4382C60.8353 87.5518 60.5758 87.575 60.2027 87.568C60.0459 87.4748 59.6688 87.5566 59.3582 87.568C59.3365 87.5032 59.3149 87.4382 59.2932 87.3732C59.0767 87.076 59.1212 86.5649 58.9685 86.2039C58.6855 85.5347 58.1979 85.0794 57.5394 84.7747V86.4637C57.6862 86.6809 57.6412 87.2426 57.6044 87.4382H57.4744C57.2474 87.5862 56.5878 87.5116 56.2402 87.503C55.8699 86.8677 55.775 84.3569 55.9803 83.4106C56.1171 82.7806 55.8564 82.0716 56.1752 81.6567C56.4183 81.44 57.1543 81.5155 57.6044 81.5267C57.626 81.5917 57.6476 81.6567 57.6693 81.7217C57.9145 82.198 57.2122 83.6614 57.5394 84.1901V84.2551C57.5827 84.2334 57.626 84.2117 57.6693 84.1901C58.1747 83.0787 59.1127 81.4462 60.6575 81.3968C60.7995 81.5102 60.8907 81.4752 60.9822 81.6567C61.0176 81.9654 60.6686 82.5472 60.6575 83.2158ZM64.1652 81.5267C64.6855 81.5202 65.3039 81.5077 65.7242 81.5917V81.7217C66.0513 82.251 65.9787 83.0471 66.1789 83.6704C66.3864 84.3163 66.5111 85.0659 66.7635 85.7492C66.9585 86.2769 67.3002 86.7703 67.3482 87.4382C66.9482 87.5735 66.2348 87.5082 65.7242 87.503V87.4382H65.6592C65.6029 86.875 65.3991 86.2436 65.2046 85.7492H65.1396V85.8141C64.9664 86.1605 64.7932 86.507 64.6199 86.8535C64.4095 87.1449 64.0271 87.3135 63.7754 87.568C63.3703 87.5996 62.9392 87.6165 62.5413 87.568C62.3714 87.3434 62.0985 87.053 61.8917 86.8535C61.8484 86.5287 61.805 86.2038 61.7617 85.8791C61.9442 85.0146 62.4136 84.4088 62.866 83.8004C63.3059 83.2089 64.0753 82.9927 64.1002 81.9814C64.0378 81.8894 64.0368 81.7689 64.0352 81.5917C64.1493 81.5507 64.0984 81.5792 64.1652 81.5267ZM70.0765 81.5267C70.7434 81.5122 73.4591 81.4019 73.6491 81.7217C73.8044 81.9718 73.6881 82.7933 73.6491 83.2158C73.5814 83.9508 73.4098 85.182 73.5843 86.0089C73.6737 86.4329 73.7277 87.0328 73.6491 87.4382H73.5193C73.2923 87.5862 72.6327 87.5116 72.285 87.503C72.1401 87.2729 72.0839 87.154 72.0902 86.7235C71.9568 86.5128 71.9646 85.0317 71.9603 84.7098H71.8303C71.6244 84.8692 71.3459 84.8903 71.1158 85.0346C70.487 85.429 70.2574 86.1915 70.2713 87.2433C70.2063 87.2866 70.1414 87.3299 70.0765 87.3732C69.8804 87.5342 68.7943 87.6257 68.5174 87.4382C68.2557 87.3517 68.2517 87.2666 68.2576 86.9184C68.6736 86.3718 68.7238 85.656 69.297 85.2295C69.6107 84.996 70.0249 84.7165 70.4012 84.5798C70.6168 84.5017 70.8246 84.5567 70.9858 84.45C69.7196 84.028 68.3142 83.7767 68.7123 81.9165L69.167 81.5917C69.46 81.4956 69.8598 81.6632 70.0765 81.5267ZM72.0902 82.0464C71.6167 82.0317 70.866 81.9636 70.5961 82.1763C70.5438 82.2427 70.5731 82.1941 70.5312 82.3063C69.9051 83.2338 71.2899 84.1272 71.9603 84.1901C72.0956 83.7901 72.0304 83.0768 72.0252 82.5661C72.0994 82.4563 72.0945 82.248 72.0902 82.0464ZM64.2951 82.9559C63.7414 83.7815 62.969 84.4192 63.3208 85.8141C63.5696 85.933 63.6971 86.0057 64.1002 86.0089C64.3921 85.7756 64.6199 85.6078 64.8797 85.3595C64.9309 84.5341 64.6071 83.742 64.425 82.9559H64.2951ZM31.7507 99.9105H32.4653C32.5115 100.044 32.5297 100.214 32.5301 100.43C31.7568 100.688 30.0323 100.5 29.0873 100.495C29.0368 100.35 29.021 100.142 29.0225 99.9105H29.4771C29.5793 99.611 29.547 99.0791 29.5421 98.6763C29.3746 98.3961 29.4716 97.8716 29.3472 97.5719C28.9973 96.7296 28.2616 96.0793 27.2035 95.948V99.9105H27.9181C27.9644 100.044 27.9826 100.214 27.9831 100.43C27.1394 100.711 25.2408 100.5 24.2155 100.495C24.1649 100.35 24.1492 100.142 24.1505 99.9105H25.1898V92.1153H25.0599C24.9866 92.0671 24.3993 92.1673 24.2155 92.0503H24.1505V91.5307H28.048V92.0503C27.889 92.1055 27.6463 92.1178 27.3984 92.1153C27.2966 92.0346 27.3654 92.0736 27.2685 92.1153C27.0274 92.4974 27.1964 94.7865 27.2035 95.4282C27.3156 95.4672 27.4083 95.4861 27.5933 95.4932C28.1998 94.3716 28.9228 92.2482 29.9318 91.5956C30.3816 91.3047 31.4353 91.2373 31.8807 91.5956C31.9294 91.6652 31.9197 91.657 31.9455 91.7904C31.6334 92.1492 31.8279 92.8589 31.5558 93.2845C31.4792 93.3368 31.4466 93.3348 31.2959 93.3495C30.8899 93.0093 30.2833 93.0214 29.737 93.1546C29.253 93.8668 28.4071 94.6242 28.2429 95.6231H28.3079V95.6881C30.4956 95.8271 31.6841 97.5982 31.7507 99.9105ZM35.4533 94.0641C36.0743 94.0784 36.3277 94.3343 36.6875 94.5837C38.549 95.8742 38.1152 98.214 36.9474 99.8456C36.5568 100.391 36.3485 100.896 35.3884 100.885C34.6562 100.31 34.1225 100.037 33.6345 99.196C32.7215 97.6226 33.8203 95.6696 34.544 94.7137C34.7693 94.416 35.1815 94.3161 35.4533 94.0641ZM40.7151 94.5189C41.0741 94.5085 41.7786 94.4292 42.0142 94.5837C42.2621 94.6654 42.2684 94.7156 42.274 95.0385C42.4105 95.2635 42.3269 95.5807 42.4039 95.883C42.6205 96.7923 42.837 97.7018 43.0535 98.6114C43.124 98.5522 43.0591 98.6163 43.1185 98.5464C43.2268 98.1566 43.3351 97.7669 43.4432 97.377C43.7903 96.449 44.1118 95.9977 43.963 94.6487C44.3172 94.4623 45.036 94.5108 45.5869 94.5189C45.6902 94.7105 45.7218 94.8904 45.7168 95.2333C45.8251 95.9262 45.9334 96.6192 46.0417 97.3122C46.1723 97.7748 46.299 98.3361 46.4964 98.8063C46.7156 99.3285 47.0557 99.6933 47.081 100.43H46.951C46.7051 100.596 45.9785 100.488 45.7168 100.43C45.2995 99.7282 44.9492 98.9948 44.6775 98.0917C44.552 97.6743 44.6204 96.9317 44.2877 96.7274V96.8574C43.6291 97.7096 43.6926 99.1762 43.4432 100.43C43.1602 100.527 42.6591 100.5 42.274 100.495C42.224 100.451 42.1291 100.41 42.0792 100.365C41.6048 99.8603 41.3929 98.217 41.1697 97.442C41.0632 97.0722 41.1351 96.3927 40.8449 96.2078C40.4733 96.8333 39.5332 98.1568 39.8056 99.3259C39.8948 99.7089 40.0902 100.003 40.1303 100.43C39.8143 100.538 39.2519 100.5 38.8312 100.495C38.6947 100.239 38.6933 99.823 38.7012 99.3909C38.9698 98.9939 39.0036 98.38 39.221 97.9618C39.6323 97.2689 40.0437 96.5759 40.4552 95.883C40.6168 95.4915 40.5337 94.8653 40.7151 94.5189ZM51.6282 94.9736H49.7443V95.1035C49.2219 95.9138 49.7245 99.2272 49.7443 100.3C49.5873 100.385 49.5603 100.417 49.2896 100.43C48.9772 100.659 48.2954 100.47 48.1853 100.235C47.9797 99.967 48.1443 99.5535 48.0554 99.131C47.782 97.8317 47.9497 95.7862 48.1853 94.6487C48.2503 94.627 48.3152 94.6054 48.3801 94.5837C48.6414 94.4201 49.3589 94.5189 49.7443 94.5189H53.1871C53.2599 94.6547 53.2803 94.6378 53.317 94.8436C53.0742 95.2304 52.9657 98.0789 53.1221 98.8063C53.2147 99.2363 53.3877 100.084 53.1871 100.365C53.0951 100.428 52.9745 100.429 52.7974 100.43C52.5058 100.63 51.9302 100.432 51.693 100.365C51.579 98.7574 51.6223 96.6797 51.6282 94.9736ZM56.8248 94.5189H58.3839C58.4055 94.5837 58.4271 94.6487 58.4488 94.7137C58.7671 95.2389 58.7624 96.2848 58.9685 96.9223C59.1929 97.617 59.3495 98.4173 59.6181 99.131C59.7763 99.5514 60.0329 99.8864 60.0728 100.43H59.9428C59.6822 100.599 58.9027 100.504 58.5138 100.495C58.2426 100.001 58.0662 99.2921 57.9291 98.6763C57.8587 98.7353 57.9237 98.6712 57.8641 98.7413C57.208 99.6182 57.4041 100.217 56.1103 100.56C55.867 100.625 55.5329 100.643 55.3308 100.495C54.725 100.304 54.275 99.3192 54.5512 98.4814C54.8899 97.4548 55.7074 96.7398 56.3052 95.948C56.4783 95.7964 56.6515 95.6448 56.8248 95.4932V94.9736C56.7277 94.8323 56.7727 94.6636 56.8248 94.5189ZM62.6712 94.5189C62.7317 95.0329 62.6175 95.3658 62.6062 95.948C63.2077 96.2875 63.8785 96.8637 64.6199 96.9873C64.6074 96.0945 64.6617 95.2214 64.8147 94.5837C65.1811 94.4595 65.8343 94.5137 66.3088 94.5189C66.3512 94.6407 66.3707 94.773 66.3738 94.9736C65.7252 95.9442 66.515 99.235 66.3088 100.365C66.1968 100.404 66.1041 100.423 65.9191 100.43C65.6743 100.595 65.0817 100.469 64.8147 100.43V100.3C64.4317 99.8719 64.6097 98.4013 64.6199 97.6369C64.006 97.2888 63.2814 96.6786 62.5413 96.5326C62.5327 97.9094 62.7254 99.0015 62.7362 100.3C62.579 100.385 62.5521 100.417 62.2814 100.43C62.0604 100.581 61.4758 100.483 61.2421 100.43C60.8731 99.632 60.8029 96.6509 61.0472 95.5582C61.1447 95.1221 60.9458 94.7508 61.3071 94.5837C61.5564 94.4218 62.296 94.5103 62.6712 94.5189ZM67.9978 94.5189H69.297C69.3815 94.6759 69.414 94.7028 69.4269 94.9736C69.164 95.3848 69.2265 96.3885 69.232 96.9873H69.297C69.9909 96.3209 71.4038 96.3205 71.3757 94.9736C71.4438 94.8801 71.4768 94.7188 71.5056 94.5837H71.6354C71.8849 94.4218 72.6245 94.5103 72.9997 94.5189C73.0596 94.692 73.0679 94.9691 73.0645 95.2333C72.5405 96.046 73.0485 99.2311 73.0645 100.3C72.9697 100.356 72.8784 100.418 72.8048 100.495C72.3994 100.501 71.9467 100.493 71.6354 100.43C71.0447 99.4867 71.3025 97.7314 71.3107 96.3377H71.1807C70.3036 97.1364 69.1883 96.8019 69.232 98.5464C69.3819 98.7795 69.4035 100.143 69.3619 100.365C69.0373 100.497 68.2371 100.608 67.9328 100.365C67.646 100.052 67.8474 99.5977 67.7379 99.066C67.5686 98.2434 67.6283 97.1544 67.673 96.3377C67.7005 95.8356 67.5876 95.1734 67.8029 94.8436C67.8598 94.6669 67.9138 94.6528 67.9978 94.5189ZM78.0664 97.7019C77.2855 97.802 76.6667 98.3549 76.4424 99.0011C76.3032 99.4022 76.4684 99.9985 76.2476 100.3C75.9012 100.617 75.0204 100.478 74.4936 100.43C74.4 100.257 74.3641 100.156 74.3637 99.8456C74.5587 99.59 74.5798 99.2142 74.7535 98.9361C75.2237 98.1832 76.0636 97.6454 77.092 97.442V97.377C76.2174 97.2997 75.1223 96.8542 74.8834 96.1428C74.6339 95.8274 74.6404 94.9548 74.9484 94.7137C75.2539 94.4747 75.839 94.5189 76.3774 94.5189C77.4548 94.5189 78.7953 94.3815 79.7554 94.5837V94.7137C79.8405 94.8591 79.8253 95.6271 79.7554 95.948C79.46 97.3028 79.9636 99.1922 79.7554 100.365H79.6904V100.43C79.4022 100.471 78.722 100.605 78.4561 100.43C78.2082 100.349 78.2019 100.299 78.1963 99.9755C78.0496 99.7434 78.0656 98.0673 78.0664 97.7019ZM78.1963 94.9736C77.6023 94.9637 77.0806 95.0081 76.6373 95.1035V95.2333C76.4692 95.4317 76.4723 95.9231 76.6373 96.1428C76.7842 96.7269 77.3331 97.1163 78.0664 97.1172V97.0523H78.1314C77.9766 96.5714 78.173 95.5674 78.1963 94.9736ZM36.7525 99.2609C37.0116 97.5724 36.4946 95.6139 34.6088 95.5582C33.6219 97.2045 34.9445 99.29 36.7525 99.2609ZM57.0197 95.883C56.7148 96.3383 55.4138 97.7399 55.9803 98.5464C56.06 98.8092 56.1723 98.9113 56.5 98.9361C56.9742 99.2007 57.3865 98.5264 57.6044 98.2865C57.6255 97.7139 57.3031 96.0436 57.0197 95.883Z" fill="white"/>
<path fill-rule="evenodd" clip-rule="evenodd" d="M50.1369 1.62596C51.6287 1.59961 52.8814 1.70014 53.9045 2.14565C54.5032 2.40634 54.974 2.9992 55.6583 3.12005C55.9715 2.86943 56.3744 2.8527 56.8276 2.7303C58.7878 2.20081 59.7474 3.8821 60.0756 5.26375C60.3185 6.28641 60.1383 7.71799 59.8806 8.57673C59.755 8.99557 59.2848 9.54556 59.426 10.1358C59.5633 10.7099 59.7916 11.4098 59.9456 12.0196C60.1363 12.7741 60.1094 13.5679 60.2705 14.2932C60.3354 15.5057 60.4003 16.7183 60.4654 17.931C60.7774 19.3133 60.9441 20.5089 61.4397 21.6338C62.2469 23.4662 63.6037 25.0195 64.4278 26.8956C65.5377 29.4223 66.1245 32.1335 67.4808 34.366C69.5444 37.7627 71.5172 40.8779 72.8076 45.0845C73.1812 46.3028 73.3428 47.7513 73.6519 49.1121C73.7169 49.8698 73.7819 50.6277 73.8469 51.3856C74.1014 52.5381 74.4288 54.3767 74.1066 55.738C73.6137 57.8218 72.6239 59.348 72.0929 61.2597C71.9891 61.6335 72.027 62.1269 72.0929 62.429V63.3385C72.2987 64.2862 72.4293 65.7368 72.1579 66.7164C71.2936 69.836 68.8559 70.2858 65.662 71.0687C64.922 71.2502 63.2094 71.5469 62.2192 71.3285C60.7126 70.9963 59.4731 70.691 58.7764 69.5746C58.5417 69.1987 58.3816 68.657 58.2567 68.2105L58.1268 67.4309C58.0306 67.2966 57.8977 67.3192 57.672 67.301C57.4287 67.6711 57.0227 67.931 56.7627 68.2754C55.9459 69.3572 55.0636 70.3298 53.7095 70.8738C53.1109 71.1144 52.5432 71.0398 51.8258 71.1987C51.24 71.3283 50.151 71.3435 49.5522 71.1987C48.9249 71.047 48.239 70.9847 47.6684 70.7439C47.2289 70.5584 46.7457 70.2447 46.3692 69.9644C46.1527 69.7263 45.9362 69.4881 45.7196 69.2498C45.2433 69.1848 44.7669 69.1199 44.2905 69.055C43.9673 68.9667 43.3921 68.6314 42.9914 68.7301C42.3298 68.8931 41.4131 69.4489 40.7178 69.7046C37.4126 70.9202 31.4037 72.1232 29.9996 68.4054C29.4483 66.9456 29.9843 64.8898 30.5192 63.8581C30.7624 63.389 31.4187 62.8432 31.2338 62.0393C30.9112 60.6367 30.732 59.0409 30.3893 57.6219C30.1772 56.7433 30.254 55.8048 30.0645 54.9585V53.2046C29.7678 51.6725 30.3826 48.9753 30.7791 47.748C31.2164 46.394 31.3849 45.1487 31.8184 43.8503C32.7611 41.0271 33.8258 38.2408 34.9365 35.5354C35.2582 34.7515 35.3556 33.9949 35.651 33.1968C36.862 29.9247 37.6544 26.3923 38.5091 22.7382C38.6874 21.9762 38.5974 20.9011 38.4443 20.2046V16.8917C38.7478 15.4894 38.5535 13.8902 38.6391 12.3444C38.6679 11.8253 38.8538 10.9376 38.704 10.3307C38.2448 8.46915 37.095 6.25097 38.4443 4.35431C39.1032 3.42798 40.5665 2.21254 42.3418 2.66533C42.717 2.76104 43.7227 3.30817 44.0308 3.24997C44.4579 3.16928 44.9796 2.76979 45.3948 2.60037L47.7983 1.95076L50.1369 1.62596Z" fill="#9A2C20" stroke="white" stroke-width="0.611" stroke-linejoin="round"/>
<path fill-rule="evenodd" clip-rule="evenodd" d="M46.1757 67.3003C45.054 67.2725 44.249 66.8461 43.2525 66.7805V66.5857C43.9989 66.1031 44.8522 64.6658 44.2919 63.3378C43.9296 62.4789 43.3799 61.7663 43.1227 60.7393C42.7842 59.388 43.3173 57.5152 42.9928 56.0622C42.5281 53.9817 42.2877 51.0624 42.8628 48.9165C43.4045 46.8952 43.8535 45.0065 44.4219 43.0051C44.6737 42.1182 45.033 41.1009 45.0714 40.0818C44.9594 40.0429 44.8666 40.024 44.6816 40.0169C44.1231 41.1017 43.9864 42.4916 43.5774 43.7196C43.08 45.2126 42.6657 46.8722 42.2132 48.4617C42.1699 48.8298 42.1266 49.1979 42.0833 49.5661C41.866 50.4715 41.6303 52.0274 41.8885 53.1389C41.9101 53.5286 41.9318 53.9184 41.9535 54.3082C42.2171 55.4456 42.3432 56.6574 42.3432 58.0109C42.3431 58.9579 42.1755 60.1645 42.4081 60.9992C42.7284 62.1484 44.1706 63.7346 43.5774 65.1566C42.5301 67.6668 38.9627 67.9376 36.1071 68.6645C34.8627 68.9813 32.9324 69.0017 32.2746 68.2098C30.7469 66.3704 33.4604 64.1846 33.5088 62.818C33.1515 62.2534 33.1847 60.3249 32.989 59.505C32.7918 58.6782 32.8117 57.7422 32.5993 56.8417C32.0853 54.6626 31.7503 51.7299 32.4044 49.4362C34.3711 42.5413 36.8638 36.2768 39.0953 29.5583C39.8341 27.3335 40.1011 25.0621 40.6542 22.6075C40.9287 21.3894 40.5634 19.6234 40.3295 18.6449V15.9165C40.4764 15.2486 40.3629 14.4715 40.5244 13.7728C40.6516 13.2219 40.9339 11.8517 40.7841 11.1744C40.7192 10.7847 40.6543 10.395 40.5892 10.0051C40.1972 8.78944 39.3289 7.26656 40.0696 5.84768C40.3464 5.31728 40.8265 5.13055 41.2388 4.74335C42.0888 4.72988 42.7357 4.81108 43.2525 5.13311C43.5829 5.33889 43.7286 5.74888 44.162 5.84768C44.3848 5.21727 45.1726 5.00072 45.786 4.74335C47.885 3.86267 51.6318 3.18354 53.7109 4.54846C54.0758 4.78798 54.5846 4.96186 54.6854 5.45792C54.0793 6.22536 54.5633 7.946 54.7503 8.70594C54.8643 8.7469 54.8134 8.71847 54.8803 8.77094C54.9941 8.72997 54.9433 8.75841 55.0101 8.70594C55.059 8.63625 55.0493 8.64452 55.0751 8.51106C54.6672 7.96809 54.9406 5.93143 55.27 5.52288C55.5687 5.28785 56.9192 4.69526 57.4136 4.67839C57.5018 4.76029 57.5285 4.76708 57.6734 4.80831C58.2448 5.92353 58.3506 7.41901 57.8034 8.70594C57.6145 9.15014 57.0539 9.32689 56.959 9.68034C57.5818 10.3823 57.6036 11.9632 57.8683 13.0583C58.1919 14.3967 58.0655 16.0369 58.3881 17.4756C58.4096 17.9736 58.4313 18.4716 58.4529 18.9697C58.7199 20.1018 58.939 21.1629 59.3624 22.1527C60.3046 24.3551 61.8646 26.1054 62.8052 28.2591C63.6153 30.1138 63.8273 32.2806 64.8189 33.9106C66.8332 37.2215 68.8729 40.375 70.4054 44.1743C70.9956 45.6376 71.1843 47.3115 71.5747 48.9165C71.7571 49.6666 71.6757 50.4857 71.8345 51.19V52.1645C72.0078 52.9683 71.922 53.98 72.0943 54.763C72.2448 55.4457 71.8694 56.2035 71.7046 56.6468C71.4603 57.3036 71.3289 57.8368 71.055 58.4656C70.775 59.1089 70.2615 59.7586 70.0156 60.4144C69.5943 61.5391 70.1458 63.9243 70.1456 65.3515C70.1455 65.7595 70.1879 66.1967 70.0806 66.5208C69.827 67.2864 68.8962 67.8921 68.1968 68.2098C67.1008 68.7077 64.0364 69.6235 62.4154 69.2491C61.6999 69.0838 60.8947 69.2179 60.6616 68.5995C60.3335 68.1439 60.4773 67.2872 60.2719 66.7157C59.7542 65.2762 58.6197 64.8533 57.0238 65.2865V65.1566C57.2762 64.9529 57.3539 64.6478 57.5436 64.3771C57.9806 63.7532 58.4449 63.1164 58.9077 62.4933C59.4684 61.7384 60.3618 61.2229 60.9214 60.4795C62.4464 58.4533 63.5875 55.9162 63.4548 52.6193C63.3357 52.5358 63.3436 52.4913 63.1949 52.4244C63.1184 52.3721 63.0857 52.3741 62.9352 52.3594C62.8022 52.57 62.7411 52.6213 62.7403 53.009C62.9416 53.3149 62.8343 54.4175 62.7403 54.763C62.3674 56.1328 62.0496 57.5529 61.3761 58.6605C61.0128 59.2582 60.6244 59.8633 60.2069 60.4144C60.0758 60.5873 59.8496 60.6598 59.6871 60.8042C59.0999 61.3264 58.4576 62.0513 57.9983 62.6881C56.569 64.6696 55.3545 67.3032 53.2563 68.5995C51.9611 69.3997 49.2633 69.2239 48.0595 68.4696C46.5723 67.5377 46.6047 65.3334 47.3449 63.5975C47.6542 62.8726 48.1576 62.1433 48.5143 61.4538C49.0206 60.475 49.3311 59.2876 49.6835 58.2059C50.1739 56.7009 50.2173 54.9968 50.593 53.3987C50.6146 52.9657 50.6362 52.5326 50.6579 52.0995C50.7821 51.5314 50.6436 50.8189 50.7879 50.1507C50.914 49.5663 51.0078 48.3018 50.8527 47.6172C50.7446 46.9028 50.6363 46.1882 50.528 45.4735C50.1878 44.2734 49.8116 43.0844 49.4886 41.8358C49.3371 40.4934 49.1855 39.1509 49.0339 37.8082C48.8688 37.7191 48.8063 37.6837 48.5143 37.6784C48.4588 37.7731 48.3965 37.8645 48.3194 37.9381C48.2902 39.9229 48.5203 41.8277 49.0339 43.3949C49.6561 45.2927 50.5484 48.1527 49.9434 50.8003C49.9001 51.5798 49.8568 52.3593 49.8134 53.1389C49.2646 55.4809 49.1556 57.8658 48.3194 59.8948C47.7134 61.3651 46.8578 62.6269 46.3056 64.1172C46.1084 64.6498 46.1047 65.2879 45.9809 65.8712C46.0459 66.3475 46.1108 66.8239 46.1757 67.3003ZM48.3843 8.90083C48.1212 9.14959 47.9251 9.20557 47.8647 9.68034C48.3095 9.98379 49.5828 10.5091 49.8784 9.68034C49.9694 9.53487 49.9139 9.46756 49.8784 9.29059C49.3724 9.12986 49.1526 8.90409 48.3843 8.90083ZM42.7329 8.96582C42.477 9.1579 42.147 9.1583 42.0183 9.4855C41.9614 9.56962 41.9602 9.64575 41.9535 9.8103C42.1789 10.0294 42.2259 10.1709 42.6679 10.2001C43.0455 9.93124 43.4847 10.0665 43.5124 9.42055C43.3573 9.25443 43.372 9.12205 43.1227 9.03079C43.0306 8.96833 42.91 8.96732 42.7329 8.96579V8.96582ZM44.8116 12.9284C44.2778 13.2683 43.3578 13.0079 42.7329 13.1234C42.6534 13.2715 42.6265 13.2695 42.6029 13.5131C43.0847 14.1388 43.2746 14.9901 44.2919 15.0721C44.7171 14.6027 45.1361 14.0841 45.5911 13.643C45.5914 13.2188 45.4841 13.1632 45.3312 12.9285H44.8116V12.9284ZM45.786 17.1509C45.5652 17.3083 44.8197 17.5956 44.4868 17.5406C44.1814 17.4901 43.7276 17.3607 43.5124 17.4106C43.5341 17.4756 43.5558 17.5406 43.5774 17.6056C44.8092 18.4619 44.9411 18.3874 45.9159 17.3458C45.8613 17.1905 45.8899 17.2389 45.786 17.1508V17.1509Z" fill="white"/>
</svg>
