<svg width="117" height="69" viewBox="0 0 117 69" fill="none" xmlns="http://www.w3.org/2000/svg">
<path d="M34.5859 30.4769C32.2459 28.1369 28.0796 26.8242 26.9952 26.4818C26.9952 26.4818 26.3103 26.2535 18.9479 23.8564C17.7493 23.4569 11.8708 21.973 11.8708 16.7794C11.8708 11.5857 16.8362 9.93058 19.4615 9.93058C19.9181 9.93058 23.0001 9.70229 26.5386 12.2706C30.0771 14.8959 33.1591 23.1716 33.1591 23.1716H35.7274V7.9901H33.1591L31.0474 10.1018C28.2508 8.44668 24.1415 6.84863 19.0049 6.84863C10.2728 6.84863 1.76885 11.3574 1.76885 20.5462C1.76885 29.735 10.2728 33.3306 13.1264 34.3008C15.9801 35.214 18.3201 35.9559 21.8586 37.1545C25.1118 38.2389 28.0225 39.9511 28.0225 44.2316C28.0225 48.512 24.7123 50.1672 22.6006 50.6238C21.402 50.852 21.1737 50.852 21.9157 50.852H32.303C32.303 50.852 33.7298 50.1672 35.1567 48.512C36.5835 46.8569 38.4669 43.775 38.4669 40.0081C38.4098 35.8989 36.983 32.7599 34.5859 30.4769ZM17.2928 50.6808C15.8659 50.3955 14.7815 50.2242 13.583 49.5964C11.9279 48.7974 10.1586 47.4277 8.84592 46.0008C7.59031 44.6311 6.62007 43.1472 5.7069 41.435C4.90787 40.0081 4.50836 38.6384 3.93763 37.3257H0.570312V50.795H17.2928C17.3498 50.795 17.3498 50.7379 17.2928 50.6808ZM73.3957 61.9813C73.3957 58.7281 74.9937 55.8745 77.3908 54.0481H0.570312V67.2891H74.9367C73.9664 65.8052 73.3957 63.9789 73.3957 61.9813ZM100.049 67.232C99.6493 67.232 99.2498 67.1179 98.9074 66.9467C97.6518 66.3189 97.1952 64.835 97.823 63.5794L107.183 45.2018L97.823 26.8242C97.1952 25.6257 97.7089 24.0847 98.9074 23.4569C100.106 22.8291 101.647 23.3428 102.275 24.5413L112.205 44.0603C112.548 44.7452 112.548 45.6013 112.205 46.3433L102.275 65.8623C101.875 66.7184 100.962 67.232 100.049 67.232Z" fill="#7FC220"/>
<path d="M10.445 55.9321H8.7899V57.5872H7.64844V59.0711H8.7899V62.9521C8.7899 64.0935 9.41771 64.7213 10.6733 64.7213C11.0158 64.7213 11.4153 64.6643 11.8148 64.6072L12.0431 64.5501V62.9521L11.7577 63.0091C11.4723 63.0662 11.3011 63.1233 11.0158 63.1233C10.5592 63.1233 10.445 63.0091 10.445 62.6667V59.0711H12.0431V57.5301H10.445V55.9321ZM17.6362 57.3589C15.3533 57.3589 13.8694 58.7857 13.8694 61.0116C13.8694 63.2374 15.3533 64.6643 17.6362 64.6643C19.4626 64.6643 20.7753 63.8082 21.2889 62.3243L21.4031 61.9818H19.5197L19.4626 62.153C19.2343 62.7808 18.6065 63.0662 17.6362 63.0662C16.4948 63.0662 15.6958 62.4384 15.5816 61.4682H21.4031V61.0686C21.4031 58.7857 19.9762 57.3589 17.6362 57.3589ZM17.6362 58.9569C18.6636 58.9569 19.3484 59.4135 19.5767 60.2125H15.6387C15.924 59.4135 16.6089 58.9569 17.6362 58.9569ZM23.2865 55.3613H24.9416V64.6072H23.2865V55.3613ZM30.6489 57.3589C28.366 57.3589 26.8821 58.7857 26.8821 61.0116C26.8821 63.2374 28.366 64.6643 30.6489 64.6643C32.4753 64.6643 33.7879 63.8082 34.3016 62.3243L34.4158 61.9818H32.5323L32.4753 62.153C32.247 62.7808 31.6192 63.0662 30.6489 63.0662C29.5075 63.0662 28.7084 62.4384 28.5943 61.4682H34.4158V61.0686C34.4158 58.7857 32.9319 57.3589 30.6489 57.3589ZM30.6489 58.9569C31.6762 58.9569 32.3611 59.4135 32.5894 60.2125H28.6514C28.9367 59.4135 29.6216 58.9569 30.6489 58.9569ZM41.8353 61.8106C41.7211 62.6096 41.0362 63.1233 40.066 63.1233C38.8104 63.1233 38.0114 62.3243 38.0114 61.0686C38.0114 59.756 38.8104 58.9569 40.1231 58.9569C40.9792 58.9569 41.5499 59.3564 41.7782 60.0413L41.8353 60.2125H43.5475L43.4904 59.9272C43.205 58.3291 41.8923 57.3589 40.0089 57.3589C37.7831 57.3589 36.2421 58.8999 36.2421 61.0116C36.2421 63.1804 37.726 64.6643 40.0089 64.6643C41.8923 64.6643 43.2621 63.6369 43.5475 61.8677L43.6045 61.5823H41.8353V61.8106ZM49.3119 57.3589C46.9719 57.3589 45.4309 58.7857 45.4309 61.0116C45.4309 63.2374 46.9719 64.6643 49.3119 64.6643C51.6519 64.6643 53.1358 63.2374 53.1358 61.0116C53.1928 58.8428 51.7089 57.3589 49.3119 57.3589ZM49.3119 63.1233C47.9421 63.1233 47.2001 62.3243 47.2001 61.0116C47.2001 59.6989 47.9992 58.8999 49.3119 58.8999C50.6816 58.8999 51.4236 59.6989 51.4236 61.0116C51.4806 62.3813 50.6816 63.1233 49.3119 63.1233ZM64.3221 57.3589C63.2948 57.3589 62.4387 57.7584 61.6397 58.5574C61.2401 57.7584 60.384 57.3589 59.2997 57.3589C58.3865 57.3589 57.5304 57.7013 56.9026 58.2721V57.5301H55.2475V64.493H56.9026V60.9545C56.9026 59.6989 57.7587 58.7857 59.0143 58.7857C59.9845 58.7857 60.327 59.2423 60.327 60.4408V64.436H61.925V60.8974C61.925 59.6418 62.7811 58.7286 64.0367 58.7286C65.007 58.7286 65.3494 59.1852 65.3494 60.3838V64.3789H67.0045V60.4408C67.0045 59.0711 66.7192 57.3589 64.3221 57.3589Z" fill="white"/>
<path d="M100.564 41.0932C100.564 41.0932 94.4 28.9937 93.4298 27.1674C91.3181 22.8869 94.4571 23.1722 96.9683 23.1722V20.5469H61.2976V23.1722C66.263 23.1722 68.0322 24.1995 63.6376 28.5942L54.4488 37.783V3.53906L39.0391 4.22394V6.84931C39.0391 6.84931 41.322 6.90638 42.8059 8.04784C44.0044 8.96101 44.0044 11.5864 44.0044 11.5864V50.7957H54.3917V42.52L58.1586 38.7532L67.0049 50.7957H80.0176L65.8064 31.4478C65.8064 31.4478 66.0917 30.9342 69.3449 27.681C76.422 20.6039 79.4469 22.7727 82.3576 28.3659C84.3552 32.1898 92.06 47.3142 94.6854 52.6791C94.7425 52.8503 92.9161 56.4459 90.8615 58.7859C89.0922 60.7264 88.0078 60.8976 87.8366 60.6693C87.6654 60.3839 87.4371 60.0986 87.2659 59.8703C86.9805 59.4708 86.6952 59.0713 86.3527 58.7288C84.241 56.6171 80.9878 56.3888 79.1044 58.3293C77.221 60.2127 77.3922 63.4659 79.5039 65.5776C80.6454 66.7191 82.1293 67.3469 83.5561 67.2898H83.6132C86.9805 67.2327 91.0898 67.2327 99.4225 50.7386L103.817 42.1205L101.934 38.4108L100.564 41.0932Z" fill="url(#paint0_linear_332_861)"/>
<path d="M103.875 20.5459V23.1713C107.185 23.1713 109.754 23.1142 107.642 27.1664L106.557 29.2781L108.441 32.9878L110.495 29.0498C112.664 24.8835 113.635 23.1713 116.431 23.1713V20.5459H103.875Z" fill="url(#paint1_linear_332_861)"/>
<path d="M68.8852 14.6106H67.0018V7.53353C67.173 7.13402 67.4584 6.90572 67.7438 6.62036C68.0291 6.33499 68.3716 6.04963 68.714 5.82133C69.3989 5.42182 70.255 5.13646 71.054 5.02231C71.853 4.90816 72.6521 4.96524 73.394 5.2506C73.9647 5.47889 74.4213 5.82133 74.7067 6.39207C75.1062 7.13402 75.2774 8.04719 75.2774 8.90329V14.6677H73.4511V15.8662H80.9847V14.6677H78.9301V8.4467C78.9301 7.41938 78.816 6.39207 78.3023 5.53597C77.8457 4.67987 76.9896 4.10914 76.0764 3.7667C75.0491 3.42426 73.9647 3.36719 72.9374 3.36719C71.9101 3.36719 70.8828 3.48133 69.9125 3.82377C69.3418 3.99499 68.8281 4.28036 68.3716 4.6228C67.915 4.96524 67.4584 5.30768 67.0589 5.76426V3.48133H61.3516V4.67987H63.4633V14.6106H61.3516V15.8091H68.8852V14.6106Z" fill="url(#paint2_linear_332_861)"/>
<path d="M98.1104 14.2681C97.1972 15.1813 95.8846 15.6378 94.6289 15.9232C93.2021 16.2086 91.7182 16.2086 90.2914 16.0374C87.6089 15.6949 84.6982 14.4964 83.785 11.6998C83.3855 10.3871 83.3855 8.90321 83.8421 7.6476C84.1846 6.50613 84.9265 5.59296 85.8968 4.90808C86.867 4.22321 88.0085 3.82369 89.1499 3.65247C90.5197 3.36711 92.0036 3.31004 93.4304 3.53833C94.8002 3.70955 96.2841 4.10906 97.3685 5.0793C97.825 5.47882 98.2246 6.04955 98.4529 6.67735C98.6811 7.36223 98.7382 8.10418 98.6241 8.78906C98.567 9.1315 98.5099 9.53101 98.4529 9.87345H87.3236C87.3236 10.7295 87.5519 11.5286 88.0085 12.2134C88.465 12.8983 89.1499 13.3549 89.8919 13.7544C90.6338 14.0969 91.4328 14.2681 92.2889 14.3822C93.145 14.4964 94.0011 14.4964 94.8002 14.3252C95.6563 14.1539 96.6265 13.9256 97.3685 13.412L98.1104 14.2681ZM91.6611 4.50857C90.5197 4.50857 89.3211 4.67979 88.408 5.53589C87.6089 6.33491 87.3236 7.53345 87.2665 8.61784H95.1426C95.3138 7.53345 95.1997 6.33491 94.4577 5.53589C93.7158 4.73686 92.6885 4.50857 91.6611 4.50857Z" fill="url(#paint3_linear_332_861)"/>
<path d="M103.873 1.1416V3.4816H101.02V4.90843H103.873V12.6133C103.873 13.2982 103.987 14.0972 104.387 14.6679C104.729 15.1816 105.3 15.524 105.871 15.7523C106.613 16.0377 107.412 16.0948 108.211 16.0948C109.124 16.0948 110.037 15.9806 110.95 15.8094C111.863 15.5811 112.777 15.2387 113.519 14.725L112.605 13.6977C112.434 13.8118 112.32 13.8689 112.149 13.9831C111.749 14.1543 111.293 14.3255 110.893 14.4396C110.494 14.5538 110.037 14.6109 109.581 14.6109C108.953 14.5538 108.268 14.4396 107.925 13.8689C107.526 13.2982 107.469 12.5562 107.469 11.9284V4.9655H112.662V3.53867H107.469V1.19867L103.873 1.1416Z" fill="url(#paint4_linear_332_861)"/>
<defs>
<linearGradient id="paint0_linear_332_861" x1="71.4281" y1="66.9314" x2="71.4281" y2="1.15626" gradientUnits="userSpaceOnUse">
<stop/>
<stop offset="1" stop-color="#41494C"/>
</linearGradient>
<linearGradient id="paint1_linear_332_861" x1="110.153" y1="66.9304" x2="110.153" y2="1.15529" gradientUnits="userSpaceOnUse">
<stop/>
<stop offset="1" stop-color="#41494C"/>
</linearGradient>
<linearGradient id="paint2_linear_332_861" x1="71.1681" y1="66.9307" x2="71.1681" y2="1.1556" gradientUnits="userSpaceOnUse">
<stop/>
<stop offset="1" stop-color="#41494C"/>
</linearGradient>
<linearGradient id="paint3_linear_332_861" x1="91.0864" y1="66.9306" x2="91.0864" y2="1.15552" gradientUnits="userSpaceOnUse">
<stop/>
<stop offset="1" stop-color="#41494C"/>
</linearGradient>
<linearGradient id="paint4_linear_332_861" x1="107.269" y1="66.931" x2="107.269" y2="1.15587" gradientUnits="userSpaceOnUse">
<stop/>
<stop offset="1" stop-color="#41494C"/>
</linearGradient>
</defs>
</svg>
