<svg width="130" height="121" viewBox="0 0 130 121" fill="none" xmlns="http://www.w3.org/2000/svg">
<path fill-rule="evenodd" clip-rule="evenodd" d="M64.4508 18.8665L89.8014 33.5027C113.698 47.2993 125.646 54.1977 128.789 65.9084C130.963 73.9691 128.363 82.1363 122.04 94.2416C120.782 96.6395 120.153 97.8466 119.267 98.3737C118.375 98.8971 116.069 98.875 111.454 98.8108C108.854 98.7736 106.291 99.432 104.029 100.718C101.767 102.004 99.8876 103.87 98.586 106.124C97.2845 108.379 96.6075 110.939 96.625 113.541C96.6426 116.143 97.3541 118.692 98.686 120.925C101.046 124.897 102.228 126.879 102.214 127.91C102.201 128.941 101.474 130.083 100.02 132.368C92.7003 143.906 86.9208 150.238 78.8595 152.389C67.1526 155.526 55.2043 148.628 31.3014 134.828L5.95082 120.191C-17.9457 106.395 -29.894 99.4964 -33.037 87.7857C-35.2108 79.7251 -32.6112 71.5579 -26.288 59.4525C-25.0301 57.0546 -24.4006 55.8475 -23.5146 55.3204C-22.6224 54.797 -20.3208 54.8254 -15.7014 54.8834C-13.1019 54.9205 -10.5387 54.2621 -8.27652 52.9764C-6.01437 51.6906 -4.13541 49.8241 -2.83383 47.5697C-1.53224 45.3153 -0.855251 42.7548 -0.872822 40.1528C-0.890389 37.5508 -1.60188 35.0018 -2.93376 32.7692C-5.29729 28.8039 -6.47541 26.815 -6.46189 25.7842C-6.44838 24.7534 -5.7214 23.611 -4.26378 21.32C3.05188 9.78762 8.82774 3.46267 16.8927 1.30487C28.5997 -1.83218 40.5479 5.06616 64.4508 18.8665ZM83.2126 67.4421C83.3986 68.137 83.4459 68.8619 83.3518 69.5754C83.2577 70.289 83.024 70.9771 82.664 71.6006C82.304 72.2241 81.8249 72.7706 81.254 73.2089C80.6831 73.6472 80.0317 73.9686 79.3369 74.1549L19.3736 90.1975C17.9671 90.573 16.4702 90.3755 15.2106 89.6483C13.951 88.9211 13.0315 87.7234 12.6534 86.3177C12.4674 85.6229 12.4201 84.898 12.5142 84.1844C12.6083 83.4709 12.8421 82.7827 13.202 82.1592C13.562 81.5357 14.0411 80.9892 14.612 80.5509C15.1829 80.1126 15.8343 79.7912 16.5291 79.6049L76.4924 63.5623C77.8989 63.1868 79.3958 63.3843 80.6554 64.1115C81.915 64.8387 82.8345 66.0364 83.2126 67.4421ZM50.9787 108.191C51.8105 108.723 52.7416 109.08 53.7157 109.241C54.6897 109.402 55.6866 109.364 56.6461 109.128C57.6056 108.893 58.5079 108.466 59.2984 107.873C60.089 107.279 60.7515 106.532 61.2459 105.675C61.7403 104.819 62.0563 103.872 62.175 102.89C62.2937 101.909 62.2125 100.914 61.9364 99.9655C61.6603 99.0169 61.1949 98.1345 60.5684 97.3715C59.9419 96.6084 59.1672 95.9806 58.2912 95.5258C54.7889 93.5038 50.3124 94.702 48.2941 98.1978C46.2759 101.693 47.4827 106.173 50.9787 108.191ZM37.5685 58.2304C41.0708 60.2524 45.5473 59.0541 47.5656 55.5584C49.5838 52.0627 48.3833 47.5868 44.881 45.5647C44.0491 45.0334 43.1181 44.6765 42.144 44.5154C41.1699 44.3544 40.1731 44.3926 39.2136 44.6277C38.2541 44.8628 37.3518 45.29 36.5612 45.8835C35.7707 46.4769 35.1082 47.2244 34.6138 48.0807C34.1194 48.937 33.8033 49.8845 33.6847 50.8658C33.566 51.8472 33.6472 52.8422 33.9233 53.7907C34.1994 54.7392 34.6648 55.6216 35.2913 56.3847C35.9178 57.1477 36.6925 57.7756 37.5685 58.2304Z" fill="white"/>
</svg>
