<svg width="140" height="140" viewBox="0 0 140 140" fill="none" xmlns="http://www.w3.org/2000/svg">
<g opacity="0.3">
<g clip-path="url(#clip0_399_1461)">
<path d="M144.178 32.2999C82.743 18.3523 20.4825 54.3165 1.852 114.472C1.15136 116.734 2.48394 119.11 4.77365 119.715L16.947 122.931C19.131 123.509 21.3807 122.25 22.0585 120.094C37.5773 70.8214 88.5045 41.4096 138.946 52.6091C141.152 53.0998 143.366 51.7791 143.958 49.6007L147.26 37.4503C147.879 35.1662 146.487 32.8242 144.178 32.2999ZM98.7549 117.969C90.7666 122.581 88.0334 132.799 92.6494 140.794C97.2655 148.789 107.481 151.531 115.469 146.919C123.458 142.307 126.191 132.089 121.575 124.094C116.959 116.099 106.743 113.357 98.7549 117.969ZM133.639 72.621C94.2825 64.6051 54.7619 87.4555 42.0406 125.505C41.2779 127.785 42.611 130.209 44.9348 130.815L57.1559 134.01C59.2848 134.566 61.52 133.396 62.2432 131.314C71.7379 103.948 100.185 87.5722 128.566 93.0225C130.73 93.4373 132.862 92.0887 133.444 89.9647L136.788 77.7838C137.427 75.4669 135.991 73.0995 133.639 72.621Z" fill="white"/>
</g>
</g>
<defs>
<clipPath id="clip0_399_1461">
<path d="M0 0H140V90C140 117.614 117.614 140 90 140H0V0Z" fill="white"/>
</clipPath>
</defs>
</svg>
